<?xml version="1.0" encoding="UTF-8"?>
<svg id="_레이어_2" data-name="레이어 2" xmlns="http://www.w3.org/2000/svg" xmlns:xlink="http://www.w3.org/1999/xlink" viewBox="0 0 807.66 114.64">
  <defs>
    <style>
      .cls-1 {
        fill: url(#linear-gradient);
      }
    </style>
    <linearGradient id="linear-gradient" x1="0" y1="57.32" x2="807.66" y2="57.32" gradientUnits="userSpaceOnUse">
      <stop offset="0" stop-color="#f9107e"/>
      <stop offset="0" stop-color="#f9107e"/>
      <stop offset=".12" stop-color="#b91281"/>
      <stop offset=".22" stop-color="#8a1583"/>
      <stop offset=".3" stop-color="#6c1685"/>
      <stop offset=".34" stop-color="#621786"/>
      <stop offset=".42" stop-color="#563497"/>
      <stop offset=".6" stop-color="#397fc2"/>
      <stop offset=".74" stop-color="#21c0e7"/>
      <stop offset=".94" stop-color="#0793c1"/>
      <stop offset="1" stop-color="#0087b7"/>
      <stop offset="1" stop-color="#0087b7"/>
    </linearGradient>
  </defs>
  <g id="_레이어_1-2" data-name="레이어 1">
    <path class="cls-1" d="M751.53,0c-16.07,.06-30.44,8.06-40.68,17.79-9.86,8.91-22.41,22.59-43.3,23.84l-5.69,.02c-20.89-1.08-34.8-14.75-43.49-23.49-10.24-10.8-24.75-17.53-40.82-17.46-16.07,.06-30.51,6.9-40.67,17.79-8.62,8.8-22.42,22.58-43.3,23.84l-5.69,.02c-20.89-1.08-34.8-14.75-43.49-23.49-10.24-10.8-24.75-17.52-40.81-17.46-16.07,.06-30.52,6.9-40.67,17.79-8.62,8.8-22.41,22.59-43.3,23.84l-5.69,.03c-20.89-1.08-34.79-14.76-43.49-23.48-10.24-10.81-24.75-17.53-40.81-17.47-16.07,.07-30.51,6.9-40.67,17.79-8.62,8.8-22.41,22.59-43.3,23.84l-5.69,.02c-20.9-1.08-34.8-14.75-43.49-23.48C86.26,9.47,71.75,2.75,55.68,2.81,24.8,2.94-.13,28.08,0,58.95c.12,30.88,25.26,55.81,56.14,55.68,16.07-.06,30.52-6.91,40.68-17.79,8.62-8.81,22.4-22.57,43.27-23.83l5.73-.03c20.88,1.09,34.77,14.74,43.46,23.48,10.24,10.81,24.75,17.53,40.82,17.47,16.07-.06,30.53-6.91,40.68-17.8,8.62-8.8,22.41-22.57,43.27-23.83l5.74-.02c20.88,1.09,34.77,14.74,43.46,23.48,10.24,10.81,24.75,17.53,40.82,17.47,16.07-.06,30.52-6.91,40.68-17.8,8.62-8.8,22.4-22.57,43.27-23.83l5.73-.02c20.87,1.09,34.76,14.74,43.46,23.47,10.24,10.81,24.75,17.54,40.82,17.47,16.07-.06,30.52-6.91,40.68-17.8,8.62-8.8,22.41-22.57,43.27-23.82,0,0,5.73-.03,5.74-.03,15.69,.82,27.69,10.01,39.1,19.89,13.47,11.67,26.45,21.13,45.18,21.06,30.88-.13,55.81-25.26,55.68-56.14-.13-30.8-25.13-55.68-55.9-55.68h-.24"/>
  </g>
</svg>