<?xml version="1.0" encoding="UTF-8"?>
<svg id="_레이어_2" data-name="레이어 2" xmlns="http://www.w3.org/2000/svg" xmlns:xlink="http://www.w3.org/1999/xlink" viewBox="0 0 1920 935.99">
  <defs>
    <style>
      .cls-1 {
        fill: url(#_무제_그라디언트_2);
      }

      .cls-2 {
        clip-path: url(#clippath-1);
      }

      .cls-3 {
        clip-path: url(#clippath);
      }

      .cls-4 {
        fill: none;
      }
    </style>
    <clipPath id="clippath">
      <rect class="cls-4" y="0" width="1920" height="935.99"/>
    </clipPath>
    <clipPath id="clippath-1">
      <path id="SVGID" class="cls-4" d="M1552.72,603.62l-1.52,.05c-230.21,13.84-378.31,165.02-467.25,255.83-26.9,28.85-56.26,54.41-87.64,76.48h87.5c13.76-12.26,27-25.18,39.63-38.74,82.87-84.6,221.53-226.12,430.29-239l57.96-.24c208.65,11.17,348.4,151.31,432.02,235.26,14.27,15.05,29.26,29.3,44.89,42.71h89.74c-34.18-22.88-66.1-49.8-95.21-80.55l-.48-.49c-89.25-89.6-238.62-239.57-468.89-251.53l-.77-.05-60.28,.25ZM310.94,.15C165.18,111.78,71.33,287.81,72.15,485.15c.65,162.23,64.45,314.51,179.63,428.77,7.65,7.59,15.46,14.94,23.42,22.07h87.75c-25.66-18-49.98-38.33-72.7-60.86-104.82-103.98-162.87-242.55-163.47-390.2C125.93,277.13,240.43,95.26,409.96,.15h-99.03ZM2105.79,.15c-22.95,18.41-44.74,38.63-65.2,60.58-82.94,84.66-221.68,226.29-430.55,239.09l-57.46,.22c-209.03-11.1-348.93-151.61-432.09-235.11-22.37-23.61-46.53-45.26-72.14-64.78h-98.36c47.89,27,92.09,61.46,131.31,102.84,89.29,89.66,238.71,239.76,469.19,251.64l.75,.04,59.76-.22,1.52-.04c230.32-13.77,378.53-165.07,467.55-255.95,36.28-38.93,77.06-71.86,121.24-98.32h-95.53Z"/>
    </clipPath>
    <linearGradient id="_무제_그라디언트_2" data-name="무제 그라디언트 2" x1="4718.5" y1="6202.5" x2="4725.33" y2="6202.5" gradientTransform="translate(-1939809.59 2550249.88) scale(411.09 -411.09)" gradientUnits="userSpaceOnUse">
      <stop offset="0" stop-color="#f9107e"/>
      <stop offset=".19" stop-color="#f9107e"/>
      <stop offset=".28" stop-color="#b91281"/>
      <stop offset=".36" stop-color="#8a1583"/>
      <stop offset=".42" stop-color="#6c1685"/>
      <stop offset=".46" stop-color="#621786"/>
      <stop offset=".52" stop-color="#563497"/>
      <stop offset=".64" stop-color="#397fc2"/>
      <stop offset=".74" stop-color="#21c0e7"/>
      <stop offset=".94" stop-color="#0793c1"/>
      <stop offset="1" stop-color="#0087b7"/>
      <stop offset="1" stop-color="#0087b7"/>
    </linearGradient>
  </defs>
  <g id="_레이어_1-2" data-name="레이어 1">
    <g class="cls-3">
      <g class="cls-2">
        <rect class="cls-1" x="71.33" y=".15" width="2129.98" height="935.83"/>
      </g>
    </g>
  </g>
</svg>