<svg width="52" height="62" viewBox="0 0 52 62" fill="none" xmlns="http://www.w3.org/2000/svg">
    <path d="M10.85 28.87c1.56.51 2.04.27 2-1.02.12-.62-.09-1.06-.6-1.48-1.24-1.03-1.71-2.41-1.54-4.01.04-.38.18-.72.66-.69.5.03.53.38.52.77-.01.44-.12.88.11 1.3.13.86.61 1.49 1.31 1.97.73.67 1.59.8 2.52.55.37-.1.69-.13 1.01.1.08.3.07.58-.13.83-.41.16-.83.28-1.27.36-.45.07-1.05-.29-1.33.12-.27.41.09.96.16 1.45.04.25 0 .57.27.74.18.31.31.66.63.87.19.22.38.45.7.48.1.21.29.29.5.33 1.24.63 2.47.81 3.71.01.69-.44 1-1.1 1.1-1.89.01-.19.05-.38.04-.56-.02-.39-.06-.81.44-.9.49-.09.66.26.76.66V29.68c-.07.33-.14.66-.22.99-.393.813-.277 1.323.35 1.53.78.43 1.62.55 2.49.51.34.16.68.14 1.02 0 .53.01 1.05-.07 1.53-.31.64-.21 1.2-.52 1.63-1.05.32-.33.6-.67.69-1.14.21-.18.3-.41.31-.68.28-.62.37-1.28.22-1.94-.64-2.89-2.76-4.39-5.22-5.58-.88-.49-1.83-.73-2.82-.86-.43-.05-1.02-.07-.71-.81.24-.4.63-.35 1.01-.36 2.18.35 4.11 1.27 5.81 2.66.36.3.67.82 1.06.9.54.1.51-.71.93-.96.76-.46.66-1.14.38-1.82-.48-1.16-1.4-1.89-2.5-2.42-.51-.39-1.13-.54-1.73-.71-1.19-.33-2.23-.9-3.06-1.82-.16-.39-.53-.82 0-1.17.57-.38.76.17 1.02.5.32.4.71.72 1.17.9.9.35 1.82.66 2.72 1 .28.11.33 0 .36-.23.22-1.44 1.14-2.42 2.2-3.3.36-.3.72-.27 1.01.06.31.35.15.67-.2.9-.37.24-.75.47-.98.87-1.19 1.38-1.19 2.28-.02 3.33.63.77 1.25 1.54 1.34 2.59.02.19.13.26.33.28.81.08.92.49.5 1.12-.27.06-.55.09-.81.17-.85.26-1.63 1.14-1.5 1.89.17.97.79 1.81.95 2.81.01.07.17.14.27.18 1.64.56 3.25.68 4.77-.37 1.48-1.07 1.71-2.93.5-4.21-.25-.27-.38-.53-.28-.89.59-.51 1.07-.18 1.36.31.48.83 1.03.6 1.62.23.39-.24.79-.5.98-.96.94-1.41.8-3.54-.31-4.98-1.57-2.03-4.35-2.12-6.06-.19-.29.28-.4.65-.52 1s-.33.6-.73.49c-.45-.13-.48-.5-.38-.87.08-.32.22-.62.34-.92.6-.98 1.51-1.56 2.53-2 .24-.05.49-.14.73-.14.94.02.7-.42.42-.95-.62-1.13-1.67-1.77-2.71-2.4-4.19-2.52-8.58-2.37-12.98-.72-2.13.8-3.53 2.51-4.52 4.53h-.51c-.37-.3-.32-.64-.15-1.04.3-.69.76-1.28 1.11-1.96-2.28 1.15-4.5 2.35-5.89 4.79.91-.01 1.67.06 2.41.23.28.25.55.51.3.92-.23.36-.58.24-.91.18-.05-.01-.11-.03-.16-.04-2.16-.45-3.95.41-4.85 2.41-1.07 2.37-.93 4.71.44 6.92.54.87 1.22 1.67 2.37 1.79h-.02zm4.85-7.4v.03l-.02-.02s.01 0 .02-.01zM33.35 49.89c-4.9-.01-9.79-.01-14.69 0-.78 0-1.38.51-1.45 1.23-.08.76.17 1.37 1 1.59.29.14.6.09.9.09h13.71c.3 0 .6-.04.91-.07.83-.31 1.21-.87 1.08-1.62-.13-.73-.67-1.22-1.46-1.22zM31.63 53.84c-3.75 0-7.5-.01-11.25 0-1.11 0-1.73.54-1.73 1.47 0 .92.63 1.45 1.74 1.46h11.25c1.08 0 1.74-.57 1.74-1.47 0-.91-.63-1.45-1.74-1.46h-.01zM30.69 57.99c-3.09.04-6.17.01-9.26.01-.85 0-.95.14-.48.88 1.16 1.84 2.95 2.6 5.02 2.88 2.14-.27 3.97-1.05 5.14-2.98.3-.49.41-.81-.42-.81v.02z" fill="#fff"/>
    <path d="M42.13 22.03c-.13.24-.26.51-.46.69-.38.34-.33.71-.22 1.13.7 2.67.66 5.33-.06 7.99-.21.62-.43 1.23-.64 1.85-.47 1.18-1.03 2.32-1.69 3.41-.98 1.6-2 3.17-3.01 4.75-.9 1.26-1.13 2.76-1.39 4.23-.12.66-.4.85-1.05.84-5.06-.02-10.12-.03-15.18 0-.71 0-.99-.24-1.08-.91-.29-2.16-1.13-4.09-2.44-5.85-1.19-1.6-2.21-3.33-3.08-5.14-.38-.9-.75-1.8-1.13-2.7l-.54-1.8c.02-.58-.41-.79-.83-1-.36-.27-.73-.53-1.16-.85.09 1.43.33 2.71.7 3.98.21.57.42 1.14.63 1.7.8 2.12 1.91 4.09 3.21 5.92 1.42 2 2.58 4.05 2.9 6.54.17 1.34 1.03 1.98 2.39 1.98 5.34.02 10.68.03 16.02 0 1.35 0 2.07-.67 2.38-2 .29-1.21.46-2.46.95-3.62.63-.95 1.27-1.89 1.89-2.84 1.22-1.85 2.39-3.74 3.16-5.83 1.92-4.41 1.9-8.82.13-13.39-.18.4-.28.66-.42.9l.02.02z" fill="#fff"/>
    <path d="M16.11 34.95c1.62.23 3.19.17 4.45-1.09.13-.1.3-.17.38-.3.13-.21.66-.21.4-.57a.732.732 0 0 0-.89-.26c-.15.07-.29.16-.43.24-1.1.35-2.21.32-3.32.04-.39-.16-.79-.33-1.18-.49-.53-.35-1.04-.74-1.48-1.2-.16-.22-.25-.49-.51-.64-.09-.51-.26-.86-.86-.49-1.013 0-1.357.337-1.03 1.01.04.44.34.77.53 1.14.33.6.78 1.1 1.33 1.51.17.11.33.23.5.34.04.03.09.05.13.06.18.09.36.17.55.26.47.15.93.37 1.41.43l.02.01zM25.95 4.86c.34-.03.56-.24.58-.59.02-.44 0-.88 0-1.33 0-.45.01-.88 0-1.33-.02-.39-.25-.62-.63-.64-.4-.02-.65.24-.66.6-.03.91-.03 1.82 0 2.73.02.38.32.58.7.55l.01.01zM3.2 34.57c-.85.23-1.69.52-2.52.81-.35.12-.54.41-.42.79.13.4.43.58.84.45.82-.26 1.63-.53 2.43-.81.28-.1.45-.31.46-.66-.07-.43-.35-.7-.8-.58h.01zM51.21 35.45c-.9-.35-1.83-.63-2.7-.92-.39.05-.65.2-.73.54-.07.31.05.58.33.69.88.32 1.78.63 2.68.9.33.1.59-.12.72-.43.14-.34 0-.66-.3-.77v-.01zM11.37 9.05c.27.36.63.47 1 .18.34-.27.31-.62.06-.95-.47-.65-.94-1.3-1.42-1.94-.15-.21-.35-.35-.62-.35-.52.03-.79.55-.48 1.04.45.7.95 1.36 1.45 2.02h.01zM39.45 9.27c.37.26.7.12.94-.21.48-.65.95-1.3 1.41-1.96.09-.13.13-.3.17-.4-.01-.33-.13-.55-.38-.66-.29-.12-.57-.06-.75.19-.52.69-1.04 1.38-1.52 2.09-.23.33-.23.7.13.96v-.01zM48.66 21.18c.72-.24 1.64-.52 2.54-.87.29-.11.45-.41.3-.76-.14-.31-.39-.5-.73-.4-.9.26-1.79.55-2.67.86-.28.1-.41.38-.33.69.09.33.32.51.88.48h.01zM12.23 46.44c-.32-.14-.6-.04-.8.23-.48.64-.95 1.29-1.42 1.93-.26.35-.34.74.03 1.02.41.31.77.12 1.05-.27.45-.63.91-1.25 1.35-1.88.09-.13.14-.29.2-.41-.06-.3-.17-.53-.42-.63l.01.01zM3.64 20.01c-.88-.33-1.78-.61-2.5-.85-.53-.05-.79.1-.86.44-.07.32 0 .63.36.75.86.29 1.73.58 2.61.83.33.1.6-.08.72-.41.12-.34-.01-.65-.32-.76h-.01zM40.15 46.51c-.21-.22-.51-.18-.75.03-.26.24-.31.55-.12.83.5.73 1.02 1.45 1.55 2.16.19.25.47.29.75.2.28-.09.37-.31.39-.59-.01-.07 0-.16-.04-.23-.52-.85-1.09-1.67-1.77-2.39l-.01-.01z" fill="#fff"/>
</svg>
