<svg width="52" height="53" viewBox="0 0 52 53" fill="none" xmlns="http://www.w3.org/2000/svg">
    <path d="M50.26 12.91c-4.7-2.28-7.47-5.96-8.06-11.2-.11-.99-.62-1.46-1.61-1.47-1.43 0-2.86.02-4.29.03L12.01.24c-.95 0-1.36.52-1.49 1.45-.69 5.12-3.28 8.91-7.97 11.18-1.34.65-1.79 1.36-1.56 2.82.24 1.47.46 2.95.77 4.4C4.06 30.92 8.97 40.24 17.7 47.3c2.38 1.93 4.93 3.6 7.76 4.83.57.56 1.12.38 1.76.07 9.97-4.89 16.76-12.7 20.92-22.88 1.83-4.48 3.07-9.13 3.53-13.97.11-1.18-.34-1.92-1.4-2.44h-.01zm-2.95 5.06c-1.25 6.51-3.46 12.63-7.26 18.13-.26.38-.63.74-.5 1.28v.02c-.69 0-.89.64-1.21 1.05-2.73 3.43-6.08 6.13-9.72 8.56-1.85 1.23-3.26 1.09-4.79-.25-2.08-1.3-4.04-2.76-5.83-4.44-3.54-3.32-6.3-7.2-8.45-11.55-2.14-4.34-3.54-8.9-4.31-13.67-.11-.66.06-1.12.62-1.48.34-.22.68-.45 1.02-.68 3.43-2.28 5.62-5.48 6.87-9.35.44-1.36.45-1.4 1.93-1.4 5.92 0 11.84-.01 17.75 0 1.14-.03 2.29.22 3.41-.19.02-.07.03-.14.04-.21 0 .02.01.05.02.07.14.23.38.29.62.28.85-.02 1.16.49 1.37 1.22 1.21 4.14 3.67 7.38 7.25 9.78 1.51 1.01 1.52 1 1.17 2.81v.02z" fill="#fff"/>
    <path d="M34.93 14.33c-.73.15-1.12.72-1.51 1.28-3.11 4.5-6.24 8.99-9.34 13.51-.42.61-.64.64-1.18.12-1.74-1.68-3.53-3.3-5.3-4.94-.73-.68-1.56-.82-2.45-.41-.78.36-1.16 1.01-1.16 2.01-.05.63.37 1.15.89 1.63 2.4 2.22 4.8 4.43 7.19 6.66 1.51 1.41 2.71 1.3 3.87-.38 1.8-2.6 3.61-5.2 5.41-7.8 1.94-2.8 3.87-5.59 5.8-8.39.56-.81.58-1.67.03-2.48-.54-.8-1.34-.99-2.25-.81z" fill="#fff"/>
</svg>
