<svg width="50" height="56" viewBox="0 0 50 56" fill="none" xmlns="http://www.w3.org/2000/svg">
    <path d="M14.37 44.51c-.13-1.01-.73-.5-1.16-.47-.48.04-1.01.09-.8.88.2.72.42 1.46.38 2.28-7.28-4.15-11.63-14.19-9.96-22.76 1.1-5.65 3.85-10.28 8.37-13.85.21-.16.65-.3.53-.58-.21-.48-.5-.98-.9-1.3-.38-.3-.68.23-.95.44-11.56 9.13-12.52 26.2-2.09 36.59.98.98 2.08 1.81 3.15 2.69-.33.39-.76.31-1.13.36-1.14.17-.4.89-.42 1.36-.02.5.16.75.79.6 1.28-.32 2.58-.54 3.87-.77.93-.17 1.27-.68 1.08-1.59-.27-1.29-.61-2.57-.78-3.87l.02-.01zM18.15 8.03c0 .58.12.8.76.8 4.07-.03 8.13-.03 12.2 0 .61 0 .78-.18.77-.78-.03-2.1-.03-4.21 0-6.31.01-.6-.14-.78-.76-.77-2.03.04-4.07.01-6.1.01-2.03 0-4.07.02-6.1-.01-.59-.01-.78.14-.77.76.04 2.1.03 4.21 0 6.31v-.01zm6.82-6.58c1.88-.03 3.47 1.55 3.47 3.45 0 1.87-1.5 3.37-3.38 3.39-1.93.02-3.47-1.5-3.46-3.41 0-1.85 1.53-3.39 3.38-3.42l-.01-.01zM28.95 46.99c-.42.01-1.05-.29-1 .62.06.99 0 2 .01 2.99 0 .82-.38 1.27-1.23 1.27h-3.42c-.83 0-1.26-.4-1.26-1.24 0-.96-.07-1.93.02-2.89.08-.88-.43-.79-.97-.77-.5.02-1.04-.19-1.02.73.06 2.46.04 4.92 0 7.38 0 .59.2.71.73.7 1.39-.03 2.78-.01 4.17-.01 1.39 0 2.85-.02 4.28.01.52.01.66-.15.66-.66-.02-2.49-.04-4.99 0-7.48.02-.88-.54-.66-.98-.65h.01z" fill="#fff"/>
    <path d="M14.25 11.92c-.01.66.18.84.83.82 1.99-.04 3.99-.02 5.98-.02 1.99 0 3.99-.04 5.98.02.76.02.96-.21.95-.95-.01-.72-.08-1.07-.96-1.05-3.1.06-6.19.03-9.29.02-1.25 0-1.51-.26-1.52-1.48 0-1.21-.06-2.42.02-3.63.06-.85-.41-.82-.98-.8-.52.02-1.04-.14-1.02.75.07 2.1.05 4.2 0 6.3l.01.02zM22.25 27.62c-.093 1.16.457 1.74 1.65 1.74h1.81c1.5 0 2.19-.74 2.07-2.22-.093-1.154-.73-1.73-1.91-1.73h-1.28c-1.447 0-2.227.733-2.34 2.2v.01zM27.56 35c.12-1.17.49-2.4.22-3.47-.14-.54-1.49-.11-2.28-.2-.14-.02-.28 0-.59 0-.78.09-2.06-.42-2.58.21-.51.61-.04 1.83.09 2.78.02.11.03.21.03.32-.02.46.2.61.65.6 1.32-.02 2.63 0 3.95-.01.19 0 .48.08.51-.22V35zM38.89 13.62c.36.03.7-.01.57-.59-.22-.94-.34-1.89-.51-2.84-.08-.41-.03-.64.48-.7.95-.12 1.9-.31 2.84-.5 1.04-.21.26-.89.3-1.34.05-.45-.09-.71-.68-.59-1.39.29-2.8.51-4.21.75-.63.11-.93.47-.91 1.22.24 1.4.44 2.92.79 4.41.2.87.88.15 1.33.18zM16.58 29.36h1.17v.04c.77-.04 1.74.19 2.27-.19.58-.41.2-1.46.33-2.22l.03-.21c.12-.907-.27-1.36-1.17-1.36h-.43c-1.727 0-2.807.837-3.24 2.51-.246.953.097 1.43 1.03 1.43h.01zM31.48 25.42h-.21c-1.107 0-1.623.526-1.55 1.58.113 1.573.953 2.36 2.52 2.36h1.92c.32 0 .56-.04.51-.46-.15-1.18-.43-2.36-1.16-3.26-.45-.56-1.34-.12-2.03-.21v-.01zM20.33 33.52c-.133-1.46-.943-2.19-2.43-2.19-.68 0-1.35.01-2.03 0-.39-.01-.59.08-.52.53.18 1.14.41 2.31 1.15 3.16.5.57 1.47.18 2.23.2 1.75.04 1.75.01 1.59-1.69l.01-.01zM32.29 31.32c-1.607 0-2.456.697-2.55 2.09-.086 1.207.514 1.81 1.8 1.81 1.5 0 2.457-.72 2.87-2.16 0 0 .01-.07.02-.1.3-1.087-.093-1.63-1.18-1.63h-.96v-.01zM26.64 39.24c.58-2.09.65-2.08-1.53-2.08-2.29 0-2.22-.02-1.66 2.07.26.95.86.89 1.53.88.69-.01 1.37.13 1.65-.88l.01.01zM27.16 23.46c-.16-.62-.35-1.15-.43-1.7-.14-.95-.67-1.23-1.59-1.24-1.01 0-1.7.22-1.82 1.35-.04.35-.15.69-.25 1.03-.12.38-.08.58.4.57 1.2-.03 2.4 0 3.69 0v-.01zM24.81 49.96c1.25.12 1.36-.51 1.19-1.48-.14-.47.32-1.11-.22-1.46-.84-.53-1.77.08-1.77 1.08 0 .32.03.64 0 .96-.07.62.13.82.81.89l-.01.01zM42.45 42.86c-.5-.08-.84.72-1.22 1.16-.08.09 1.04 1.33 1.21 1.35.15.02 1.35-1.12 1.3-1.32-.17-.66-.82-1.12-1.29-1.2v.01zM42.54 11.27c-1.52 1.29-1.48 1.26-.68 2.2.89 1.05 1.39-.11 1.6-.44.61-.97-.72-1.07-.92-1.76zM46.98 34.44c-.63.29-.72 1.01-.71 1.45.02.78.98.85 1.43.82.7-.06.78-1 .75-1.51-.04-.77-.97-.4-1.48-.77l.01.01zM34.84 48.71c-.44-.02-1.36.15-1.38.83-.02.5.28 1.12.7 1.58.59-.38 1.51-.37 1.59-.98.06-.45-.24-1.4-.91-1.42v-.01zM46.27 20.82c.01.42-.08 1.36.76 1.35.51 0 1.18-.04 1.54-.65-.41-.51-.11-1.49-.87-1.52-.45-.02-1.45 0-1.43.82zM47.36 25.53c.01.49-.39 1.63 1.14 1.3.24-.08 1.11.38.88-.67-.1-.46.28-1.31-.57-1.26-.47.03-1.47-.4-1.45.63zM18.09 37.21c1.03 1 2.02 1.71 3.3 2.12-.65-2.62.22-2.18-3.3-2.12zM46.19 39.47c-.29-.26-.89-1.17-1.51-.16-.69 1.12-.7 1.1 1.06 2.16.03-.75 1.38-1.15.45-2zM45.19 17.81c.48-.29 1.09-.42 1.4-.81-.05-.5-.95-1.72-1.08-1.62-.47.35-1.15.45-1.38 1.05-.11.28.89 1.49 1.07 1.38h-.01zM48.42 29.84c-1.02-.05-1.06-.01-1.09 1.27-.02 1.04.85.63 1.32.69 1.08.15.59-.8.71-1.25.26-.95-.54-.61-.95-.71h.01zM21.32 21.3c-1.18.47-2.22 1.11-3.15 2.09 2.8.26 3.04.1 3.15-2.09zM28.74 39.37c1.16-.52 2.21-1.13 3.19-2.19-1.986-.047-3.05.683-3.19 2.19zM38.25 46.52c-1.46 1.09.28 1.44.32 2.19.37-.63 1.78-.44 1.3-1.57-.23-.53-.55-1.41-1.62-.61v-.01zM31.83 23.35c-.91-.93-1.93-1.57-3.16-2.08.347 1.646 1.4 2.34 3.16 2.08zM25.06 6.33c.77-.02 1.42-.68 1.43-1.44 0-.81-.71-1.49-1.52-1.47-.77.03-1.42.69-1.43 1.45 0 .81.7 1.48 1.52 1.46z" fill="#fff"/>
</svg>
