<svg width="50" height="55" viewBox="0 0 50 55" fill="none" xmlns="http://www.w3.org/2000/svg">
    <path d="M.34 39.22c-.62 1.37-.37 1.74 1.14 1.74.94 0 1.89.05 2.83-.01.7-.05.85.23.84.88-.04 1.59-.02 3.19 0 4.78.02 2.09 1.07 3.15 3.14 3.16 1.05 0 2.1.03 3.15 0 .56-.02.78.14.75.73-.04.83.03 1.67-.02 2.5-.06.98.34 1.36 1.33 1.35 3.01-.03 6.02-.01 9.03-.01s5.94-.02 8.92.01c.93.01 1.35-.31 1.52-1.26.82-4.36 2.71-8.09 5.86-11.37 5.44-5.66 6.7-12.52 3.99-19.82-2.73-7.37-8.17-11.73-16.09-12.59C15.49 8.08 5.81 16.49 5.29 27.82c-.02.45-.16.84-.34 1.24-1.54 3.39-3.07 6.78-4.6 10.17l-.01-.01zm11.01-16.06c0-4.01 3.29-6.74 6.81-6.06.55.11.8-.01 1.12-.48 1.28-1.93 3.64-2.51 5.62-1.39.52.29.78.28 1.27-.09 1.98-1.48 5.11-.51 5.79 1.81.2.68.48.88 1.11.99 3.4.62 5.61 3.74 5.08 7.17-.09.59.04.98.43 1.43 1.47 1.7 1.08 4.41-.82 5.58-.55.34-.8.69-.91 1.31-.32 1.72-1.76 3.01-3.48 3.05-1.67.04-2.63.94-3.25 2.36-.33.76-.63 1.54-1 2.28-.4.8-1.05 1.16-1.97.9-.87-.24-1.22-.84-1.17-1.71.03-.47.05-.94.1-1.41.11-1.13-.32-1.96-1.32-2.52-.76-.42-1.54-.83-2.08-1.54-.24-.32-.56-.26-.88-.27-2.16-.08-3.85-1.28-4.48-3.3-.17-.55-.33-.72-.92-.71-1.61 0-3.03-.66-3.6-2.15-.7-1.82-1.05-3.77-1.44-5.26l-.01.01zM44.55 16.16c1.09-.64 2.19-1.25 3.29-1.87.15-.09.32-.14.42-.18.5 0 .78.23.92.58.2.49-.06.85-.47 1.08-1.09.64-2.2 1.24-3.29 1.88-.51.3-1.01.33-1.31-.21-.29-.52-.05-.99.44-1.28zM17.06 7.53c-.37.16-.8.07-.95-.29-.6-1.43-1.15-2.88-1.67-4.22.08-.5.24-.81.63-.94.45-.15.84.03 1 .42.54 1.34 1.03 2.69 1.5 4.06.15.43-.11.79-.51.97zM3.96 17.59c-1.06-.62-2.13-1.22-3.2-1.83-.34-.19-.57-.45-.56-.71 0-.88.64-1.19 1.42-.78 1.09.57 2.14 1.21 3.21 1.82.53.3.72.75.43 1.28-.31.56-.8.53-1.3.23v-.01zM33.3 7.22c-.14.35-.56.47-.94.33-.42-.16-.68-.53-.54-.94.47-1.4.99-2.78 1.54-4.15.16-.4.57-.53 1.01-.35.39.16.53.46.5 1.05-.48 1.25-1 2.67-1.58 4.06h.01zM9.64 11.58c-.08-.02-.27-.01-.34-.1-.98-1.15-1.98-2.29-2.91-3.49-.25-.32-.07-.78.32-1.03s.78-.21 1.07.14c.87 1.01 1.73 2.04 2.58 3.07.26.31.27.66.07 1.01-.16.27-.42.38-.79.4zM40.44 11.23c-.33.39-.76.62-1.22.22-.47-.4-.43-.86-.03-1.33.8-.94 1.59-1.88 2.37-2.83.22-.27.48-.43.83-.44.66.03 1 .79.55 1.37-.8 1.03-1.65 2.01-2.5 3v.01zM25.55 3.2c0 .72.01 1.44 0 2.16-.01.52-.36.8-.83.82-.5.02-.8-.32-.81-.83-.02-1.37-.02-2.74 0-4.11 0-.54.29-.88.89-.85.54.03.76.36.76.86V3.2h-.01z" fill="#fff"/>
    <path d="M16.9 18.66c3.09.12 5.15 3.01 4.28 6.02-.17.58-.24 1.12.43 1.36.69.24.97-.24 1.16-.81.2-.62.36-1.26.31-1.92-.06-.75.33-.66.78-.48.84.34 1.14 1.04 1.26 1.88.08.56.37.98 1.01.86.62-.12.77-.59.68-1.16-.21-1.27-.68-2.63-1.95-2.9-1.77-.38-2.75-1.49-3.81-2.74-.8-.94-.82-1.41.32-2 .94-.49 2.14-.32 2.93.4.787.72 1.51.66 2.17-.18.7-.89 2.01-1 2.9-.25.86.72.84 1.4-.05 2.41-1.36 1.54-.67 4.59 1.22 5.39.48.2.95.22 1.21-.32.23-.49.09-.91-.4-1.19-.19-.11-.39-.2-.55-.34-.63-.55-.72-1.26-.45-1.99.26-.7.82-1.1 1.6-1.09 2.59.01 4.87 3.06 4.05 5.53-.34 1.01-.54 1.78.67 2.27.2.08.35.36.47.58.43.8.25 2.04-.46 2.46-.92.54-.78-.62-1.22-.89-.72-.44-1.12-1.09-1.07-2.05.04-.67-.35-1.32-.87-1.81-.39-.37-.84-.48-1.25-.07-.34.34-.33.75-.03 1.17.82 1.16.81 1.17-.54 1.39-.11.02-.22.03-.32.05-.56.08-.88.42-.8.96.07.54.49.77 1.03.73.32-.03.65-.11.97-.09 1.55.1 2.49 1.32 2.3 2.95-.17 1.48-1.04 2.03-2.72 1.68-.32-.07-.59-.07-.82.12-1.33 1.1-2.78 2.09-3.26 3.91-.08.31-.16.69-.53.88.32-2.38-.57-4.07-2.75-5.14-1.29-.63-1.56-1.61-.97-2.9.72-1.56 1.87-2.13 3.59-1.79.53.11 1.05.14 1.21-.54.15-.63-.26-.92-.8-1.08-1.08-.32-2.16-.32-3.17.21-.46.25-.72.22-1.07-.17-.46-.54-1.08-.84-1.81-.86-.62 0-1.36-.09-1.44.76-.08.83.52.92 1.23.96 1 .04 1.27.68.84 1.63-.23.49-.51 1-.54 1.52-.05.76-.47.69-.95.59-1.33-.27-2.28-1.55-2.29-3.05-.01-1.2-.31-1.43-1.42-1.07-1.8.58-3.35-.49-3.48-2.42-.11-1.56.67-2.25 2.16-1.83.62.18 1.2-.01 1.14-.54-.12-1.07.41-2.05.22-3.1-.11-.59-.18-1.26-.96-1.19-.84.07-.84.72-.71 1.39.16.84.02 1.51-1.05 1.59-.6.04-1.04.44-1.59.88-.38-2.76 1.33-4.67 3.96-4.57z" fill="#fff"/>
</svg>
