<svg width="44" height="51" viewBox="0 0 44 51" fill="none" xmlns="http://www.w3.org/2000/svg">
    <path d="M42.83 26.49c-.25-2.67-.46-5.34-.78-7.99-.23-1.91-1.82-3.25-3.42-2.82-.99.27-1.33-.03-1.74-.83-.64-1.22-1.54-2.26-2.5-3.25-1.28-1.31-2.76-2.35-4.42-3.27.29-.24.51-.42.73-.6 1.71-1.45 2.7-3.31 3.18-5.48.15-.66-.06-1.1-.66-1.33-4.03-1.49-8.29-.58-10.77 3.09-.19.28-.26.67-.62.82C18.94.02 14.59-.32 11.16.71c-1.38.41-1.56.74-1.18 2.13.63 2.23 1.82 4.09 3.82 5.5-3.21 1.73-5.63 4.05-7.31 7.1-.24.44-.43.47-.9.33-1.58-.47-2.9.19-3.61 1.69-.35.73-.4 1.51-.47 2.29-.32 3.48-.6 6.96-.97 10.44-.26 2.48-.03 4.76 1.46 6.9 1.21 1.73 2.14 3.65 3.22 5.47.28.47.4.78-.17 1.15-.55.36-.7 1-.7 1.65 0 .92-.02 1.83 0 2.74.04 1.7 1.48 2.76 3.1 2.3.45-.13.73-.43.74-.92.01-.53-.29-1.02-.77-.96-1.3.17-1.14-.65-1.12-1.43.01-.42.04-.85 0-1.27-.07-.62.18-.77.77-.77 2.48.03 4.97.01 7.45.01 2.48 0 2.46 0 2.49 2.48 0 .67-.08 1.05-.88.95-.56-.07-.93.29-1.02.84-.08.47.16.83.59 1.02 1.12.51 2.89-.22 3.13-1.42.28-1.44.22-2.92 0-4.38-.06-.38-.3-.81-.66-.93-1.05-.37-.8-1.1-.71-1.89.07-.67.27-.73.91-.6 2.32.5 4.67.46 7.01.04.27-.05.74-.42.79.06.07.65.72 1.51-.02 1.96-1.13.69-1.43 1.59-1.36 2.79.04.68 0 1.37 0 2.06.03 1.71 1.38 2.75 3.05 2.37.51-.12.8-.46.8-.97s-.32-.99-.81-.93c-1.18.13-1.13-.57-1.08-1.35.02-.36.05-.72 0-1.08-.11-.79.15-1.06.99-1.04 2.45.06 4.9.02 7.35.02 2.45 0 2.34 0 2.36 2.4 0 .67-.03 1.14-.91 1.02-.5-.06-.87.25-.96.78-.09.52.11.97.61 1.08.91.2 1.82.17 2.56-.55.97-.96 1.01-5.2-.04-6.07-.56-.47-.42-.76-.14-1.24 1.23-2.07 2.39-4.19 3.66-6.24.88-1.43 1.21-2.93 1.07-4.57-.15-1.72-.29-3.45-.44-5.17l-.03-.01zM23.64 5.83c1.27-2.36 3.23-3.58 5.91-3.64.72 0 1.72-.1 2.03.39.37.61-.35 1.36-.71 1.99-.41.71-.97 1.3-1.62 1.8-.89.67-1.77 1.1-2.94.6-.7-.3-1.52-.38-2.29-.44-.62-.05-.61-.25-.36-.7h-.02zM12.11 3.06c-.11-.29-.19-.55.26-.66 3.78-.96 7.09 1.25 7.87 4.04-1.26.14-2.5.35-3.7.77-.28.1-.5.02-.74-.08-1.86-.79-2.98-2.25-3.69-4.07zM7.8 17.12c.78-1.59 1.79-3.02 3.05-4.28.33-.33.54-.47 1.03-.15 2.21 1.44 4.61 1.88 7.19 1.19.88-.23 1.78-.38 2.71-.33.73.04 1.26.37 1.44 1.09.19.76-.25 1.23-.87 1.56-.76.41-1.62.47-2.45.64-1.77.38-3.32 1.13-4.6 2.42-1.35 1.35-2.88 2.22-4.89 1.89-.93-.15-1.77.26-2.62.77-.08-1.4-.03-2.7-.25-3.98-.05-.32.13-.57.26-.82zm7.56 25.52c-.06.38-.28.46-.62.46-2.16 0-4.31-.01-6.47 0-.39 0-.58-.16-.75-.47-1.56-2.71-3.13-5.41-4.71-8.12-.45-.77-.48-1.63-.41-2.47.35-4.23.72-8.46 1.11-12.68.07-.78.17-1.75 1.18-1.76 1.11 0 1 1.04 1.03 1.79.05 1.3.01 2.61.01 3.91h.33c0 1.37-.01 2.74 0 4.11 0 .35-.13.62-.27.92-.65 1.37-.46 2.71.58 3.79 1.18 1.22 2.41 2.4 3.6 3.6.48.48 1.01.67 1.54.16.55-.52.35-1.05-.13-1.53-1.14-1.13-2.28-2.25-3.4-3.39-.74-.75-.8-1.46-.22-2.06.58-.6 1.32-.57 2.06.15 1.05 1.03 2.1 2.06 3.11 3.13 2.84 3.01 3.05 6.63 2.42 10.45l.01.01zm11.16-6.72c-.13.57-.36 1.16-.31 1.72.11 1.23-.52 1.5-1.57 1.65-2.16.31-4.28.3-6.41-.19-.47-.11-.64-.29-.65-.77-.1-2.94-1.3-5.42-3.27-7.54-1.07-1.15-2.2-2.23-3.31-3.34-.55-.55-1.25-.79-2.01-.92-.33-.06-.85.25-.96-.16-.15-.54-.29-1.23.02-1.72.57-.88 1.27-1.72 2.51-1.54 2.14.3 3.98-.41 5.44-1.87 1.63-1.63 3.55-2.47 5.78-2.78.78-.11 1.5-.43 2.13-.92 1.15-.9 1.6-2.26 1.18-3.57a3.42 3.42 0 0 0-3.06-2.36c-1.25-.08-2.47.15-3.68.43-1.91.44-3.53.18-5.31-.91 5.74-4.52 15.59-3.37 20.39 2.38-1.41.91-2.68 1.96-3.63 3.36-.82 1.21-1.24 2.58-1.62 3.96-.23.85-.73 1.15-1.52.9-1.83-.58-3.28-.09-4.56 1.33-.99 1.1-2.32 1.42-3.83 1.31-2.3-.16-3.79 1.54-3.21 3.52.24.8.67 1.49 1.33 2.01 1.63 1.25 3.38 1.9 5.47 1.28 1.48-.44 2.04-.13 2.46 1.36.33 1.15.83 2.12 1.94 2.67.35.17.31.42.24.73l.02-.02zm1.13-2.73c-.25.46-.48.31-.75.09-.29-.23-.43-.54-.55-.9-1.04-3.19-2.16-3.79-5.4-3.04-1.44.34-2.61-.3-3.59-1.3-.34-.35-.61-.84-.33-1.33.26-.45.76-.45 1.23-.42.2.01.39.03.58.04 1.89.11 3.45-.66 4.72-1.97.76-.79 1.51-1.01 2.59-.79 2.29.48 3.33-.17 3.96-2.48.65-2.4 1.86-4.35 3.99-5.7.43-.28.68-.33.98.18.66 1.13 1.18 2.2 1 3.64-.26 2.13-.24 4.3-.3 6.45-.02.6-.04.95-.82.88-.87-.07-1.66.31-2.28.94-1.79 1.8-3.77 3.44-5.04 5.7l.01.01zm12.93 1.92c-1.43 2.37-2.81 4.77-4.17 7.19-.33.58-.66.86-1.36.81-.94-.07-1.89-.02-2.84-.02-1.05 0-2.09-.02-3.14 0-.5.01-.66-.18-.75-.66-.81-4.46.09-8.36 3.6-11.46.71-.63 1.34-1.34 2.03-1.99.69-.65 1.43-.67 1.99-.08.56.58.52 1.29-.16 1.99-1.12 1.14-2.26 2.27-3.4 3.39-.5.49-.79 1.03-.2 1.6.58.55 1.12.27 1.61-.23 1.15-1.16 2.32-2.3 3.46-3.47 1.1-1.12 1.32-2.46.65-3.86-.16-.33-.28-.64-.26-1.02.12-2.64.2-5.29.34-7.93.04-.75-.08-1.78 1.03-1.79.95 0 1.09.91 1.16 1.66.39 4.29.76 8.59 1.13 12.88.09 1.07-.18 2.04-.75 2.98l.03.01z" fill="#fff"/>
    <path d="M11.69 48.45c-.59.06-.99.34-1 .97-.02.57.32.93.87.98.62.06 1.01-.31 1.06-.9.05-.6-.34-.94-.92-1.05h-.01zM32.04 48.48c-.56.02-.91.38-.93.93-.01.6.35.99.96.99s.93-.38.98-.99c-.08-.6-.41-.96-1.02-.94l.01.01z" fill="#fff"/>
</svg>
