<svg width="145" height="55" viewBox="0 0 145 55" fill="none" xmlns="http://www.w3.org/2000/svg">
<path d="M121.58 17.52C120.95 17.52 121.02 17.4501 121.02 18.0601C121.02 29.8201 121.02 41.59 121.02 53.35C121.02 53.46 121.02 53.56 121.02 53.66C121.02 53.83 121.09 53.91 121.26 53.9C121.36 53.9 121.47 53.9 121.57 53.9C124.37 53.9 127.18 53.9 129.98 53.9C130.59 53.9 130.55 53.94 130.55 53.35V41.08C130.55 40.9599 130.55 40.84 130.55 40.72C130.55 40.56 130.6 40.46 130.78 40.47C130.9 40.47 131.02 40.47 131.14 40.47H138.56C139.56 40.47 140.57 40.47 141.57 40.47C142.13 40.47 142.07 40.4999 142.07 39.9499C142.07 37.6099 142.07 35.2799 142.07 32.9399C142.07 32.8499 142.07 32.76 142.07 32.67C142.07 32.5 142.01 32.42 141.83 32.42C141.71 32.42 141.59 32.42 141.47 32.42H132.12C131.72 32.42 131.31 32.42 130.91 32.42C130.56 32.42 130.56 32.42 130.55 32.08C130.55 31.57 130.55 31.06 130.55 30.55C130.55 29.37 130.55 28.18 130.55 27C130.55 26.55 130.55 26.55 131.02 26.55C131.11 26.55 131.2 26.55 131.29 26.55C135.52 26.55 139.74 26.55 143.97 26.55C144.15 26.55 144.33 26.55 144.51 26.54V17.55C144.35 17.55 144.18 17.53 144.02 17.53C136.54 17.53 129.06 17.53 121.59 17.53L121.58 17.52Z" fill="white"/>
<path d="M43.5398 54.6C46.5598 54.9 49.5298 54.6501 52.4098 53.6801C56.7098 52.2201 60.0697 49.58 62.2697 45.57C64.3897 41.7 64.8497 37.55 64.2197 33.24C64.1897 33.06 64.1097 33.0101 63.9497 33.0201C63.8497 33.0201 63.7397 33.0201 63.6297 33.0201H46.1897C46.1097 33.0201 46.0397 33.0201 45.9697 33.0201C45.5897 33.0201 45.5797 33.0201 45.5797 33.4201C45.5797 35.5601 45.5797 37.71 45.5797 39.85C45.5797 40.21 45.5797 40.21 45.9597 40.21C48.3897 40.21 50.8197 40.21 53.2397 40.21C53.3497 40.21 53.4498 40.21 53.5598 40.21C53.8898 40.21 53.8897 40.2201 53.8597 40.5401C53.6897 42.0501 52.9998 43.2601 51.7898 44.1801C51.1798 44.6501 50.4997 44.99 49.7697 45.23C48.1697 45.76 46.5197 45.87 44.8497 45.7C42.8097 45.48 40.9297 44.8201 39.3297 43.5301C36.4097 41.1701 35.0897 38.1 35.5897 34.37C36.0097 31.26 37.6897 28.9 40.3397 27.25C42.1697 26.1 44.1797 25.5801 46.3397 25.7601C48.8497 25.9701 51.0497 26.97 52.9597 28.6C53.0397 28.67 53.1197 28.73 53.2297 28.83C53.5297 28.43 53.7898 28.06 54.0598 27.7C55.4698 25.76 56.8898 23.8301 58.2998 21.8901C58.4864 21.6367 58.4563 21.4067 58.2097 21.2C58.1497 21.15 58.0998 21.1001 58.0398 21.0601C56.9598 20.1701 55.7697 19.45 54.4997 18.87C50.4097 16.98 46.1598 16.22 41.6798 17.1C36.6498 18.09 32.5098 20.5501 29.4198 24.6501C26.1598 28.9801 24.9797 33.87 25.9697 39.2C26.8597 43.99 29.3998 47.81 33.2998 50.71C36.3498 52.98 39.7997 54.24 43.5797 54.62L43.5398 54.6Z" fill="white"/>
<path d="M81 17.7297C76.91 19.0397 73.5301 21.3697 71.0301 24.8797C68.1601 28.9297 67.1501 33.4497 67.7801 38.3497C68.2801 42.1997 69.8401 45.5797 72.5401 48.3597C77.4201 53.3797 83.42 55.3197 90.32 54.4597C93.73 54.0297 96.7901 52.6398 99.5201 50.5598C99.9501 50.2298 100.35 49.8698 100.77 49.5398C100.95 49.3998 100.95 49.2597 100.81 49.0897C100.65 48.8897 100.5 48.6797 100.35 48.4797C98.81 46.4297 97.27 44.3797 95.74 42.3297C95.5 42.0097 95.5 42.0097 95.2 42.2597C95.13 42.3197 95.06 42.3797 94.99 42.4397C93.93 43.3297 92.7801 44.0798 91.5101 44.6498C89.8001 45.4098 88.0201 45.7097 86.1601 45.4697C83.9701 45.1897 82.04 44.2998 80.45 42.7698C77.9 40.3298 76.89 37.3397 77.57 33.8697C78.13 30.9997 79.7801 28.8598 82.3001 27.3998C84.4601 26.1498 86.7901 25.6898 89.2701 26.1598C91.4601 26.5698 93.3501 27.5897 95.0501 28.9997C95.1701 29.0997 95.28 29.2398 95.44 29.2798C95.55 29.2298 95.6001 29.1498 95.6701 29.0598C97.3601 26.8798 99.06 24.7098 100.75 22.5298C100.99 22.2198 100.99 22.2197 100.71 21.9597C100.63 21.8897 100.55 21.8197 100.47 21.7497C98.87 20.3997 97.11 19.2997 95.19 18.4497C92.89 17.4397 90.5 16.8097 87.98 16.7297C85.6 16.6497 83.26 16.9897 80.99 17.7197L81 17.7297Z" fill="white"/>
<path d="M0.129883 35.7098V48.2999C0.129883 50.0399 0.129883 51.7799 0.129883 53.5099C0.129883 53.8499 0.129849 53.8499 0.469849 53.8599C0.559849 53.8599 0.649868 53.8599 0.739868 53.8599H22.9899C23.0999 53.8599 23.1999 53.8599 23.3099 53.8599C23.6399 53.8599 23.6499 53.8599 23.6499 53.4999C23.6499 50.7099 23.6499 47.9299 23.6499 45.1399C23.6499 44.7999 23.6499 44.7999 23.3099 44.7899C23.2199 44.7899 23.1299 44.7899 23.0399 44.7899H10.3198C9.95982 44.7899 9.77991 44.6065 9.77991 44.2399C9.77991 35.5299 9.77991 26.8299 9.77991 18.1199C9.77991 17.5499 9.84988 17.5999 9.24988 17.5999C6.38988 17.5999 3.52991 17.5999 0.659912 17.5999C0.0799121 17.5999 0.139893 17.5399 0.139893 18.1299C0.139893 23.9899 0.139893 29.8498 0.139893 35.7098H0.129883Z" fill="white"/>
<path d="M114.15 17.6097C111.32 17.6097 108.49 17.6097 105.66 17.6097C105.03 17.6097 105.07 17.5298 105.07 18.1798C105.07 29.8798 105.07 41.5797 105.07 53.2797C105.07 53.3797 105.07 53.4897 105.07 53.5897C105.06 53.8097 105.16 53.8897 105.37 53.8697C105.46 53.8697 105.55 53.8697 105.64 53.8697C108.49 53.8697 111.33 53.8697 114.18 53.8697C114.8 53.8697 114.74 53.9396 114.74 53.3196C114.74 47.4496 114.74 41.5797 114.74 35.6997C114.74 29.8197 114.74 24.0197 114.74 18.1697C114.74 17.5397 114.82 17.5997 114.15 17.5997V17.6097Z" fill="white"/>
<path d="M7.38983 8.00985C8.16983 8.95985 9.1798 9.29985 10.3598 9.00985C11.4998 8.72985 12.1998 7.93981 12.5698 6.84981C12.7798 6.21981 12.8498 5.56987 12.8498 4.65987C12.8498 3.93987 12.7098 3.01984 12.1898 2.18984C11.4898 1.07984 10.3998 0.539862 8.83978 0.899862C7.88978 1.11986 7.30987 1.80981 6.92987 2.65981C6.47987 3.66981 6.39983 4.73979 6.51983 5.82979C6.60983 6.62979 6.85982 7.37985 7.37982 8.00985H7.38983ZM8.49982 3.26986C8.56982 3.06986 8.68977 2.89983 8.82977 2.73983C9.30977 2.21983 10.0598 2.22985 10.5298 2.75985C10.8198 3.07985 10.9498 3.47985 11.0298 3.88985C11.0998 4.23985 11.1598 4.59982 11.1398 4.85982C11.1398 5.49982 11.0798 6.03988 10.8698 6.53988C10.6498 7.07988 10.3099 7.51986 9.66986 7.51986C9.02986 7.51986 8.66978 7.08989 8.45978 6.54989C8.04978 5.45989 8.08981 4.35986 8.48981 3.26986H8.49982Z" fill="white"/>
<path d="M13.5697 3.7999C13.9997 3.7899 14.4398 3.7899 14.8698 3.7999C15.0698 3.7999 15.1198 3.70989 15.1398 3.53989C15.1798 3.28989 15.2098 3.0399 15.3098 2.7999C15.4298 2.5199 15.6198 2.31992 15.9198 2.25992C16.7098 2.08992 17.3698 2.70992 17.2298 3.50992C17.1798 3.80992 17.0798 4.08987 16.9098 4.33987C16.7198 4.63987 16.5298 4.94989 16.3098 5.22989C15.4498 6.33989 14.5797 7.44996 13.7097 8.54996C13.6097 8.66996 13.5198 8.80989 13.3998 8.97989C13.5398 8.97989 13.6297 8.99991 13.7097 8.99991C15.3597 8.99991 16.9998 8.99991 18.6498 8.99991C18.7098 8.99991 18.7697 8.99991 18.8297 8.99991C18.9797 8.99991 19.0498 8.93995 19.0398 8.78995C19.0398 8.54995 19.0398 8.30985 19.0398 8.06985C19.0398 7.39985 19.1197 7.47988 18.4397 7.46988C17.9097 7.46988 17.3798 7.46988 16.8498 7.46988C16.8398 7.29988 16.9298 7.22994 16.9898 7.15994C17.4598 6.57994 17.8698 5.94986 18.2898 5.32986C18.5598 4.91986 18.7798 4.4699 18.9198 3.9899C19.3198 2.5599 18.6498 1.23988 17.2998 0.849883C16.5798 0.639883 15.8398 0.63989 15.1398 0.91989C13.9498 1.37989 13.3798 2.28991 13.2998 3.49991C13.2898 3.68991 13.3098 3.8099 13.5498 3.8099L13.5697 3.7999Z" fill="white"/>
<path d="M20.0999 3.7999C20.5299 3.7899 20.9699 3.7899 21.3999 3.7999C21.5999 3.7999 21.6499 3.70989 21.6699 3.53989C21.7099 3.28989 21.7399 3.0399 21.8399 2.7999C21.9599 2.5199 22.1499 2.31992 22.4499 2.25992C23.2399 2.08992 23.8999 2.70992 23.7599 3.50992C23.7099 3.80992 23.6098 4.08987 23.4398 4.33987C23.2498 4.63987 23.0599 4.94989 22.8399 5.22989C21.9799 6.33989 21.1099 7.44996 20.2399 8.54996C20.1399 8.66996 20.05 8.80989 19.93 8.97989C20.07 8.97989 20.1599 8.99991 20.2399 8.99991C21.8899 8.99991 23.53 8.99991 25.18 8.99991C25.24 8.99991 25.2999 8.99991 25.3599 8.99991C25.5099 8.99991 25.5798 8.93995 25.5698 8.78995C25.5698 8.54995 25.5698 8.30985 25.5698 8.06985C25.5698 7.39985 25.6499 7.47988 24.9699 7.46988C24.4399 7.46988 23.9099 7.46988 23.3799 7.46988C23.3699 7.29988 23.4599 7.22994 23.5199 7.15994C23.9899 6.57994 24.3998 5.94986 24.8198 5.32986C25.0898 4.91986 25.3099 4.4699 25.4499 3.9899C25.8499 2.5599 25.1799 1.23988 23.8299 0.849883C23.1099 0.639883 22.3699 0.63989 21.6699 0.91989C20.4799 1.37989 19.9199 2.28991 19.8299 3.49991C19.8199 3.68991 19.8399 3.8099 20.0799 3.8099L20.0999 3.7999Z" fill="white"/>
<path d="M0.499737 3.79977C0.959737 3.79977 1.42975 3.79977 1.88975 3.79977C2.03975 3.79977 2.10974 3.72981 2.12974 3.58981C2.15974 3.36981 2.17974 3.13977 2.24974 2.92977C2.43974 2.37977 2.76971 2.16977 3.34971 2.23977C3.81971 2.29977 4.17972 2.68977 4.22972 3.17977C4.25972 3.54977 4.13972 3.88974 3.97972 4.20974C3.73972 4.65974 3.43974 5.06975 3.12974 5.46975C2.32974 6.48975 1.51971 7.51982 0.719708 8.53982C0.619708 8.65982 0.499708 8.77982 0.469708 8.91982C0.559708 9.00982 0.629689 8.98977 0.699688 8.98977C2.35969 8.98977 4.01968 8.98977 5.68968 8.98977C6.03968 8.98977 6.03979 8.98977 6.04979 8.60977C6.04979 8.39977 6.04979 8.18976 6.04979 7.97976C6.04979 7.41976 6.09979 7.45974 5.54979 7.45974C4.98979 7.45974 4.41971 7.45974 3.84971 7.45974C3.84971 7.27974 3.95977 7.20978 4.02977 7.11978C4.46977 6.56978 4.85974 5.9798 5.24974 5.39981C5.59974 4.86981 5.86974 4.30977 5.99974 3.67977C6.24974 2.40977 5.58972 1.24976 4.35972 0.849756C3.65972 0.619756 2.93973 0.619776 2.23973 0.869776C0.849728 1.35978 0.389796 2.3898 0.309796 3.5198C0.299796 3.6698 0.329757 3.77981 0.519757 3.77981L0.499737 3.79977Z" fill="white"/>
<path d="M36.4199 2.20998C37.0499 2.31998 37.5998 2.62994 38.0898 3.04994C38.3198 3.24994 38.3299 3.24999 38.5499 3.02999C38.7199 2.85999 38.9099 2.70996 39.0399 2.49996C38.9699 2.42996 38.9098 2.35994 38.8498 2.29994C37.7498 1.26994 36.4298 0.949961 34.9798 1.12996C33.1298 1.35996 31.6798 2.94998 31.5798 4.76998C31.4698 6.68998 32.7499 8.40994 34.6099 8.85994C35.3499 9.03994 36.0898 9.03999 36.8398 8.90999C38.5398 8.61999 39.8799 6.90993 39.7599 5.21993C39.7499 5.04993 39.6999 4.97994 39.5199 4.97994C38.6199 4.97994 37.7198 4.97994 36.8198 4.97994C36.6398 4.97994 36.5798 5.05993 36.5898 5.21993C36.5898 5.28993 36.5898 5.3699 36.5898 5.4399C36.5898 6.0899 36.5199 6.00998 37.1699 6.01998C37.6099 6.01998 38.0599 5.98 38.4899 6.05C38.5399 6.17 38.4998 6.24991 38.4698 6.32991C38.2098 6.94991 37.7899 7.42 37.1599 7.67C36.4599 7.95 35.7299 7.97991 34.9999 7.82991C33.8799 7.58991 33.1199 6.90001 32.7899 5.81001C32.4699 4.75001 32.7299 3.78996 33.5199 2.99996C34.3399 2.17996 35.3399 2.01998 36.4299 2.20998H36.4199Z" fill="white"/>
<path d="M59.3698 8.72992C59.7198 8.72992 59.7298 8.72991 59.7298 8.34991C59.7298 7.65991 59.7298 6.96997 59.7298 6.27997C59.7298 6.04997 59.7499 5.82992 59.7999 5.60992C59.8799 5.28992 60.0498 5.02991 60.3198 4.84991C60.8998 4.46991 61.5298 4.7699 61.5898 5.4599C61.5998 5.5799 61.5898 5.69989 61.5898 5.81989C61.5898 6.56989 61.5898 7.31989 61.5898 8.06989C61.5898 8.82989 61.4598 8.72992 62.2498 8.72992C62.5898 8.72992 62.5998 8.72994 62.5998 8.37994C62.5998 7.65994 62.5998 6.93991 62.5998 6.21991C62.5998 5.83991 62.6598 5.46996 62.8898 5.14996C63.1498 4.77996 63.5498 4.61992 63.9398 4.72992C64.3198 4.83992 64.4598 5.06992 64.4598 5.60992C64.4598 6.41992 64.4598 7.22998 64.4598 8.03998C64.4598 8.81998 64.3199 8.70991 65.1499 8.71991C65.4599 8.71991 65.4698 8.71995 65.4698 8.38995C65.4698 7.33995 65.4698 6.28993 65.4698 5.23993C65.4698 4.58993 65.1599 4.10993 64.5599 3.86993C63.9799 3.62993 63.4398 3.7899 62.9898 4.2099C62.8398 4.3499 62.6998 4.50989 62.5198 4.69989C62.4498 4.57989 62.3898 4.48996 62.3398 4.39996C62.0798 3.95996 61.6799 3.76995 61.1799 3.75995C60.7499 3.75995 60.3998 3.9099 60.0898 4.2099C59.9798 4.3199 59.8998 4.46994 59.7198 4.49994C59.7065 4.07994 59.5031 3.87328 59.1098 3.87994C58.7198 3.87994 58.7098 3.87997 58.7098 4.27997C58.7098 5.53997 58.7098 6.79999 58.7098 8.04999C58.7098 8.77999 58.5898 8.68988 59.3498 8.68988L59.3698 8.72992Z" fill="white"/>
<path d="M45.0198 2.15998C45.7998 2.08998 46.5397 2.25999 47.2497 2.54999C47.3697 2.59999 47.4697 2.71002 47.6197 2.64002C47.6397 1.36002 47.8797 1.57 46.6097 1.24C45.1197 0.849996 43.7298 1.08998 42.5398 2.15998C40.9398 3.59998 40.8198 6.00998 42.2698 7.59998C43.4698 8.90998 45.3298 9.34997 47.0498 8.70997C47.6398 8.48997 47.6397 8.48998 47.6297 7.84998C47.6297 7.68998 47.6597 7.52006 47.5897 7.31006C47.4197 7.39006 47.2798 7.45002 47.1498 7.51002C46.4198 7.84002 45.6697 7.98998 44.8797 7.84998C43.8397 7.65998 43.0397 7.13003 42.5997 6.15003C41.8097 4.38003 43.0498 2.34999 45.0098 2.16999L45.0198 2.15998Z" fill="white"/>
<path d="M52.0099 8.72978C52.3299 8.72978 52.3399 8.72984 52.3399 8.40984C52.3399 7.37984 52.3399 6.33986 52.3399 5.30986C52.3399 5.01986 52.2499 4.74981 52.0899 4.50981C51.5699 3.69981 50.5399 3.53982 49.7399 4.13982C49.5699 4.26982 49.4099 4.41976 49.2299 4.57976C49.1499 4.41976 49.18 4.28984 49.18 4.15984C49.18 3.40984 49.18 2.65978 49.18 1.90978C49.18 1.08978 49.1799 1.09978 48.3699 1.15978C48.1999 1.16978 48.1299 1.23978 48.1399 1.40978C48.1399 1.50978 48.1399 1.61977 48.1399 1.71977C48.1399 3.83977 48.1399 5.96978 48.1399 8.09978C48.1399 8.81978 48.03 8.71978 48.8 8.72978C49.18 8.72978 49.1899 8.72976 49.1899 8.32976C49.1899 7.56976 49.1899 6.79984 49.1899 6.03984C49.1899 5.51984 49.4199 5.10978 49.8699 4.84978C50.5799 4.41978 51.2499 4.76977 51.3199 5.58977C51.3199 5.70977 51.3199 5.82976 51.3199 5.94976C51.3199 6.64976 51.3199 7.35986 51.3199 8.05986C51.3199 8.85986 51.22 8.72979 52.02 8.73979L52.0099 8.72978Z" fill="white"/>
<path d="M90.3399 8.35963C91.1599 9.05963 92.3399 9.02968 93.1199 8.27968C93.2299 8.16968 93.3399 8.04965 93.5099 7.87965C93.5199 8.02965 93.53 8.07964 93.53 8.11964C93.5366 8.52631 93.7466 8.72963 94.16 8.72963C94.57 8.72963 94.5699 8.7297 94.5699 8.2997C94.5699 7.0697 94.5699 5.84964 94.5699 4.61964C94.5699 3.83964 94.5499 3.82962 93.7599 3.90962C93.5899 3.92962 93.52 3.98968 93.53 4.15968C93.53 4.33968 93.53 4.52969 93.53 4.78969C93.36 4.60969 93.26 4.48966 93.15 4.38966C92.31 3.59966 91.12 3.58963 90.27 4.35963C89.09 5.43963 89.1199 7.33964 90.3399 8.36964V8.35963ZM92.0799 4.75966C92.9599 4.75966 93.7 5.49963 93.68 6.35963C93.66 7.20963 92.9299 7.91969 92.0799 7.91969C91.2099 7.91969 90.4899 7.19971 90.4799 6.30971C90.4799 5.47971 91.2199 4.75966 92.0799 4.75966Z" fill="white"/>
<path d="M53.1098 7.06984C53.4798 8.40984 54.8598 9.13991 56.2798 8.76991C56.8798 8.61991 57.3698 8.29992 57.7398 7.77992C57.6398 7.69992 57.5698 7.62995 57.4898 7.55995C57.3498 7.44995 57.2099 7.2899 57.0499 7.2599C56.8699 7.2299 56.7698 7.45995 56.6298 7.55995C55.4698 8.41995 53.9898 7.57995 53.9898 6.55995C54.1398 6.48995 54.3098 6.51991 54.4698 6.51991C55.5298 6.51991 56.5998 6.51991 57.6598 6.51991C58.0298 6.51991 58.0298 6.5099 58.0098 6.1299C57.9598 5.0799 57.2098 4.11988 56.1998 3.85988C55.2698 3.60988 54.4398 3.80988 53.7598 4.48988C53.0398 5.20988 52.8398 6.07995 53.1098 7.05995V7.06984ZM55.4098 4.73988C56.0998 4.69988 56.5698 5.00987 56.8998 5.59987C56.6098 5.70987 54.8398 5.73991 54.0998 5.63991C54.3898 5.04991 54.8099 4.76987 55.4199 4.72987L55.4098 4.73988Z" fill="white"/>
<path d="M120.13 3.86984C119.2 3.62984 118.37 3.82986 117.69 4.50986C116.97 5.22986 116.78 6.1098 117.05 7.0798C117.3 7.9698 117.9 8.56988 118.8 8.77988C119.81 9.01988 120.73 8.79988 121.48 8.02988C121.71 7.79988 121.71 7.78981 121.45 7.58981C121.3 7.46981 121.16 7.27988 120.97 7.27988C120.79 7.27988 120.69 7.47981 120.55 7.58981C119.48 8.37981 117.99 7.6798 117.92 6.5798C118.08 6.5198 118.23 6.53989 118.38 6.53989C119.4 6.53989 120.42 6.53989 121.44 6.53989C121.53 6.53989 121.62 6.53989 121.71 6.53989C121.9 6.54989 121.97 6.48988 121.96 6.27988C121.94 5.16988 121.18 4.14985 120.13 3.87985V3.86984ZM118.02 5.62985C118.32 5.02985 118.77 4.74983 119.39 4.72983C120.06 4.70983 120.52 5.01983 120.82 5.60983C120.49 5.70983 118.59 5.72985 118.02 5.62985Z" fill="white"/>
<path d="M140.38 3.90978C140.23 3.92978 140.16 3.97981 140.17 4.12981C140.17 4.30981 140.17 4.47978 140.17 4.71978C139.94 4.59978 139.85 4.45979 139.73 4.34979C138.89 3.58979 137.71 3.58979 136.89 4.34979C136.18 4.99979 135.93 5.81981 136.07 6.74981C136.22 7.69981 136.73 8.4298 137.67 8.7398C138.57 9.0398 139.35 8.75985 139.96 8.03985C140 7.98985 140.04 7.90978 140.15 7.96978C140.15 8.01978 140.16 8.07981 140.16 8.12981C140.16 8.76981 140.08 8.70977 140.73 8.70977C141.17 8.70977 141.18 8.70984 141.18 8.27984C141.18 7.04984 141.18 5.82979 141.18 4.59979C141.18 3.82979 141.14 3.79982 140.38 3.88982V3.90978ZM138.7 7.92986C137.81 7.92986 137.12 7.22976 137.12 6.31976C137.12 5.45976 137.82 4.75983 138.7 4.76983C139.58 4.76983 140.28 5.45977 140.28 6.32977C140.28 7.21977 139.58 7.93975 138.7 7.93975V7.92986Z" fill="white"/>
<path d="M112.88 8.7298C113.22 8.7298 113.22 8.72982 113.22 8.37982C113.22 7.46982 113.22 6.54983 113.22 5.63983C113.22 5.18983 113.22 5.18976 113.65 5.18976C114.31 5.18976 114.97 5.18976 115.63 5.18976C116.39 5.18976 116.42 5.14981 116.33 4.36981C116.31 4.21981 116.26 4.14985 116.11 4.15985C116.02 4.15985 115.93 4.15985 115.84 4.15985C115.11 4.15985 114.37 4.15985 113.64 4.15985C113.16 4.15985 113.21 4.15984 113.21 3.70984C113.21 3.39984 113.21 3.07984 113.21 2.76984C113.21 2.34984 113.21 2.34984 113.62 2.33984C114.31 2.33984 115 2.33984 115.69 2.33984C116.41 2.33984 116.33 2.46984 116.33 1.64984C116.33 1.30984 116.33 1.2998 115.97 1.2998C114.83 1.2998 113.69 1.2998 112.56 1.2998C112.22 1.2998 112.21 1.29984 112.21 1.64984C112.21 2.76984 112.21 3.88984 112.21 5.01984C112.21 5.52984 112.21 6.03987 112.21 6.54987C112.21 7.05987 112.21 7.56977 112.21 8.07977C112.21 8.83977 112.08 8.72981 112.87 8.73981L112.88 8.7298Z" fill="white"/>
<path d="M103.19 8.86975C104.53 8.86975 105.74 7.6498 105.73 6.28979C105.73 4.93979 104.52 3.77979 103.13 3.77979C101.76 3.77979 100.55 4.9797 100.56 6.3197C100.57 7.6797 101.79 8.85975 103.19 8.86975ZM103.15 4.78979C103.98 4.76979 104.73 5.4998 104.74 6.2998C104.74 7.1098 104.01 7.82972 103.19 7.83972C102.33 7.83972 101.61 7.17974 101.59 6.35974C101.58 5.51974 102.29 4.80979 103.16 4.78979H103.15Z" fill="white"/>
<path d="M81.62 8.86975C82.99 8.86975 84.17 7.67981 84.17 6.30981C84.17 4.94981 82.99 3.78979 81.6 3.77979C80.23 3.77979 79.02 4.9598 79.02 6.2998C79.02 7.6698 80.24 8.85974 81.63 8.85974L81.62 8.86975ZM81.62 4.78979C82.46 4.78979 83.1901 5.5097 83.1801 6.3197C83.1801 7.1397 82.44 7.83972 81.61 7.83972C80.75 7.83972 80.03 7.15972 80.03 6.33972C80.03 5.49972 80.76 4.78979 81.62 4.78979Z" fill="white"/>
<path d="M74.8801 8.72967C75.2401 8.72967 75.2501 8.72967 75.2501 8.35967C75.2501 7.60967 75.2501 6.85967 75.2501 6.10967C75.2501 5.71967 75.3701 5.36964 75.6201 5.07965C75.9301 4.71965 76.4001 4.57966 76.7901 4.71966C77.1601 4.85966 77.34 5.16964 77.35 5.69964C77.35 6.47964 77.35 7.25973 77.35 8.03973C77.35 8.83973 77.21 8.72968 78.07 8.73968C78.38 8.73968 78.3901 8.73972 78.3901 8.40972C78.3901 7.37972 78.3901 6.33975 78.3901 5.30975C78.3901 5.18975 78.38 5.06964 78.35 4.94964C78.1 3.91964 76.85 3.45964 75.94 4.06964C75.72 4.21964 75.5301 4.40966 75.2901 4.59966C75.2701 4.52966 75.2501 4.49966 75.2501 4.46966C75.2301 4.09633 75.0301 3.91301 74.6501 3.91967C74.2301 3.91967 74.23 3.91965 74.23 4.33965C74.23 5.57965 74.23 6.82964 74.23 8.06964C74.23 8.83964 74.1201 8.72968 74.8901 8.73968L74.8801 8.72967Z" fill="white"/>
<path d="M70.0198 8.72972C70.3898 8.72972 70.3898 8.72972 70.3998 8.35972C70.3998 7.60972 70.3998 6.85972 70.3998 6.10972C70.3998 5.69972 70.5199 5.33978 70.7999 5.03978C71.1099 4.69978 71.4998 4.5797 71.9398 4.7097C72.3198 4.8297 72.4998 5.14979 72.4998 5.67979C72.4998 6.45979 72.4998 7.23976 72.4998 8.01976C72.4998 8.82976 72.3598 8.71972 73.2098 8.72972C73.5298 8.72972 73.5399 8.72977 73.5399 8.40977C73.5399 7.38977 73.5399 6.36971 73.5399 5.34971C73.5399 4.71971 73.2598 4.24971 72.7098 3.96971C72.1398 3.67971 71.5799 3.70969 71.0499 4.07969C70.8399 4.21969 70.6599 4.39971 70.4199 4.59971C70.3999 4.50971 70.3798 4.46979 70.3798 4.42979C70.3598 4.08312 70.1764 3.91305 69.8298 3.91972C69.8298 3.91972 69.7999 3.91972 69.7899 3.91972C69.3699 3.91972 69.3598 3.9197 69.3598 4.3397C69.3598 5.5997 69.3598 6.85972 69.3598 8.10972C69.3598 8.83972 69.2598 8.72973 70.0198 8.73973V8.72972Z" fill="white"/>
<path d="M106.9 8.72954C107.26 8.72954 107.27 8.72954 107.27 8.34954C107.27 7.59954 107.27 6.84954 107.27 6.09954C107.27 5.70954 107.39 5.35951 107.64 5.06951C107.96 4.69951 108.42 4.56952 108.81 4.70952C109.18 4.84952 109.36 5.1595 109.37 5.6895C109.37 6.4695 109.37 7.24959 109.37 8.02959C109.37 8.82959 109.23 8.71954 110.09 8.72954C110.4 8.72954 110.41 8.72959 110.41 8.39959C110.41 7.39959 110.41 6.38958 110.41 5.38958C110.41 4.72958 110.13 4.22958 109.53 3.94958C108.94 3.66958 108.36 3.73958 107.84 4.13958C107.66 4.27958 107.5 4.42954 107.3 4.59954C107.28 4.51954 107.26 4.48952 107.26 4.45952C107.24 4.08619 107.037 3.90287 106.65 3.90954C106.23 3.90954 106.23 3.90953 106.23 4.33953C106.23 5.57953 106.23 6.82951 106.23 8.06951C106.23 8.83951 106.12 8.72955 106.89 8.73955L106.9 8.72954Z" fill="white"/>
<path d="M28.5498 8.72989C29.2998 8.72989 30.0498 8.72989 30.7998 8.72989C31.5798 8.71989 31.4697 8.89991 31.4897 7.99991C31.4897 7.77991 31.4097 7.69988 31.1997 7.71988C31.1097 7.71988 31.0198 7.71988 30.9298 7.71988C30.4198 7.71988 29.9097 7.71988 29.3997 7.71988C29.0697 7.71988 29.0698 7.71994 29.0598 7.39994C29.0598 7.30994 29.0598 7.21992 29.0598 7.12992C29.0598 5.38992 29.0598 3.6599 29.0598 1.9199C29.0598 1.2299 29.1998 1.28989 28.4098 1.28989C28.0698 1.28989 28.0598 1.29993 28.0598 1.63993C28.0598 2.75993 28.0598 3.87992 28.0598 5.00992C28.0598 6.06992 28.0598 7.12986 28.0598 8.19986C28.0598 8.75986 28.0098 8.71988 28.5598 8.71988L28.5498 8.72989Z" fill="white"/>
<path d="M124.93 6.11949C124.7 5.98949 124.45 5.87951 124.2 5.76951C124.01 5.67951 123.81 5.59946 123.65 5.46946C123.53 5.36946 123.44 5.24945 123.48 5.07945C123.52 4.89945 123.64 4.7995 123.82 4.7595C124.08 4.7095 124.32 4.72946 124.57 4.83946C124.72 4.89946 124.83 5.07954 125 5.04954C125.18 5.00954 125.29 4.83947 125.42 4.72947C125.49 4.66947 125.56 4.61953 125.66 4.53953C125.27 4.15953 124.9 3.93952 124.5 3.83952C124.06 3.72952 123.63 3.78951 123.24 4.01951C122.33 4.53951 122.31 5.77951 123.18 6.26951C123.46 6.42951 123.74 6.55954 124.03 6.67954C124.25 6.76954 124.48 6.85953 124.65 7.03953C124.9 7.28953 124.88 7.54951 124.6 7.76951C124.45 7.87951 124.29 7.93944 124.1 7.94944C123.83 7.95944 123.59 7.87945 123.39 7.70945C123.23 7.56945 123.08 7.55953 122.91 7.66953C122.81 7.72953 122.7 7.77945 122.59 7.82945C122.42 7.90945 122.42 7.99951 122.53 8.1395C123 8.76951 123.88 9.05953 124.62 8.78953C125.21 8.57953 125.62 8.17953 125.71 7.53953C125.8 6.88953 125.47 6.4495 124.93 6.1395V6.11949Z" fill="white"/>
<path d="M135.1 3.90964C134.85 3.87964 134.72 3.98963 134.62 4.20963C134.31 4.88963 133.98 5.55965 133.65 6.22965C133.59 6.34965 133.57 6.47963 133.42 6.57963C133.35 6.44963 133.27 6.32962 133.21 6.19962C132.88 5.52962 132.55 4.85961 132.21 4.18961C132.15 4.06961 132.12 3.91965 131.95 3.91965C131.66 3.91965 131.36 3.91965 131 3.91965C131.82 5.60965 132.6 7.21973 133.43 8.92973C134.26 7.22973 135.04 5.61966 135.83 3.98966C135.58 3.84966 135.34 3.93964 135.11 3.90964H135.1Z" fill="white"/>
<path d="M89.2399 3.90995C88.9299 3.90995 88.6998 3.91995 88.4598 3.90995C88.2298 3.88995 88.1099 3.97992 88.0099 4.18992C87.6899 4.87992 87.3599 5.56997 87.0199 6.24997C86.9599 6.35997 86.9399 6.50994 86.7799 6.58994C86.6899 6.42994 86.6099 6.27997 86.5299 6.11997C86.2099 5.47997 85.8898 4.82992 85.5698 4.18992C85.5098 4.06992 85.4699 3.91996 85.2999 3.91996C85.0099 3.91996 84.7099 3.86995 84.3899 3.97995C85.1899 5.61995 85.9699 7.23003 86.7899 8.93003C87.6199 7.22003 88.3998 5.60996 89.2198 3.91996L89.2399 3.90995Z" fill="white"/>
<path d="M142.87 1.16992C142.47 1.16992 142.47 1.16991 142.47 1.59991C142.47 2.70991 142.47 3.80998 142.47 4.91998V7.96991C142.47 8.78991 142.47 8.78992 143.27 8.72992C143.43 8.71992 143.52 8.67994 143.52 8.49994C143.52 8.39994 143.52 8.28988 143.52 8.18988C143.52 6.06988 143.52 3.93995 143.52 1.81995C143.52 1.08995 143.63 1.17993 142.88 1.17993L142.87 1.16992Z" fill="white"/>
<path d="M95.2398 4.36971C95.2398 4.87971 95.1898 4.8697 95.7198 4.8597C96.0298 4.8597 96.0399 4.85965 96.0399 5.18965C96.0399 5.70965 96.0399 6.23972 96.0399 6.75972C96.0399 6.96972 96.0399 7.17973 96.0399 7.38973C96.0399 7.59973 96.0399 7.80973 96.0399 8.01973C96.0599 8.83973 95.8599 8.71969 96.7899 8.72969C96.9799 8.72969 97.0699 8.66968 97.0599 8.46968C97.0599 8.27968 97.0599 8.07973 97.0599 7.88973C97.0599 6.98973 97.0599 6.08966 97.0599 5.19966C97.0599 4.86966 97.0698 4.8697 97.3798 4.8597C97.4298 4.8597 97.4699 4.8597 97.5199 4.8597C98.1099 4.8497 98.0798 4.97973 98.0798 4.26973C98.0798 3.91973 98.0798 3.91968 97.7298 3.90968C97.2832 3.89635 97.0599 3.67303 97.0599 3.2397C97.0599 2.4597 97.0398 2.44974 96.2598 2.52974C96.1198 2.53974 96.0399 2.5897 96.0399 2.7397C96.0399 2.9297 96.0399 3.12972 96.0399 3.31972C96.0399 3.85972 96.0398 3.87973 95.5098 3.88973C95.2898 3.88973 95.2198 3.97965 95.2398 4.18965C95.2398 4.24965 95.2398 4.30971 95.2398 4.36971Z" fill="white"/>
<path d="M128.35 3.90966C127.93 3.89633 127.72 3.67636 127.72 3.24969C127.72 2.45969 127.72 2.45971 126.93 2.51971C126.76 2.52971 126.69 2.5897 126.69 2.7597C126.69 3.0597 126.69 3.35966 126.69 3.65966C126.69 3.82966 126.62 3.88971 126.45 3.89971C125.87 3.93971 125.87 3.94973 125.89 4.53973C125.89 4.56973 125.89 4.59969 125.89 4.62969C125.88 4.8097 125.97 4.86968 126.13 4.85968C126.22 4.85968 126.31 4.85968 126.4 4.85968C126.61 4.83968 126.69 4.9297 126.69 5.1397C126.68 5.6897 126.69 6.24974 126.69 6.79974C126.69 7.22974 126.69 7.66967 126.69 8.09967C126.69 8.81967 126.58 8.71967 127.34 8.72967C127.7 8.72967 127.71 8.72967 127.71 8.34967C127.71 7.31967 127.71 6.27969 127.71 5.24969C127.71 4.85969 127.71 4.85967 128.1 4.84967C128.74 4.83967 128.7 4.96969 128.69 4.24969C128.69 3.90969 128.69 3.90971 128.34 3.89971L128.35 3.90966Z" fill="white"/>
<path d="M126.69 6.79968C126.69 6.24968 126.69 5.68965 126.69 5.13965C126.68 5.68965 126.69 6.24968 126.69 6.79968C126.69 7.22968 126.69 7.66961 126.69 8.09961C126.69 7.66961 126.69 7.22968 126.69 6.79968Z" fill="white"/>
<path d="M68.12 8.72948C68.45 8.72948 68.46 8.72949 68.46 8.36949C68.46 7.22949 68.46 6.09946 68.46 4.95946C68.46 3.92946 68.46 2.89948 68.46 1.85948C68.46 1.09948 68.43 1.07947 67.65 1.15947C67.5 1.17947 67.4399 1.2395 67.4399 1.3795C67.4399 1.4795 67.4399 1.5895 67.4399 1.6895C67.4399 3.8095 67.4399 5.93956 67.4399 8.05956C67.4399 8.80956 67.31 8.70946 68.11 8.70946L68.12 8.72948Z" fill="white"/>
<path d="M129.66 3.90974C129.34 3.90974 129.33 3.90975 129.33 4.22975C129.33 4.57975 129.33 4.91978 129.33 5.25978C129.33 5.59978 129.33 5.94981 129.33 6.28981C129.33 6.58981 129.33 6.88971 129.33 7.18971C129.33 7.48971 129.33 7.78973 129.33 8.08973C129.33 8.80973 129.22 8.70974 129.99 8.71974C130.36 8.71974 130.37 8.71974 130.37 8.34974C130.37 7.08974 130.37 5.82971 130.37 4.56971C130.37 3.80971 130.52 3.89979 129.67 3.89979L129.66 3.90974Z" fill="white"/>
<path d="M99.0099 3.90967C98.6799 3.90967 98.6699 3.90971 98.6699 4.26971C98.6699 5.52971 98.6699 6.78974 98.6699 8.04974C98.6699 8.83974 98.5199 8.71969 99.4099 8.73969C99.6599 8.73969 99.7099 8.63974 99.7099 8.41974C99.7099 7.71974 99.7099 7.00975 99.7099 6.30975C99.7099 5.73975 99.7099 5.16967 99.7099 4.59967C99.6999 3.82967 99.8599 3.91968 99.0199 3.91968L99.0099 3.90967Z" fill="white"/>
<path d="M99.17 3.13983C99.58 3.13983 99.9599 2.78983 99.9699 2.38983C99.9899 1.96983 99.6199 1.57982 99.1899 1.56982C98.7799 1.56982 98.4099 1.91982 98.3899 2.31982C98.3699 2.74982 98.74 3.12983 99.17 3.13983Z" fill="white"/>
<path d="M129.83 1.55976C129.42 1.55976 129.06 1.92979 129.05 2.33979C129.05 2.76979 129.42 3.13978 129.85 3.13978C130.26 3.13978 130.62 2.76975 130.63 2.35975C130.63 1.93975 130.25 1.54976 129.82 1.55976H129.83Z" fill="white"/>
</svg>
