<?xml version="1.0" encoding="UTF-8"?>
<svg id="_레이어_2" data-name="레이어 2" xmlns="http://www.w3.org/2000/svg" viewBox="0 0 156.62 41.59">
  <defs>
    <style>
      .cls-1 {
        fill: #fff;
      }

      .cls-2 {
        fill: #767474;
      }

      .cls-3 {
        fill: #aa1e32;
      }
    </style>
  </defs>
  <g id="_레이어_1-2" data-name="레이어 1">
    <g>
      <path class="cls-3" d="M20.79,41.59c11.49,0,20.8-9.31,20.8-20.8S32.28,0,20.79,0,0,9.31,0,20.79s9.31,20.8,20.79,20.8"/>
      <polygon class="cls-1" points="19.97 11.67 19.97 29.9 25.77 29.9 25.77 28.27 21.63 28.27 21.63 11.67 19.97 11.67"/>
      <path class="cls-1" d="M14.16,16.65c1.38,0,2.49-1.12,2.49-2.5s-1.12-2.49-2.49-2.49-2.49,1.11-2.49,2.49,1.12,2.5,2.49,2.5"/>
      <path class="cls-1" d="M21.63,3.4c-.22-.01-.63-.02-.84-.02C11.2,3.38,3.39,11.2,3.39,20.79c0,4.65,1.81,9.03,5.1,12.31,3.29,3.29,7.66,5.1,12.31,5.1s9.03-1.81,12.32-5.1c3.28-3.29,5.1-7.66,5.1-12.31v-.79h-.7s-11.74,0-11.74,0v1.62h10.77v.24c-.56,8.21-7.4,14.72-15.76,14.72-4.21,0-8.17-1.65-11.15-4.62-2.98-2.98-4.63-6.95-4.63-11.16s1.64-8.18,4.63-11.16c2.98-2.98,6.94-4.62,11.15-4.62,.19,0,.64,0,.84,.01v-1.62Z"/>
      <g>
        <polygon class="cls-2" points="57.32 7.08 51.06 7.08 51.06 34.17 70.28 34.17 70.28 28.9 57.32 28.9 57.32 7.08"/>
        <path class="cls-2" d="M84.05,23.85h5.1v4.74c-.94,.36-2.77,.72-4.52,.72-5.63,0-7.51-2.86-7.51-8.67s1.79-8.81,7.42-8.81c3.13,0,4.92,.98,6.4,2.86l3.89-3.57c-2.37-3.4-6.53-4.43-10.42-4.43-8.76,0-13.37,4.78-13.37,13.9s4.16,13.99,13.32,13.99c4.2,0,8.32-1.07,10.55-2.64v-13.14h-10.86v5.05Z"/>
        <path class="cls-2" d="M142.07,10.37v-3.54h-3.19c-1.9,0-4.13-.32-5.38-.79l-.64,3.72c1.26,.44,3.28,.61,4.59,.61h4.62Z"/>
        <path class="cls-2" d="M113.32,10.55v-3.54h-3.16c-1.9,0-4.21-.32-5.33-.76l-.67,3.69c1.26,.38,3.36,.62,4.86,.62h4.3Z"/>
        <path class="cls-2" d="M134.02,28.14h13.49v6.09h4.13c.38-1.52,.53-3.57,.53-4.92v-4.77h-18.15v3.6Z"/>
        <polygon class="cls-2" points="152.17 12.89 152.17 6.77 147.51 6.77 147.51 23.19 152.17 23.19 152.17 16.7 156.62 16.7 156.62 12.89 152.17 12.89"/>
        <path class="cls-2" d="M123.72,6.77h-4.68V24.39c-1.87,1.01-4.68,1.73-7.38,1.73v-2.25c3.21-.59,4.56-2.45,4.56-5.13,0-1.25-.45-2.35-1.27-3.22h2.92v-3.54h-17.5v3.54h3.22c-.82,.87-1.27,1.97-1.27,3.22,0,2.74,1.41,4.61,4.74,5.16v2.22h-6.62v3.57h10.57c2.84,0,6.14-.64,8.02-1.67v6.06h4.1c.38-1.61,.58-4.01,.58-6.18v-8.93h4.42v-3.92h-4.42V6.77Zm-14.4,9.54c1.76,0,2.49,.91,2.49,2.28s-.73,2.31-2.49,2.31-2.55-.96-2.55-2.31,.76-2.28,2.55-2.28Z"/>
        <path class="cls-2" d="M144.64,18.04c0-1.08-.39-2.08-1.1-2.9h2.77v-3.46h-17.12v3.46h3.13c-.71,.82-1.11,1.81-1.11,2.9,0,3.07,1.93,5.15,6.7,5.15s6.73-2.11,6.73-5.15Zm-9.25-.12c0-1.14,.7-2.08,2.52-2.08s2.49,.94,2.49,2.08-.76,2.11-2.49,2.11c-1.81,0-2.52-.93-2.52-2.11Z"/>
      </g>
    </g>
  </g>
</svg>