<?xml version="1.0" encoding="UTF-8"?>
<svg id="_레이어_2" data-name="레이어 2" xmlns="http://www.w3.org/2000/svg" viewBox="0 0 414.34 155.03">
  <defs>
    <style>
      .cls-1 {
        fill: #767474;
      }

      .cls-2 {
        fill: none;
      }

      .cls-3 {
        fill: #991f30;
      }
    </style>
  </defs>
  <g id="_레이어_1-2" data-name="레이어 1">
    <g>
      <path class="cls-2" d="M370.79,13.11c0,.99,0,1.98,0,2.97,0,.86,0,1.72,0,2.58,0-.86,0-1.72,0-2.58,0-.99,0-1.98,0-2.97Z"/>
      <path class="cls-2" d="M285.76,16.07c0,2.02-.02,4.04,0,6.06-.03-2.02,0-4.04,0-6.06,0-1.63,.02-3.27,0-4.9,.02,1.63,0,3.27,0,4.9Z"/>
      <path class="cls-2" d="M321.67,2.73c0,3.22,0,6.44,0,9.66,0,1.46,0,2.92,0,4.38,0-1.46,0-2.92,0-4.38,0-3.22,0-6.44,0-9.66Z"/>
      <path class="cls-2" d="M408.47,2.58c0,3.18,0,6.36,0,9.53,0,2.92,0,5.84,0,8.76,0-2.92,0-5.84,0-8.76,0-3.18,0-6.35,0-9.53Z"/>
      <path class="cls-2" d="M196.09,22.02c0-3.26,0-6.52,0-9.79,0-2.96,0-5.92,0-8.88,0,2.96,0,5.92,0,8.88,0,3.26,0,6.52,0,9.79Z"/>
      <path class="cls-2" d="M67.26,22.81c0-3.52,0-7.05,0-10.57v-2.84c0,.95,0,1.89,0,2.84,0,3.52,0,7.05,0,10.57Z"/>
      <path class="cls-2" d="M80.14,2.75c-.01,3.22,0,6.44,0,9.66,0,3.05,0,6.1,0,9.15,0-3.05,0-6.1,0-9.15,0-3.22,0-6.44,0-9.66Z"/>
      <path class="cls-1" d="M348.54,48.26c-1.8,0-1.6-.2-1.6,1.56,0,33.76,0,67.52,0,101.27,0,.3,.02,.6,0,.9-.03,.49,.19,.71,.68,.69,.3-.01,.6,0,.9,0,8.04,0,16.09,0,24.13,0,1.76,0,1.62,.13,1.62-1.58,0-11.74,0-23.48,0-35.22,0-.34,.01-.69,0-1.03-.02-.47,.15-.74,.67-.71,.34,.02,.69,0,1.03,0,7.1,0,14.19,0,21.29,0,2.88,0,5.76,0,8.64,0,1.6,0,1.43,.1,1.43-1.49,0-6.71,0-13.42,0-20.12,0-.26-.01-.52,0-.77,.03-.48-.18-.73-.68-.71-.34,0-.69,0-1.03,0-8.95,0-17.89,0-26.84,0-1.16,0-2.32,.01-3.48,0-1-.01-1.02-.02-1.03-.99-.01-1.46,0-2.92,0-4.39,0-3.4,0-6.79,0-10.19,0-1.3,0-1.3,1.36-1.31,.26,0,.52,0,.77,0,12.13,0,24.26,0,36.39,0,.52,0,1.03-.03,1.55-.04v-25.8c-.47-.02-.94-.07-1.41-.07-21.46,0-42.92,0-64.38,0Z"/>
      <path class="cls-3" d="M124.57,154.68c8.67,.88,17.18,.15,25.45-2.65,12.35-4.19,21.99-11.75,28.29-23.27,6.07-11.1,7.39-23.01,5.58-35.39-.07-.51-.32-.64-.77-.62-.3,.02-.6,0-.9,0h-50.06c-.22,0-.43,0-.65,0-1.1,.01-1.11,.01-1.11,1.14,0,6.15,0,12.3,0,18.45,0,1.02,.02,1.03,1.08,1.03,6.97,0,13.94,0,20.9,0,.3,0,.6,0,.9,0,.94,.03,.96,.04,.86,.94-.48,4.33-2.47,7.81-5.93,10.46-1.76,1.34-3.71,2.33-5.8,3.02-4.61,1.54-9.33,1.85-14.13,1.34-5.86-.63-11.25-2.53-15.85-6.24-8.38-6.76-12.18-15.58-10.74-26.28,1.2-8.92,6.02-15.69,13.62-20.45,5.26-3.29,11.04-4.79,17.22-4.26,7.2,.61,13.51,3.47,19,8.15,.23,.19,.46,.38,.78,.65,.85-1.16,1.61-2.2,2.37-3.24,4.05-5.56,8.11-11.11,12.16-16.67q.8-1.09-.26-2c-.16-.14-.33-.28-.5-.41-3.11-2.55-6.52-4.62-10.17-6.3-11.74-5.41-23.94-7.59-36.78-5.07-14.42,2.84-26.32,9.9-35.18,21.66-9.36,12.42-12.74,26.45-9.89,41.75,2.56,13.75,9.84,24.7,21.02,33.03,8.75,6.52,18.66,10.13,29.51,11.23Z"/>
      <path class="cls-1" d="M232.09,48.88c-11.74,3.76-21.45,10.44-28.61,20.53-8.24,11.61-11.14,24.59-9.32,38.64,1.43,11.04,5.92,20.75,13.67,28.72,14.01,14.4,31.23,19.97,51.04,17.49,9.79-1.23,18.56-5.21,26.41-11.18,1.23-.94,2.39-1.97,3.59-2.94,.52-.41,.51-.79,.1-1.28-.47-.56-.89-1.16-1.32-1.75-4.41-5.88-8.83-11.76-13.24-17.64-.68-.91-.69-.91-1.55-.19-.2,.17-.39,.34-.59,.5-3.05,2.55-6.34,4.72-9.98,6.34-4.9,2.18-10.03,3.04-15.35,2.35-6.28-.81-11.82-3.36-16.4-7.74-7.32-7-10.21-15.57-8.26-25.54,1.61-8.24,6.34-14.39,13.56-18.56,6.2-3.58,12.89-4.9,19.99-3.57,6.28,1.17,11.71,4.11,16.6,8.15,.36,.3,.65,.68,1.12,.81,.3-.13,.47-.39,.65-.62,4.86-6.24,9.72-12.48,14.57-18.73,.69-.89,.68-.9-.12-1.63-.22-.2-.45-.4-.68-.6-4.59-3.89-9.65-7.04-15.15-9.46-6.59-2.9-13.47-4.7-20.68-4.95-6.84-.23-13.55,.74-20.07,2.83Z"/>
      <path class="cls-3" d="M0,100.48v36.12c0,4.99,0,9.98,0,14.96,0,.99,.02,.99,.98,1.01,.26,0,.52,0,.77,0h63.87c.3,0,.6,0,.9,0,.95-.02,.96-.02,.96-1.02,0-8,0-16,0-23.99,0-.99-.02-.99-.98-1.01-.26,0-.52,0-.77,0H29.23q-1.54,0-1.54-1.59c0-24.98,0-49.97,0-74.95,0-1.64,.2-1.5-1.53-1.5-8.21,0-16.43,0-24.64,0-1.66,0-1.5-.18-1.5,1.53,0,16.81,0,33.63,0,50.44Z"/>
      <path class="cls-1" d="M327.21,48.52c-8.13,0-16.25,0-24.38,0-1.82,0-1.68-.24-1.68,1.63,0,33.58,0,67.15,0,100.73,0,.3,.02,.6,0,.9-.04,.63,.27,.85,.86,.8,.26-.02,.52,0,.77,0,8.17,0,16.34,0,24.51,0,1.78,0,1.6,.19,1.6-1.57,0-16.85,0-33.71,0-50.56s0-33.53,0-50.3c0-1.8,.22-1.63-1.68-1.63Z"/>
      <path class="cls-1" d="M20.83,20.97c2.24,2.72,5.15,3.69,8.53,2.86,3.27-.81,5.29-3.07,6.35-6.2,.61-1.8,.8-3.69,.8-6.28-.02-2.06-.4-4.72-1.89-7.1C32.63,1.07,29.5-.49,25.02,.56c-2.72,.64-4.39,2.61-5.49,5.06-1.3,2.9-1.52,5.97-1.17,9.09,.26,2.31,.98,4.45,2.47,6.27Zm3.18-13.6c.21-.56,.55-1.07,.96-1.51,1.38-1.49,3.52-1.46,4.87,.06,.82,.93,1.22,2.07,1.45,3.25,.2,1.01,.37,2.03,.31,2.77-.01,1.84-.17,3.37-.76,4.82-.64,1.56-1.61,2.81-3.45,2.82-1.84,.01-2.88-1.22-3.47-2.79-1.17-3.14-1.06-6.3,.09-9.42Z"/>
      <path class="cls-1" d="M38.56,8.9c1.24-.04,2.49-.04,3.74,0,.57,.02,.72-.26,.79-.75,.1-.72,.2-1.45,.49-2.13,.34-.79,.88-1.37,1.75-1.56,2.27-.49,4.15,1.3,3.77,3.59-.14,.85-.44,1.67-.91,2.4-.56,.87-1.1,1.75-1.73,2.56-2.47,3.19-4.98,6.36-7.47,9.54-.28,.36-.54,.74-.9,1.24,.41,.03,.65,.05,.89,.06,4.73,0,9.45,0,14.18,0,.17,0,.34,0,.52,0,.43,.01,.62-.18,.62-.62-.01-.69,0-1.37,0-2.06-.02-1.94,.23-1.7-1.72-1.71-1.52-.01-3.05,0-4.57,0-.03-.49,.23-.68,.41-.9,1.36-1.67,2.53-3.47,3.72-5.26,.79-1.19,1.41-2.46,1.8-3.83,1.15-4.1-.78-7.88-4.65-9.03-2.07-.61-4.18-.59-6.2,.19-3.4,1.31-5.03,3.93-5.27,7.4-.04,.55,.03,.9,.73,.88Z"/>
      <path class="cls-1" d="M57.31,8.9c1.24-.04,2.49-.04,3.74,0,.57,.02,.72-.26,.79-.75,.1-.72,.2-1.45,.49-2.13,.34-.79,.88-1.37,1.75-1.56,2.27-.49,4.15,1.3,3.77,3.59-.14,.85-.44,1.67-.9,2.4-.56,.87-1.1,1.75-1.73,2.56-2.47,3.19-4.98,6.36-7.47,9.54-.28,.36-.54,.74-.9,1.24,.41,.03,.65,.05,.89,.06,4.73,0,9.45,0,14.18,0,.17,0,.34,0,.52,0,.43,.01,.62-.18,.62-.62-.01-.69,0-1.37,0-2.06-.02-1.94,.23-1.7-1.72-1.71-1.52-.01-3.05,0-4.57,0-.03-.49,.23-.68,.41-.9,1.35-1.67,2.54-3.47,3.72-5.26,.79-1.19,1.41-2.46,1.8-3.83,1.15-4.1-.78-7.88-4.65-9.03-2.07-.61-4.18-.59-6.2,.19-3.4,1.31-5.03,3.93-5.27,7.4-.04,.55,.03,.9,.73,.88Z"/>
      <path class="cls-1" d="M1.04,8.89c1.33-.01,2.66-.01,4,0,.43,0,.63-.19,.68-.59,.08-.64,.14-1.28,.35-1.9,.54-1.57,1.5-2.18,3.15-1.97,1.35,.17,2.4,1.29,2.52,2.7,.09,1.07-.24,2.03-.73,2.96-.68,1.3-1.55,2.47-2.45,3.62-2.31,2.94-4.62,5.88-6.93,8.82-.28,.35-.63,.68-.73,1.1,.24,.25,.47,.2,.67,.2,4.77,0,9.54,0,14.31,0,1.01,0,1.02-.02,1.03-1.1,0-.6,0-1.2,0-1.8,0-1.61,.15-1.48-1.43-1.48-1.62,0-3.23,0-4.87,0,0-.51,.31-.72,.51-.97,1.26-1.58,2.38-3.26,3.5-4.94,1.01-1.51,1.79-3.12,2.15-4.93,.72-3.64-1.18-6.96-4.7-8.12-2.02-.66-4.08-.65-6.08,.05C2,1.93,.69,4.91,.45,8.14c-.03,.44,.04,.76,.6,.75Z"/>
      <path class="cls-1" d="M104.15,4.34c1.82,.32,3.39,1.2,4.79,2.4,.67,.57,.69,.57,1.32-.07,.48-.48,1.02-.91,1.41-1.53-.2-.21-.37-.41-.55-.58-3.15-2.94-6.95-3.89-11.1-3.37-5.32,.66-9.48,5.21-9.76,10.44-.3,5.51,3.35,10.44,8.69,11.75,2.12,.52,4.26,.51,6.4,.14,4.87-.84,8.74-5.74,8.39-10.59-.03-.48-.18-.7-.68-.69-2.58,.01-5.16,.01-7.74,0-.51,0-.7,.22-.67,.7,.01,.21,0,.43,0,.65,.02,1.86-.19,1.62,1.65,1.66,1.27,.02,2.56-.11,3.79,.09,.15,.33,.04,.58-.05,.81-.74,1.78-1.95,3.12-3.77,3.85-2.02,.8-4.11,.9-6.21,.45-3.23-.69-5.39-2.66-6.33-5.78-.91-3.04-.17-5.79,2.08-8.06,2.34-2.35,5.23-2.81,8.35-2.27Z"/>
      <path class="cls-1" d="M170,23.04c1.01,0,1.02-.02,1.03-1.1,0-1.98,0-3.96,0-5.93,0-.65,.05-1.29,.2-1.92,.22-.92,.72-1.66,1.5-2.18,1.66-1.1,3.47-.22,3.65,1.74,.03,.34,.02,.69,.02,1.03,0,2.15-.02,4.3,0,6.45,.02,2.19-.36,1.89,1.9,1.9,.98,0,1-.02,1.01-1,.01-2.06,0-4.13,0-6.19,0-1.09,.18-2.14,.83-3.06,.76-1.08,1.9-1.53,3.02-1.2,1.09,.32,1.48,.97,1.49,2.53,.01,2.32-.02,4.64,0,6.96,.03,2.24-.4,1.94,1.98,1.95,.9,0,.93-.03,.93-.95,0-3.01,0-6.02,0-9.03,0-1.88-.89-3.23-2.6-3.93-1.68-.68-3.21-.24-4.51,.98-.44,.41-.83,.86-1.35,1.41-.22-.35-.37-.6-.53-.86-.75-1.27-1.89-1.81-3.33-1.82-1.24-.02-2.25,.44-3.13,1.29-.31,.3-.54,.75-1.06,.85q-.07-1.81-1.76-1.77c-1.12,.02-1.14,.02-1.14,1.15,0,3.61-.02,7.22,0,10.83,.01,2.09-.34,1.83,1.83,1.84Z"/>
      <path class="cls-1" d="M128.82,4.19c2.25-.2,4.35,.28,6.41,1.13,.33,.14,.64,.45,1.05,.25,.05-3.67,.76-3.07-2.89-4.02-4.28-1.12-8.27-.43-11.67,2.63-4.59,4.13-4.94,11.04-.78,15.6,3.44,3.77,8.78,5.01,13.72,3.19,1.68-.62,1.69-.62,1.68-2.48,0-.47,.07-.94-.12-1.54-.49,.22-.88,.4-1.26,.57-2.08,.94-4.24,1.38-6.52,.96-2.99-.55-5.28-2.07-6.54-4.87-2.28-5.08,1.29-10.92,6.93-11.43Z"/>
      <path class="cls-1" d="M148.87,23.04c.92,0,.95-.02,.95-.92,.01-2.96,0-5.93,0-8.89,0-.84-.26-1.61-.71-2.31-1.48-2.32-4.46-2.79-6.76-1.05-.5,.38-.94,.81-1.45,1.25-.24-.45-.15-.84-.15-1.21,0-2.15,0-4.29,0-6.44,0-2.35,0-2.34-2.33-2.14-.5,.04-.69,.23-.67,.71,.01,.3,0,.6,0,.9,0,6.1,0,12.2,0,18.3,0,2.06-.31,1.78,1.88,1.8,1.1,0,1.11-.01,1.11-1.15,0-2.19,0-4.38,0-6.57,0-1.49,.67-2.66,1.94-3.42,2.04-1.22,3.95-.24,4.15,2.11,.03,.34,.02,.69,.02,1.03,0,2.02-.01,4.04,0,6.06,.02,2.28-.29,1.92,2,1.94Z"/>
      <path class="cls-1" d="M258.88,21.99c2.37,2,5.73,1.91,7.97-.23,.33-.31,.64-.66,1.12-1.15,.04,.43,.06,.56,.06,.69q.03,1.76,1.81,1.74c1.16-.01,1.17-.01,1.17-1.23,0-3.52,0-7.04,0-10.57,0-2.23-.05-2.26-2.32-2.05-.49,.05-.69,.23-.67,.71,.02,.52,0,1.05,0,1.8-.5-.53-.77-.85-1.08-1.14-2.4-2.27-5.84-2.31-8.27-.09-3.39,3.09-3.29,8.56,.2,11.51Zm5.01-10.34c2.53,0,4.64,2.11,4.59,4.59-.05,2.44-2.14,4.48-4.59,4.49-2.5,0-4.58-2.08-4.59-4.62-.02-2.38,2.13-4.46,4.59-4.46Z"/>
      <path class="cls-1" d="M152.03,18.29c1.07,3.84,5.01,5.93,9.1,4.88,1.72-.44,3.12-1.35,4.19-2.84-.28-.24-.49-.44-.73-.62-.41-.31-.81-.77-1.26-.85-.52-.09-.79,.57-1.19,.87-3.33,2.46-7.58,.05-7.57-2.86,.43-.2,.91-.12,1.37-.12,3.05,0,6.11,0,9.16,0,1.05,0,1.07-.04,1.01-1.11-.16-3.01-2.31-5.76-5.2-6.52-2.65-.7-5.05-.14-7.01,1.82-2.06,2.07-2.64,4.57-1.86,7.36Zm6.59-6.69c1.97-.11,3.34,.77,4.27,2.47-.83,.31-5.92,.4-8.04,.13,.82-1.7,2.05-2.5,3.78-2.6Z"/>
      <path class="cls-1" d="M344.39,9.11c-2.66-.7-5.04-.13-7,1.83-2.08,2.07-2.62,4.6-1.83,7.36,.73,2.55,2.45,4.28,5.02,4.88,2.9,.68,5.55,.06,7.69-2.15,.65-.67,.65-.69-.09-1.26-.44-.34-.83-.88-1.38-.89-.51-.01-.8,.58-1.21,.89-3.08,2.26-7.35,.27-7.55-2.91,.47-.17,.9-.11,1.33-.11,2.92,0,5.85,0,8.77,0,.26,0,.52-.01,.77,0,.54,.03,.74-.15,.73-.74-.07-3.18-2.23-6.11-5.25-6.9Zm-6.04,5.06c.87-1.73,2.15-2.53,3.94-2.58,1.91-.05,3.23,.84,4.1,2.51-.94,.28-6.4,.33-8.04,.07Z"/>
      <path class="cls-1" d="M402.49,9.2c-.42,.05-.62,.2-.62,.63,.01,.5,0,1.01,0,1.71-.66-.33-.91-.76-1.25-1.07-2.4-2.18-5.8-2.17-8.17,.03-2.02,1.88-2.76,4.23-2.34,6.9,.43,2.74,1.89,4.81,4.6,5.71,2.59,.86,4.81,.06,6.58-2,.12-.15,.24-.38,.54-.19,.01,.14,.03,.31,.04,.47,.02,1.84-.23,1.65,1.64,1.66,1.27,0,1.28,0,1.28-1.24,0-3.52,0-7.04,0-10.56,0-2.2-.12-2.3-2.3-2.04Zm-4.82,11.53c-2.55,0-4.53-2.02-4.53-4.62,0-2.48,2.02-4.46,4.54-4.46,2.52,0,4.53,1.97,4.54,4.47,.02,2.56-2.01,4.61-4.55,4.61Z"/>
      <path class="cls-1" d="M323.58,23.04c.97,0,.99-.02,.99-1,.01-2.62,0-5.24,0-7.86,0-1.29,0-1.29,1.24-1.3,1.89,0,3.78,0,5.67,0,2.18,0,2.27-.11,2.02-2.35-.05-.43-.2-.63-.63-.61-.26,0-.52,0-.77,0-2.1,0-4.21,0-6.31,0-1.37,0-1.23,0-1.23-1.29,0-.9,0-1.8,0-2.71,0-1.21,0-1.21,1.17-1.22,1.98,0,3.95,.02,5.93,0,2.08-.02,1.83,.38,1.84-1.97,0-.98-.02-1-1.03-1-3.26-.01-6.53-.01-9.79,0-.99,0-1,.02-1.01,1,0,3.22,0,6.44,0,9.66,0,1.46,0,2.92,0,4.38,0,1.46,0,2.92,.01,4.38,.02,2.18-.37,1.87,1.91,1.89Z"/>
      <path class="cls-1" d="M295.75,23.45c3.85,.01,7.32-3.5,7.3-7.39-.02-3.87-3.48-7.21-7.46-7.2-3.92,0-7.41,3.46-7.38,7.29,.03,3.91,3.52,7.29,7.54,7.31Zm-.11-11.71c2.37-.05,4.54,2.02,4.55,4.33,.01,2.32-2.08,4.4-4.46,4.42-2.48,.02-4.55-1.89-4.58-4.24-.04-2.42,2-4.46,4.49-4.51Z"/>
      <path class="cls-1" d="M233.85,23.44c3.92,0,7.31-3.4,7.31-7.34,0-3.91-3.37-7.23-7.38-7.25-3.94-.02-7.41,3.38-7.41,7.25,0,3.93,3.49,7.35,7.48,7.35Zm-.01-11.71c2.41,.01,4.5,2.06,4.48,4.39-.02,2.34-2.11,4.37-4.51,4.36-2.47,0-4.53-1.96-4.54-4.31,0-2.4,2.11-4.46,4.57-4.44Z"/>
      <path class="cls-1" d="M214.53,23.04c1.04,0,1.06-.02,1.06-1.07,0-2.15,.01-4.3,0-6.45,0-1.13,.34-2.11,1.07-2.96,.9-1.04,2.23-1.44,3.37-1.03,1.07,.39,1.59,1.28,1.59,2.8,0,2.24-.02,4.47,0,6.71,.03,2.31-.41,1.99,2.07,2,.9,0,.92-.03,.92-.95,.01-2.97,0-5.93,0-8.9,0-.34-.04-.69-.12-1.02-.73-2.96-4.32-4.29-6.92-2.54-.63,.42-1.19,.96-1.88,1.53-.07-.21-.11-.29-.12-.37q-.09-1.61-1.73-1.59c-1.21,.01-1.22,.01-1.22,1.21,0,3.57-.01,7.14,0,10.71,.01,2.21-.31,1.9,1.9,1.92Z"/>
      <path class="cls-1" d="M200.58,23.04c1.06,0,1.07-.01,1.08-1.05,0-2.15,.02-4.3,0-6.45-.01-1.18,.36-2.2,1.14-3.06,.89-.98,2-1.33,3.27-.95,1.09,.33,1.61,1.27,1.62,2.78,.01,2.24-.02,4.47,0,6.71,.03,2.33-.41,2.01,2.04,2.02,.92,0,.94-.02,.95-.93,.01-2.92,0-5.85,0-8.77,0-1.8-.79-3.15-2.39-3.97-1.62-.83-3.24-.75-4.75,.31-.59,.42-1.12,.92-1.8,1.49-.06-.26-.1-.37-.11-.49q-.07-1.48-1.58-1.47s-.09,0-.13,0c-1.22,.01-1.23,.01-1.23,1.19,0,3.61-.01,7.22,0,10.83,0,2.08-.28,1.79,1.88,1.81Z"/>
      <path class="cls-1" d="M306.41,23.04c1.04,0,1.05-.02,1.05-1.08,0-2.15,.02-4.3,0-6.45,0-1.13,.33-2.11,1.07-2.96,.91-1.05,2.22-1.44,3.37-1.03,1.07,.39,1.59,1.28,1.6,2.8,.01,2.23-.02,4.47,0,6.71,.03,2.31-.41,1.99,2.07,2,.9,0,.92-.03,.92-.95,.01-2.88,0-5.76,0-8.64,0-1.91-.81-3.33-2.53-4.14-1.7-.81-3.35-.62-4.85,.54-.5,.39-.97,.83-1.56,1.33-.07-.23-.11-.31-.11-.4q-.09-1.6-1.74-1.58c-1.19,.01-1.21,.01-1.21,1.22,0,3.57-.01,7.14,0,10.7,.01,2.2-.31,1.89,1.9,1.91Z"/>
      <path class="cls-1" d="M81.56,23.04c2.15,0,4.3,.03,6.44,0,2.25-.03,1.93,.49,1.98-2.09,.01-.64-.24-.85-.83-.79-.26,.02-.51,0-.77,0-1.46,0-2.92,0-4.38,0-.94,0-.94-.02-.97-.9,0-.26,0-.52,0-.77,0-4.98,.01-9.96,0-14.94,0-1.99,.4-1.81-1.87-1.8-.98,0-1,.03-1.01,1.02-.01,3.22,0,6.44,0,9.66,0,3.05,0,6.1,0,9.15,0,1.61-.15,1.48,1.42,1.49Z"/>
      <path class="cls-1" d="M358.16,15.55c-.67-.38-1.38-.69-2.09-1-.55-.25-1.11-.48-1.57-.87-.34-.29-.6-.63-.49-1.12,.12-.51,.44-.81,.96-.92,.74-.16,1.44-.08,2.14,.22,.43,.19,.75,.69,1.25,.59,.51-.1,.82-.6,1.22-.92,.2-.16,.4-.32,.67-.54-1.11-1.09-2.19-1.73-3.32-2-1.27-.31-2.48-.15-3.61,.51-2.61,1.51-2.66,5.06-.18,6.46,.79,.44,1.6,.82,2.44,1.17,.64,.26,1.28,.53,1.78,1.02,.71,.7,.65,1.47-.14,2.09-.42,.32-.9,.49-1.43,.51-.77,.04-1.46-.2-2.03-.68-.47-.4-.89-.43-1.39-.11-.29,.18-.61,.31-.93,.45-.5,.22-.48,.49-.17,.89,1.36,1.8,3.88,2.63,6,1.87,1.69-.6,2.87-1.75,3.12-3.6,.25-1.86-.68-3.13-2.23-4.01Z"/>
      <path class="cls-1" d="M387.34,9.2c-.71-.09-1.08,.22-1.37,.86-.89,1.95-1.85,3.87-2.78,5.8-.16,.33-.24,.73-.67,1.01-.21-.38-.43-.73-.62-1.1-.96-1.92-1.9-3.84-2.86-5.76-.17-.33-.26-.77-.75-.78-.84-.02-1.68,0-2.74,0,2.35,4.84,4.6,9.47,6.98,14.38,2.37-4.89,4.61-9.5,6.88-14.16-.72-.39-1.41-.14-2.07-.23Z"/>
      <path class="cls-1" d="M255.72,9.21c-.89,0-1.56,.03-2.23-.01-.65-.04-1,.2-1.28,.8-.91,1.99-1.88,3.96-2.84,5.92-.16,.33-.22,.74-.68,.96-.24-.45-.49-.89-.72-1.35-.92-1.84-1.82-3.7-2.74-5.54-.17-.34-.29-.77-.77-.76-.83,.02-1.68-.16-2.62,.17,2.28,4.7,4.52,9.31,6.9,14.2,2.38-4.91,4.63-9.54,6.99-14.39Z"/>
      <path class="cls-1" d="M409.63,1.35c-1.15,0-1.16,.01-1.16,1.23,0,3.18,0,6.36,0,9.53,0,2.92,0,5.84,0,8.76,0,2.35,0,2.34,2.3,2.18,.47-.03,.73-.16,.7-.67-.02-.3,0-.6,0-.9,0-6.1,0-12.19,0-18.29,0-2.1,.32-1.82-1.83-1.84Z"/>
      <path class="cls-1" d="M272.93,10.53c.01,1.46-.13,1.42,1.38,1.41,.89,0,.91,.03,.92,.94,.01,1.5,0,3.01,0,4.51,0,.6,0,1.2,0,1.81,0,.6,0,1.2,.01,1.8,.05,2.36-.51,2,2.15,2.05,.55,0,.79-.18,.77-.74-.02-.56,0-1.12,0-1.68,0-2.58,0-5.16,0-7.73,0-.93,.03-.93,.92-.97,.13,0,.26,0,.39,0,1.7-.03,1.61,.34,1.6-1.7,0-.99-.03-.99-1.01-1.03q-1.91-.06-1.91-1.93c0-2.25-.04-2.28-2.29-2.05-.42,.04-.64,.17-.63,.61,.01,.56,0,1.12,0,1.67,0,1.56,0,1.59-1.51,1.64-.64,.02-.85,.27-.79,.86,.02,.17,0,.34,0,.52Z"/>
      <path class="cls-1" d="M275.23,12.88c.01,1.5,0,3.01,0,4.51,0,.6,0,1.2,0,1.81,0-.6,0-1.2,0-1.81,0-1.5,0-3.01,0-4.51Z"/>
      <path class="cls-1" d="M367.97,9.21q-1.82-.05-1.82-1.89c0-2.28,0-2.26-2.26-2.09-.48,.04-.7,.19-.69,.69,.02,.86-.01,1.72,0,2.58,.01,.5-.21,.65-.69,.69-1.66,.13-1.66,.14-1.6,1.83,0,.09,0,.17,0,.26-.04,.5,.22,.7,.7,.67,.26-.01,.52,.02,.77,0,.61-.06,.83,.19,.82,.81-.03,1.59-.01,3.18-.01,4.77,0,1.25-.01,2.49,0,3.74,.03,2.07-.32,1.78,1.88,1.8,1.04,0,1.05-.02,1.06-1.08,0-2.96,0-5.93,0-8.89,0-1.12,.01-1.12,1.12-1.14,1.84-.03,1.71,.35,1.71-1.72,0-.97-.02-.97-1.02-1Z"/>
      <path class="cls-1" d="M363.22,17.51c0-1.59-.02-3.18,.01-4.77-.03,1.59-.01,3.18-.01,4.77,0,1.25-.01,2.49,0,3.74-.02-1.25,0-2.49,0-3.74Z"/>
      <path class="cls-1" d="M195.1,23.04c.96,0,.98-.02,.98-1.02,0-3.26,0-6.52,0-9.79,0-2.96,0-5.92,0-8.88,0-2.18-.1-2.25-2.32-2.01-.44,.05-.61,.22-.59,.64,.01,.3,0,.6,0,.9,0,6.1-.01,12.19,0,18.29,0,2.14-.37,1.86,1.93,1.87Z"/>
      <path class="cls-1" d="M371.74,9.21c-.92,0-.94,.03-.95,.93,0,.99,0,1.98,0,2.97,0,.99,0,1.98,0,2.97,0,.86,0,1.72,0,2.58,0,.86,0,1.72,0,2.58,.02,2.05-.31,1.79,1.89,1.8,1.06,0,1.08-.02,1.08-1.06,0-3.61,.02-7.23,0-10.84-.01-2.18,.42-1.92-2.01-1.93Z"/>
      <path class="cls-1" d="M283.77,9.21c-.96,0-.98,.02-.98,1.03,0,3.61-.02,7.23,0,10.84,.02,2.25-.44,1.91,2.11,1.97,.7,.02,.87-.28,.86-.92-.03-2.02,0-4.04,0-6.06,0-1.63,.02-3.27,0-4.9-.03-2.21,.42-1.95-1.99-1.96Z"/>
      <path class="cls-1" d="M284.22,6.99c1.17,.03,2.26-.99,2.31-2.16,.05-1.22-1-2.34-2.24-2.36-1.16-.03-2.25,1-2.3,2.16-.06,1.23,.99,2.33,2.24,2.36Z"/>
      <path class="cls-1" d="M372.21,2.47c-1.17,.02-2.22,1.06-2.23,2.24-.02,1.23,1.07,2.3,2.31,2.29,1.18-.01,2.22-1.05,2.24-2.23,.02-1.21-1.09-2.31-2.31-2.29Z"/>
    </g>
  </g>
</svg>