<svg width="157" height="43" viewBox="0 0 157 43" fill="none" xmlns="http://www.w3.org/2000/svg">
<path d="M20.9299 0.939941C9.44993 0.939941 0.139893 10.25 0.139893 21.73C0.139893 33.21 9.44993 42.53 20.9299 42.53C32.4099 42.53 41.73 33.22 41.73 21.73C41.73 10.24 32.4199 0.939941 20.9299 0.939941ZM25.9099 29.21V30.84H20.1101V12.61H21.77V29.21H25.9099ZM33.25 34.04C29.96 37.33 25.5899 39.14 20.9299 39.14C16.2699 39.14 11.9101 37.33 8.62012 34.04C5.33012 30.75 3.52002 26.38 3.52002 21.73C3.52002 12.13 11.3299 4.31995 20.9299 4.31995C21.1399 4.31995 21.55 4.31997 21.77 4.33997V5.96997C21.57 5.95997 21.1199 5.94995 20.9299 5.94995C16.7199 5.94995 12.76 7.58995 9.78003 10.5699C6.80003 13.5599 5.1499 17.52 5.1499 21.73C5.1499 25.94 6.79003 29.91 9.78003 32.89C12.76 35.87 16.7199 37.52 20.9299 37.52C29.2799 37.52 36.1299 31.01 36.6899 22.8V22.5601H25.9099V20.9399H38.3401V21.73C38.3401 26.38 36.52 30.75 33.24 34.04H33.25ZM16.79 15.09C16.79 16.47 15.67 17.59 14.3 17.59C12.93 17.59 11.8101 16.47 11.8101 15.09C11.8101 13.71 12.93 12.6 14.3 12.6C15.67 12.6 16.79 13.71 16.79 15.09Z" fill="white"/>
<path d="M57.46 8.02002H51.2V35.11H70.4199V29.84H57.46V8.02002Z" fill="white"/>
<path d="M84.1899 24.7899H89.29V29.5299C88.35 29.8899 86.52 30.2499 84.77 30.2499C79.14 30.2499 77.26 27.3898 77.26 21.5798C77.26 15.7698 79.0499 12.7699 84.6799 12.7699C87.8099 12.7699 89.6001 13.7499 91.0701 15.6299L94.96 12.0599C92.59 8.65994 88.43 7.62988 84.54 7.62988C75.78 7.62988 71.1699 12.4099 71.1699 21.5299C71.1699 30.6499 75.33 35.5199 84.49 35.5199C88.69 35.5199 92.81 34.4499 95.04 32.8799V19.7399H84.1799V24.7899H84.1899Z" fill="white"/>
<path d="M142.21 11.3101V7.77002H139.02C137.12 7.77002 134.89 7.44998 133.64 6.97998L133 10.7C134.26 11.14 136.28 11.3101 137.59 11.3101H142.21Z" fill="white"/>
<path d="M113.46 11.49V7.94995H110.3C108.4 7.94995 106.09 7.62994 104.97 7.18994L104.3 10.88C105.56 11.26 107.67 11.5 109.16 11.5H113.46V11.49Z" fill="white"/>
<path d="M134.16 29.08H147.65V35.17H151.78C152.16 33.64 152.31 31.6 152.31 30.25V25.48H134.16V29.08Z" fill="white"/>
<path d="M152.31 13.83V7.70996H147.65V24.13H152.31V17.63H156.75V13.83H152.31Z" fill="white"/>
<path d="M123.86 7.71021H119.18V25.3302C117.3 26.3402 114.5 27.0503 111.8 27.0503V24.8003C115.01 24.2103 116.36 22.3503 116.36 19.6703C116.36 18.4203 115.91 17.3202 115.09 16.4502H118.01V12.9103H100.51V16.4502H103.73C102.91 17.3202 102.46 18.4203 102.46 19.6703C102.46 22.4103 103.87 24.2802 107.2 24.8302V27.0503H100.58V30.6202H111.15C113.99 30.6202 117.29 29.9802 119.17 28.9502V35.0103H123.27C123.65 33.4003 123.85 31.0002 123.85 28.8302V19.9003H128.27V15.9802H123.85V7.7002L123.86 7.71021ZM109.46 17.2502C111.22 17.2502 111.95 18.1603 111.95 19.5303C111.95 20.9003 111.22 21.8402 109.46 21.8402C107.7 21.8402 106.91 20.8803 106.91 19.5303C106.91 18.1803 107.67 17.2502 109.46 17.2502Z" fill="white"/>
<path d="M144.78 18.9801C144.78 17.8901 144.39 16.9001 143.68 16.0801H146.45V12.6201H129.33V16.0801H132.46C131.75 16.9001 131.35 17.8901 131.35 18.9801C131.35 22.0501 133.28 24.1301 138.05 24.1301C142.82 24.1301 144.78 22.0201 144.78 18.9801ZM135.53 18.8601C135.53 17.7201 136.23 16.7802 138.05 16.7802C139.87 16.7802 140.54 17.7201 140.54 18.8601C140.54 20.0001 139.78 20.9701 138.05 20.9701C136.24 20.9701 135.53 20.0401 135.53 18.8601Z" fill="white"/>
</svg>
