<svg width="29" height="51" viewBox="0 0 29 51" fill="none" xmlns="http://www.w3.org/2000/svg">
<path d="M6.45996 49.79V50.67H2.33984V43.79H3.43018V49.79H6.45996Z" fill="#606060"/>
<path d="M12.6099 50.3198C12.2899 50.4698 11.92 50.5799 11.5 50.6599C11.08 50.7399 10.6299 50.7799 10.1499 50.7799C9.0399 50.7799 8.23021 50.4799 7.72021 49.8699C7.20021 49.2599 6.9502 48.3799 6.9502 47.2299C6.9502 46.6199 7.03018 46.0999 7.18018 45.6499C7.33018 45.2099 7.54984 44.8399 7.83984 44.5399C8.11984 44.2499 8.46988 44.0299 8.87988 43.8799C9.28988 43.7299 9.74977 43.6699 10.2598 43.6699C10.7698 43.6699 11.2101 43.7499 11.6201 43.8999C12.0301 44.0499 12.3699 44.2899 12.6299 44.6199L11.96 45.2198C11.77 45.0098 11.5398 44.8398 11.2798 44.7098C11.0098 44.5798 10.6798 44.5099 10.2798 44.5099C9.51979 44.5099 8.95986 44.7498 8.60986 45.2198C8.25986 45.6898 8.08008 46.3899 8.08008 47.2999C8.08008 48.1499 8.24986 48.7999 8.60986 49.2299C8.95986 49.6599 9.49998 49.8799 10.23 49.8799C10.55 49.8799 10.8301 49.8599 11.0801 49.8099C11.2401 49.7799 11.4101 49.7498 11.5601 49.7098V47.8699H9.97998V47.0199H12.6299V50.3099L12.6099 50.3198Z" fill="#606060"/>
<path d="M16.8301 50.7797C15.7501 50.7797 14.9702 50.4696 14.4902 49.8796C14.0102 49.2896 13.77 48.3996 13.77 47.2296C13.77 46.0596 14.0398 45.1197 14.5898 44.5397C15.1398 43.9597 15.9202 43.6797 16.9302 43.6797C17.3502 43.6797 17.7702 43.7497 18.1802 43.8997C18.5902 44.0497 18.9202 44.2796 19.1802 44.5896L18.5298 45.2496C18.3298 45.0396 18.1101 44.8696 17.8701 44.7496C17.6301 44.6296 17.32 44.5696 16.96 44.5696C16.24 44.5696 15.7201 44.7997 15.3901 45.2697C15.0601 45.7397 14.8999 46.4296 14.8999 47.3396C14.8999 48.1696 15.0601 48.7996 15.3701 49.2196C15.6901 49.6396 16.1899 49.8496 16.8799 49.8496C17.2999 49.8496 17.67 49.8096 18 49.7196C18.33 49.6296 18.6201 49.5297 18.8901 49.4297L19.1602 50.2697C18.8802 50.4197 18.5401 50.5396 18.1201 50.6396C17.7101 50.7396 17.2798 50.7897 16.8398 50.7897L16.8301 50.7797Z" fill="#606060"/>
<path d="M20.2798 43.79H21.3701V50.67H20.2798V43.79Z" fill="#606060"/>
<path d="M23.96 50.67H22.8701V43.79H26.9902V44.67H23.96V46.7H26.7598V47.55H23.96V50.66V50.67Z" fill="#606060"/>
<path d="M6.08007 16.5002C6.95007 16.7902 7.22018 16.6502 7.20018 15.9302C7.27018 15.5802 7.14985 15.3401 6.85985 15.1001C6.16985 14.5201 5.89999 13.7502 5.99999 12.8602C6.01999 12.6502 6.10011 12.4601 6.37011 12.4701C6.65011 12.4801 6.67015 12.6802 6.66015 12.9002C6.66015 13.1402 6.5902 13.3902 6.7202 13.6302C6.7902 14.1102 7.05995 14.4601 7.45995 14.7301C7.86995 15.1001 8.35011 15.1802 8.87011 15.0402C9.08011 14.9802 9.26017 14.9601 9.43017 15.1001C9.47017 15.2701 9.47009 15.4202 9.35009 15.5602C9.12009 15.6502 8.89013 15.7202 8.64013 15.7602C8.39013 15.8002 8.04989 15.6001 7.89989 15.8301C7.74989 16.0601 7.95022 16.3702 7.99022 16.6402C8.01022 16.7802 7.99013 16.9602 8.14013 17.0602C8.24013 17.2302 8.31022 17.4302 8.49022 17.5502C8.60022 17.6702 8.69987 17.8001 8.87987 17.8201C8.93987 17.9401 9.04015 17.9802 9.16015 18.0102C9.85015 18.3602 10.5402 18.4602 11.2402 18.0102C11.6302 17.7602 11.7999 17.3901 11.8599 16.9501C11.8599 16.8501 11.8899 16.7402 11.8799 16.6402C11.8699 16.4202 11.8499 16.1902 12.1299 16.1402C12.3999 16.0902 12.4998 16.2802 12.5498 16.5102C12.5498 16.5102 12.5498 16.5601 12.5498 16.5901C12.5498 16.7201 12.5498 16.8401 12.5498 16.9701C12.5098 17.1601 12.4702 17.3402 12.4302 17.5302C12.2102 17.9835 12.2765 18.2668 12.6299 18.3802C13.0599 18.6202 13.5398 18.6902 14.0298 18.6602C14.2198 18.7502 14.4101 18.7402 14.6001 18.6602C14.9001 18.6602 15.1899 18.6202 15.46 18.4902C15.81 18.3702 16.1301 18.2002 16.3701 17.9102C16.5501 17.7302 16.7098 17.5302 16.7598 17.2702C16.8798 17.1702 16.9302 17.0402 16.9302 16.8902C17.0902 16.5402 17.14 16.1802 17.06 15.8002C16.7 14.1802 15.5201 13.3402 14.1401 12.6802C13.6501 12.4102 13.12 12.2702 12.56 12.2002C12.32 12.1702 11.9899 12.1602 12.1699 11.7502C12.2999 11.5302 12.5302 11.5502 12.7402 11.5502C13.9602 11.7502 15.0402 12.2602 15.9902 13.0402C16.1902 13.2102 16.3601 13.5002 16.5801 13.5402C16.8801 13.6002 16.8701 13.1402 17.1001 13.0002C17.5201 12.7402 17.47 12.3601 17.31 11.9801C17.04 11.3301 16.5301 10.9202 15.9101 10.6202C15.6201 10.4002 15.2799 10.3201 14.9399 10.2201C14.2699 10.0401 13.69 9.72018 13.23 9.20018C13.14 8.98018 12.93 8.74016 13.23 8.55016C13.55 8.34016 13.6598 8.65018 13.7998 8.83018C13.9798 9.05018 14.1899 9.23019 14.46 9.33018C14.96 9.53018 15.48 9.70018 15.98 9.89018C16.14 9.95018 16.1602 9.89018 16.1802 9.76018C16.3002 8.96018 16.8201 8.41014 17.4101 7.91014C17.6101 7.74014 17.8102 7.76017 17.9702 7.94017C18.1402 8.14017 18.0499 8.31017 17.8599 8.44017C17.6499 8.58017 17.44 8.70016 17.31 8.93016C16.65 9.70016 16.64 10.2101 17.31 10.7901C17.66 11.2201 18.01 11.6502 18.06 12.2402C18.06 12.3502 18.1302 12.3902 18.2402 12.4002C18.6902 12.4402 18.75 12.6702 18.52 13.0302C18.37 13.0602 18.2098 13.0802 18.0698 13.1202C17.5898 13.2702 17.16 13.7502 17.23 14.1802C17.32 14.7202 17.6698 15.1902 17.7598 15.7502C17.7598 15.7902 17.8501 15.8301 17.9101 15.8501C18.8301 16.1601 19.7301 16.2302 20.5801 15.6502C21.4101 15.0502 21.5299 14.0102 20.8599 13.2902C20.7199 13.1402 20.6502 13.0001 20.7002 12.7901C21.0302 12.5001 21.3 12.6902 21.46 12.9602C21.73 13.4302 22.0401 13.3001 22.3701 13.0901C22.5901 12.9501 22.8099 12.8102 22.9199 12.5502C23.4399 11.7602 23.37 10.5702 22.75 9.76018C21.87 8.62018 20.3199 8.57019 19.3599 9.65019C19.1999 9.81019 19.1398 10.0102 19.0698 10.2102C18.9998 10.4002 18.8901 10.5501 18.6601 10.4801C18.4101 10.4101 18.3902 10.2002 18.4502 10.0002C18.5002 9.82017 18.5701 9.66015 18.6401 9.48015C18.9701 8.93015 19.4798 8.61015 20.0498 8.36015C20.1898 8.33015 20.32 8.2802 20.46 8.2802C20.98 8.2802 20.8499 8.04017 20.6899 7.75017C20.3499 7.12017 19.7599 6.76014 19.1699 6.41014C16.8199 5.00014 14.3701 5.09018 11.9101 6.01018C10.7201 6.46018 9.93987 7.42016 9.37987 8.55016C9.28987 8.55016 9.19009 8.55016 9.10009 8.55016C8.89009 8.38016 8.92001 8.19014 9.02001 7.97014C9.19001 7.58014 9.45013 7.25017 9.64013 6.88017C8.36013 7.52017 7.12009 8.20017 6.35009 9.56017C6.86009 9.56017 7.28018 9.59017 7.70018 9.69017C7.86018 9.83017 8.01011 9.98018 7.87011 10.2002C7.74011 10.4002 7.53985 10.3402 7.35985 10.3002C7.32985 10.3002 7.30001 10.2802 7.27001 10.2802C6.06001 10.0302 5.05979 10.5102 4.54979 11.6302C3.94979 12.9502 4.03003 14.2602 4.79003 15.5002C5.09003 15.9902 5.46985 16.4302 6.10985 16.5002H6.08007ZM8.79003 12.3602V12.3802C8.79003 12.3802 8.78977 12.3802 8.77977 12.3802C8.77977 12.3802 8.78003 12.3802 8.79003 12.3802V12.3602Z" fill="#606060"/>
<path d="M18.6701 28.25C15.9301 28.25 13.1903 28.25 10.4503 28.25C10.0103 28.25 9.68027 28.5399 9.64027 28.9399C9.60027 29.3699 9.74033 29.71 10.2003 29.83C10.3603 29.91 10.5403 29.88 10.7003 29.88C13.2603 29.88 15.8103 29.88 18.3703 29.88C18.5403 29.88 18.71 29.86 18.88 29.84C19.35 29.67 19.5604 29.3499 19.4904 28.9399C19.4204 28.5299 19.1201 28.26 18.6701 28.25Z" fill="#606060"/>
<path d="M17.71 30.46C15.61 30.46 13.5099 30.46 11.4199 30.46C10.7999 30.46 10.4502 30.76 10.4502 31.28C10.4502 31.79 10.7999 32.09 11.4199 32.1C12.4599 32.1 13.5 32.1 14.54 32.1C15.6 32.1 16.65 32.1 17.71 32.1C18.32 32.1 18.6802 31.78 18.6802 31.28C18.6802 30.77 18.3302 30.47 17.7002 30.47L17.71 30.46Z" fill="#606060"/>
<path d="M17.1802 32.7799C15.4502 32.7999 13.73 32.7799 12 32.7799C11.53 32.7799 11.47 32.8599 11.73 33.2699C12.38 34.2999 13.3801 34.7299 14.5401 34.8799C15.7401 34.7299 16.76 34.2899 17.42 33.2199C17.59 32.9499 17.6502 32.7599 17.1802 32.7699V32.7799Z" fill="#606060"/>
<path d="M23.5801 12.6699C23.5001 12.8099 23.4401 12.96 23.3301 13.06C23.1201 13.25 23.15 13.4499 23.21 13.6899C23.6 15.1799 23.5802 16.67 23.1802 18.16C23.0602 18.51 22.9398 18.8499 22.8198 19.1999C22.5598 19.8599 22.2501 20.4999 21.8701 21.1099C21.3201 21.9999 20.7499 22.88 20.1899 23.77C19.6799 24.48 19.5602 25.31 19.4102 26.14C19.3402 26.51 19.1798 26.6099 18.8198 26.6099C15.9898 26.5999 13.1601 26.5899 10.3301 26.6099C9.93008 26.6099 9.77998 26.4799 9.72998 26.0999C9.56998 24.8899 9.10012 23.8099 8.37012 22.8299C7.70012 21.9299 7.1299 20.9699 6.6499 19.9599C6.4399 19.4599 6.23002 18.9499 6.02002 18.4499C5.92002 18.1099 5.82021 17.7799 5.72021 17.4399C5.73021 17.1199 5.48977 16.9999 5.25977 16.8799C5.05977 16.7299 4.84986 16.58 4.60986 16.41C4.65986 17.21 4.8 17.93 5 18.64C5.12 18.96 5.2301 19.2799 5.3501 19.5899C5.8001 20.7699 6.4199 21.87 7.1499 22.9C7.9399 24.02 8.59002 25.17 8.77002 26.56C8.87002 27.31 9.34986 27.67 10.1099 27.67C13.0999 27.68 16.0798 27.69 19.0698 27.67C19.8298 27.67 20.2299 27.3 20.3999 26.55C20.5599 25.87 20.6602 25.17 20.9302 24.53C21.2802 24 21.6402 23.4699 21.9902 22.9399C22.6702 21.8999 23.3298 20.85 23.7598 19.68C24.8398 17.22 24.8201 14.7499 23.8301 12.1899C23.7301 12.4099 23.6701 12.5599 23.6001 12.6899L23.5801 12.6699Z" fill="#606060"/>
<path d="M9.02992 19.9C9.93992 20.03 10.8102 19.99 11.5202 19.29C11.5902 19.24 11.6901 19.2 11.7301 19.12C11.8001 19 12.1003 19.0001 11.9503 18.8001C11.8503 18.6701 11.6603 18.56 11.4503 18.65C11.3703 18.69 11.2901 18.74 11.2101 18.79C10.5901 18.99 9.97023 18.9701 9.35023 18.8101C9.13023 18.7201 8.91008 18.63 8.69008 18.54C8.39008 18.34 8.11 18.13 7.86 17.87C7.77 17.75 7.72021 17.59 7.58021 17.51C7.53021 17.22 7.43023 17.03 7.10023 17.24C6.53357 17.24 6.34016 17.4301 6.52016 17.8101C6.54016 18.0601 6.70996 18.24 6.81996 18.45C6.99996 18.79 7.2602 19.06 7.5602 19.29C7.6502 19.35 7.74998 19.42 7.83998 19.48C7.85998 19.5 7.89029 19.51 7.91029 19.52C8.01029 19.57 8.11035 19.6201 8.22035 19.6701C8.48035 19.7501 8.7399 19.87 9.0099 19.91L9.02992 19.9Z" fill="#606060"/>
<path d="M14.5296 3.06013C14.7196 3.04013 14.84 2.93012 14.85 2.73012C14.85 2.48012 14.85 2.23013 14.85 1.99013C14.85 1.74013 14.85 1.49014 14.85 1.25014C14.85 1.03014 14.7099 0.900152 14.4999 0.890152C14.2799 0.880152 14.1397 1.02012 14.1297 1.23012C14.1097 1.74012 14.1097 2.25015 14.1297 2.76015C14.1297 2.97015 14.3099 3.08014 14.5199 3.07014L14.5296 3.06013Z" fill="#606060"/>
<path d="M1.81028 19.6901C1.33028 19.8201 0.870127 19.9802 0.400127 20.1402C0.210127 20.2102 0.100147 20.3701 0.170147 20.5801C0.240147 20.8001 0.410362 20.9001 0.640362 20.8301C1.10036 20.6901 1.55022 20.5402 2.00022 20.3802C2.16022 20.3302 2.25022 20.2102 2.25022 20.0102C2.21022 19.7702 2.06003 19.6202 1.80003 19.6802L1.81028 19.6901Z" fill="#606060"/>
<path d="M28.66 20.1799C28.16 19.9899 27.6397 19.8299 27.1497 19.6699C26.9297 19.6999 26.79 19.7798 26.74 19.9698C26.7 20.1398 26.77 20.2999 26.93 20.3599C27.42 20.5399 27.92 20.7099 28.43 20.8599C28.62 20.9199 28.7599 20.7899 28.8299 20.6199C28.9099 20.4299 28.83 20.2498 28.66 20.1898V20.1799Z" fill="#606060"/>
<path d="M6.37966 5.41002C6.52966 5.61002 6.72971 5.68006 6.93971 5.51006C7.12971 5.36006 7.10975 5.16003 6.97975 4.98003C6.71975 4.62003 6.44971 4.26006 6.18971 3.89006C6.09971 3.77006 5.98962 3.69006 5.83962 3.70006C5.54962 3.71006 5.3996 4.01008 5.5696 4.28008C5.8196 4.67008 6.09966 5.04002 6.37966 5.41002Z" fill="#606060"/>
<path d="M22.0803 5.53017C22.2803 5.67017 22.47 5.59011 22.61 5.41011C22.88 5.05011 23.1401 4.68014 23.4001 4.31014C23.4501 4.24014 23.4704 4.14017 23.4904 4.09017C23.4904 3.90017 23.42 3.78011 23.28 3.72011C23.12 3.65011 22.96 3.69015 22.86 3.82015C22.57 4.20015 22.2799 4.59013 22.0099 4.99013C21.8799 5.18013 21.8803 5.38017 22.0803 5.53017Z" fill="#606060"/>
<path d="M27.2298 12.2002C27.6298 12.0602 28.1497 11.9102 28.6497 11.7102C28.8097 11.6502 28.8997 11.4802 28.8197 11.2902C28.7397 11.1102 28.6 11.0102 28.41 11.0602C27.91 11.2102 27.4098 11.3702 26.9198 11.5402C26.7598 11.6002 26.6901 11.7502 26.7401 11.9202C26.7901 12.1002 26.9198 12.2002 27.2298 12.1902V12.2002Z" fill="#606060"/>
<path d="M6.85019 26.3202C6.67019 26.2402 6.51 26.3002 6.4 26.4502C6.13 26.8102 5.87019 27.1703 5.60019 27.5303C5.45019 27.7303 5.41021 27.9402 5.62021 28.1002C5.85021 28.2702 6.05005 28.1702 6.21005 27.9502C6.46005 27.6002 6.72031 27.2503 6.97031 26.9003C7.02031 26.8303 7.05017 26.7403 7.08017 26.6703C7.05017 26.5003 6.98019 26.3802 6.85019 26.3202Z" fill="#606060"/>
<path d="M2.05005 11.5401C1.56005 11.3601 1.06014 11.2001 0.650144 11.0701C0.350144 11.0401 0.210164 11.1301 0.170164 11.3201C0.130164 11.5001 0.170359 11.6701 0.370359 11.7401C0.850359 11.9001 1.34032 12.0601 1.83032 12.2001C2.02032 12.2501 2.17022 12.1501 2.23022 11.9701C2.30022 11.7801 2.23005 11.6101 2.05005 11.5401Z" fill="#606060"/>
<path d="M22.4701 26.3599C22.3501 26.2399 22.1797 26.2599 22.0497 26.3799C21.8997 26.5099 21.8798 26.6899 21.9798 26.8399C22.2598 27.2499 22.5499 27.65 22.8499 28.05C22.9499 28.19 23.1099 28.21 23.2699 28.16C23.4199 28.11 23.4801 27.9899 23.4901 27.8299C23.4901 27.7899 23.4901 27.7399 23.4701 27.6999C23.1801 27.2299 22.8598 26.7699 22.4798 26.3599H22.4701Z" fill="#606060"/>
</svg>
