<svg width="31" height="49" viewBox="0 0 31 49" fill="none" xmlns="http://www.w3.org/2000/svg">
<path d="M10.9702 42.0002C11.5202 42.0002 12.0099 42.0602 12.4399 42.1902C12.8699 42.3202 13.23 42.5203 13.52 42.7903C13.81 43.0703 14.0399 43.4202 14.1899 43.8602C14.3399 44.3002 14.4199 44.8302 14.4199 45.4602C14.4199 46.0902 14.3301 46.6602 14.1401 47.0902C13.9501 47.5302 13.6899 47.8803 13.3599 48.1403C13.0299 48.4103 12.6302 48.5902 12.1802 48.7002C11.7202 48.8102 11.2299 48.8702 10.6899 48.8702H8.87988V41.9902H10.9702V42.0002ZM10.6699 48.0002C11.0799 48.0002 11.45 47.9602 11.77 47.8802C12.09 47.8002 12.3698 47.6602 12.5898 47.4502C12.8098 47.2402 12.9899 46.9702 13.1099 46.6302C13.2299 46.2902 13.29 45.8602 13.29 45.3502C13.29 44.5002 13.0899 43.8702 12.6899 43.4802C12.2899 43.0802 11.7102 42.8903 10.9702 42.8903H9.97998V48.0103H10.6699V48.0002Z" fill="#606060"/>
<path d="M17.8999 45.91L16.21 48.88H14.98L17.1099 45.35L15.1201 42H16.3901L17.9302 44.75H18.1401L19.7002 42H20.9199L18.9399 45.33L21.0801 48.88H19.8301L18.1299 45.91H17.9199H17.8999Z" fill="#606060"/>
<path d="M0.540217 24.5802C0.160217 25.4202 0.310412 25.6502 1.24041 25.6502C1.82041 25.6502 2.40016 25.6802 2.98016 25.6502C3.41016 25.6202 3.51018 25.7901 3.50018 26.1901C3.47018 27.1701 3.49018 28.1602 3.50018 29.1402C3.51018 30.4302 4.16012 31.0802 5.44012 31.0902C6.09012 31.0902 6.73006 31.1102 7.38006 31.0902C7.72006 31.0802 7.86002 31.1802 7.84002 31.5402C7.81002 32.0502 7.86026 32.5702 7.83026 33.0802C7.79026 33.6902 8.04008 33.9202 8.65008 33.9102C10.5001 33.8902 12.3501 33.9102 14.2101 33.9102C16.0701 33.9102 17.8704 33.9002 19.7004 33.9102C20.2704 33.9102 20.5303 33.7202 20.6403 33.1402C21.1403 30.4502 22.3102 28.1602 24.2502 26.1402C27.6002 22.6502 28.3701 18.4303 26.7101 13.9303C25.0301 9.39025 21.68 6.71024 16.8 6.17024C9.87998 5.41024 3.92002 10.5901 3.59002 17.5701C3.58002 17.8501 3.49006 18.0902 3.38006 18.3302C2.43006 20.4202 1.48998 22.5002 0.549982 24.5902L0.540217 24.5802ZM7.32 14.6901C7.32 12.2201 9.33994 10.5402 11.5099 10.9602C11.8499 11.0302 12.0004 10.9602 12.2004 10.6602C12.9904 9.47023 14.4403 9.12026 15.6603 9.81026C15.9803 9.99026 16.1404 9.98021 16.4504 9.76021C17.6704 8.85021 19.6002 9.4402 20.0202 10.8802C20.1402 11.3002 20.3104 11.4202 20.7004 11.4902C22.7904 11.8702 24.1503 13.7902 23.8303 15.9102C23.7703 16.2802 23.8603 16.5102 24.1003 16.7902C25.0103 17.8402 24.77 19.5102 23.59 20.2302C23.25 20.4402 23.1 20.6602 23.03 21.0302C22.83 22.0902 21.9403 22.8802 20.8903 22.9102C19.8603 22.9302 19.2703 23.4902 18.8903 24.3602C18.6803 24.8302 18.5 25.3102 18.28 25.7602C18.03 26.2602 17.63 26.4801 17.07 26.3201C16.53 26.1701 16.3203 25.8002 16.3503 25.2702C16.3703 24.9802 16.3803 24.6902 16.4103 24.4002C16.4803 23.7002 16.2103 23.1902 15.6003 22.8502C15.1303 22.5902 14.65 22.3402 14.32 21.9002C14.17 21.7002 13.98 21.7402 13.78 21.7302C12.45 21.6802 11.4102 20.9402 11.0202 19.7002C10.9102 19.3602 10.8104 19.2602 10.4504 19.2602C9.46037 19.2602 8.59016 18.8603 8.23016 17.9303C7.80016 16.8103 7.58002 15.6101 7.34002 14.6901H7.32Z" fill="#606060"/>
<path d="M27.76 10.3801C28.43 9.99013 29.1103 9.6101 29.7903 9.2301C29.8803 9.1801 29.99 9.14012 30.05 9.12012C30.36 9.12012 30.5301 9.2601 30.6101 9.4801C30.7301 9.7801 30.5701 10.0001 30.3201 10.1501C29.6501 10.5401 28.97 10.9102 28.3 11.3002C27.99 11.4802 27.6805 11.5002 27.4905 11.1702C27.3105 10.8502 27.46 10.5601 27.76 10.3801Z" fill="#606060"/>
<path d="M10.8398 5.06992C10.6098 5.16992 10.35 5.11999 10.25 4.88999C9.88 4.00999 9.55021 3.12001 9.22021 2.29001C9.27021 1.98001 9.35986 1.78993 9.60986 1.70993C9.88986 1.61993 10.1302 1.72994 10.2202 1.96994C10.5502 2.79994 10.8599 3.62994 11.1499 4.46994C11.2399 4.72994 11.0798 4.96003 10.8398 5.06003V5.06992Z" fill="#606060"/>
<path d="M2.77002 11.2603C2.11002 10.8803 1.4598 10.5103 0.799805 10.1303C0.589805 10.0103 0.450195 9.85024 0.450195 9.69024C0.450195 9.15024 0.840078 8.95026 1.33008 9.21026C2.00008 9.56026 2.65006 9.95025 3.31006 10.3303C3.63006 10.5103 3.74982 10.7903 3.56982 11.1203C3.37982 11.4703 3.08002 11.4403 2.77002 11.2603Z" fill="#606060"/>
<path d="M20.8397 4.8704C20.7497 5.0804 20.4997 5.16035 20.2597 5.07035C19.9997 4.97035 19.8401 4.75039 19.9301 4.49039C20.2201 3.63039 20.5398 2.78046 20.8798 1.93046C20.9798 1.69046 21.2299 1.61037 21.4999 1.72037C21.7399 1.82037 21.83 2.01039 21.81 2.36039C21.52 3.13039 21.1997 4.00039 20.8397 4.86039V4.8704Z" fill="#606060"/>
<path d="M6.27004 7.56003C6.27004 7.56003 6.11007 7.55997 6.06007 7.49997C5.45007 6.78997 4.84004 6.08995 4.27004 5.34995C4.12004 5.14995 4.23023 4.86995 4.47023 4.71995C4.71023 4.55995 4.9499 4.59002 5.1299 4.80002C5.6699 5.42002 6.19023 6.05992 6.72023 6.68992C6.88023 6.87992 6.87978 7.10003 6.75978 7.31003C6.65978 7.48003 6.50004 7.55003 6.27004 7.56003Z" fill="#606060"/>
<path d="M25.2298 7.34033C25.0298 7.58033 24.7598 7.72035 24.4798 7.48035C24.1898 7.23035 24.2198 6.9504 24.4598 6.6604C24.9498 6.0804 25.4397 5.50041 25.9197 4.92041C26.0597 4.76041 26.22 4.65039 26.43 4.65039C26.84 4.67039 27.0498 5.14036 26.7698 5.49036C26.2798 6.12036 25.7498 6.73033 25.2298 7.34033Z" fill="#606060"/>
<path d="M16.0602 2.40024C16.0602 2.84024 16.0602 3.2902 16.0602 3.7302C16.0602 4.0502 15.8399 4.2302 15.5499 4.2302C15.2399 4.2302 15.0599 4.04019 15.0499 3.72019C15.0499 2.88019 15.0299 2.03016 15.0499 1.19016C15.0499 0.860157 15.2299 0.650259 15.5899 0.670259C15.9199 0.690259 16.0602 0.890167 16.0602 1.20017C16.0602 1.60017 16.0602 2.00024 16.0602 2.40024Z" fill="#606060"/>
<path d="M10.74 11.9202C12.65 11.9902 13.9099 13.7702 13.3699 15.6302C13.2699 15.9802 13.2197 16.3201 13.6297 16.4701C14.0497 16.6201 14.2296 16.3201 14.3396 15.9701C14.4596 15.5901 14.5596 15.1902 14.5296 14.7902C14.4896 14.3302 14.7396 14.3902 15.0096 14.5002C15.5296 14.7102 15.7098 15.1402 15.7898 15.6602C15.8398 16.0102 16.02 16.2601 16.41 16.1901C16.79 16.1201 16.8899 15.8301 16.8299 15.4801C16.6999 14.7001 16.4097 13.8601 15.6297 13.6901C14.5397 13.4601 13.9296 12.7702 13.2796 12.0002C12.7896 11.4202 12.7798 11.1302 13.4798 10.7702C14.0598 10.4702 14.7998 10.5702 15.2898 11.0202C15.7765 11.4668 16.223 11.4302 16.6297 10.9102C17.0597 10.3602 17.8697 10.2902 18.4197 10.7602C18.9497 11.2102 18.9399 11.6202 18.3899 12.2502C17.5499 13.2002 17.9799 15.0801 19.1399 15.5701C19.4399 15.7001 19.7197 15.7102 19.8797 15.3702C20.0197 15.0702 19.9397 14.8102 19.6297 14.6302C19.5097 14.5602 19.3898 14.5102 19.2898 14.4202C18.8998 14.0802 18.8496 13.6401 19.0096 13.2001C19.1696 12.7701 19.51 12.5302 19.99 12.5302C21.58 12.5302 22.9898 14.4101 22.4798 15.9401C22.2698 16.5601 22.1499 17.0301 22.8899 17.3401C23.0099 17.3901 23.1 17.5601 23.18 17.7001C23.44 18.1901 23.3297 18.9601 22.8997 19.2201C22.3297 19.5501 22.4197 18.8402 22.1497 18.6702C21.6997 18.4002 21.46 18.0002 21.49 17.4102C21.51 17.0002 21.28 16.6002 20.95 16.2902C20.71 16.0602 20.43 16.0002 20.18 16.2502C19.97 16.4602 19.9799 16.7101 20.16 16.9701C20.66 17.6901 20.6599 17.6901 19.8299 17.8301C19.7599 17.8401 19.6997 17.8501 19.6297 17.8601C19.2897 17.9101 19.0899 18.1201 19.1399 18.4501C19.1899 18.7801 19.4396 18.9302 19.7796 18.9002C19.9796 18.8802 20.1797 18.8301 20.3797 18.8501C21.3397 18.9101 21.9096 19.6602 21.7996 20.6702C21.6896 21.5802 21.1599 21.9201 20.1199 21.7001C19.9299 21.6601 19.7599 21.6602 19.6199 21.7802C18.7999 22.4602 17.9097 23.0701 17.6097 24.1901C17.5597 24.3801 17.5096 24.6101 17.2796 24.7301C17.4796 23.2601 16.9296 22.2201 15.5896 21.5701C14.7996 21.1801 14.6298 20.5702 14.9998 19.7902C15.4398 18.8302 16.1498 18.4801 17.2098 18.6901C17.5398 18.7601 17.86 18.7801 17.95 18.3601C18.04 17.9701 17.7898 17.7901 17.4598 17.7001C16.7898 17.5101 16.1296 17.5001 15.5096 17.8301C15.2196 17.9801 15.0599 17.9701 14.8499 17.7201C14.5599 17.3901 14.1798 17.2001 13.7298 17.1901C13.3498 17.1901 12.8896 17.1402 12.8396 17.6602C12.7896 18.1702 13.1599 18.2302 13.5999 18.2502C14.2099 18.2802 14.3797 18.6702 14.1097 19.2502C13.9697 19.5502 13.7996 19.8701 13.7796 20.1901C13.7496 20.6601 13.49 20.6102 13.2 20.5502C12.38 20.3802 11.7998 19.5902 11.7898 18.6702C11.7898 17.9302 11.5997 17.7902 10.9197 18.0102C9.80972 18.3702 8.85958 17.7102 8.77958 16.5202C8.70958 15.5602 9.18966 15.1402 10.1097 15.4002C10.4897 15.5102 10.8496 15.4002 10.8196 15.0602C10.7496 14.4002 11.07 13.8002 10.95 13.1502C10.88 12.7902 10.8397 12.3702 10.3597 12.4102C9.83966 12.4502 9.83972 12.8502 9.91972 13.2702C10.0197 13.7902 9.91981 14.2002 9.26981 14.2502C8.89981 14.2802 8.62983 14.5202 8.28983 14.7902C8.05983 13.0902 9.10977 11.9201 10.7298 11.9801L10.74 11.9202Z" fill="#606060"/>
</svg>
