<svg width="34" height="48" viewBox="0 0 34 48" fill="none" xmlns="http://www.w3.org/2000/svg">
<path d="M6.43994 43.6301C6.13994 43.8101 5.78014 43.9401 5.39014 44.0101C4.99014 44.0801 4.59996 44.1201 4.20996 44.1201H0.75V43.3002H2.85986V42.6702C2.41986 42.6002 2.09014 42.4501 1.89014 42.2101C1.68014 41.9801 1.58008 41.6901 1.58008 41.3501C1.58008 41.0101 1.68992 40.7301 1.91992 40.5101H0.850098V39.7201H5.9502V40.5101H4.87012C5.10012 40.7401 5.22021 41.0301 5.22021 41.3501C5.22021 41.7001 5.1099 41.9901 4.8999 42.2201C4.6899 42.4501 4.3499 42.6102 3.8999 42.6802V43.3002H4.00977C4.44977 43.3002 4.86979 43.2701 5.27979 43.2101C5.68979 43.1501 6.07994 43.0201 6.43994 42.8401V38.2902H7.49023V40.8002H8.87988V41.6401H7.49023V43.5201C7.49023 43.6201 7.48998 43.7401 7.47998 43.8601C7.47998 43.9901 7.4602 44.1201 7.4502 44.2501C7.4402 44.3801 7.4199 44.5101 7.3999 44.6301C7.3799 44.7501 7.35984 44.8601 7.33984 44.9601H6.43994V43.6301ZM2.22021 38.1802C2.42021 38.2702 2.64992 38.3401 2.91992 38.3901C3.18992 38.4401 3.46023 38.4701 3.74023 38.4701H4.68018V39.2601H3.56006C3.29006 39.2601 3.03002 39.2401 2.77002 39.2001C2.51002 39.1601 2.27984 39.1002 2.08984 39.0302L2.22021 38.1901V38.1802ZM2.5 44.6401H3.5498V46.1301C3.5498 46.2001 3.54982 46.2401 3.56982 46.2601C3.58982 46.2801 3.62994 46.2802 3.68994 46.2802H7.81982V47.1602H3.1499C2.9399 47.1602 2.77992 47.1101 2.66992 47.0101C2.55992 46.9101 2.5 46.7401 2.5 46.5201V44.6401ZM2.54004 41.3102C2.54004 41.7902 2.83016 42.0302 3.41016 42.0302C3.99016 42.0302 4.25977 41.7902 4.25977 41.3102C4.25977 40.8602 3.97016 40.6401 3.41016 40.6401C2.85016 40.6401 2.54004 40.8702 2.54004 41.3102Z" fill="#606060"/>
<path d="M16.5298 38.29V42.23C16.5298 42.41 16.53 42.61 16.5 42.83C16.48 43.05 16.4502 43.27 16.4102 43.47H15.4702V42.17H13.6602V41.29H15.4702V40.3199H13.7002C13.6702 40.6899 13.5699 41.0201 13.4199 41.3101C13.2599 41.5901 13.03 41.86 12.73 42.11C12.43 42.36 12.0498 42.61 11.5898 42.85C11.1298 43.09 10.59 43.35 9.95996 43.64C9.88996 43.52 9.83002 43.4 9.77002 43.27C9.71002 43.15 9.6601 43.02 9.6001 42.89C10.1101 42.68 10.5599 42.46 10.9399 42.25C11.3199 42.04 11.6401 41.83 11.8901 41.61C12.1401 41.39 12.33 41.1701 12.46 40.9301C12.59 40.6901 12.6499 40.44 12.6499 40.16V39.5601H9.87012V38.6801H13.7202V39.4399H15.4702V38.29H16.52H16.5298ZM11.71 45.4301C11.71 45.1801 11.7498 44.94 11.8398 44.71C11.9198 44.48 12.06 44.28 12.25 44.11C12.44 43.94 12.6802 43.81 12.9902 43.71C13.2902 43.61 13.6601 43.5601 14.1001 43.5601C14.5401 43.5601 14.91 43.61 15.21 43.71C15.51 43.81 15.76 43.94 15.96 44.11C16.15 44.28 16.2899 44.48 16.3799 44.71C16.4699 44.94 16.5098 45.1801 16.5098 45.4301C16.5098 45.6801 16.4699 45.92 16.3799 46.15C16.2899 46.38 16.16 46.58 15.96 46.75C15.77 46.92 15.52 47.06 15.21 47.15C14.91 47.25 14.5401 47.3 14.1001 47.3C13.6601 47.3 13.3002 47.25 12.9902 47.15C12.6902 47.05 12.44 46.92 12.25 46.75C12.06 46.58 11.9198 46.38 11.8398 46.15C11.7498 45.92 11.71 45.6801 11.71 45.4301ZM12.77 45.4301C12.77 46.1401 13.2101 46.5 14.1001 46.5C14.9901 46.5 15.4199 46.1401 15.4199 45.4301C15.4199 45.0901 15.3098 44.83 15.0898 44.64C14.8698 44.46 14.5401 44.37 14.1001 44.37C13.6601 44.37 13.3299 44.46 13.1099 44.64C12.8899 44.82 12.77 45.0901 12.77 45.4301Z" fill="#606060"/>
<path d="M17.8799 40.8402C17.8799 40.5502 17.9198 40.2803 18.0098 40.0203C18.0998 39.7703 18.2302 39.5502 18.4102 39.3602C18.5902 39.1702 18.8301 39.0203 19.1201 38.9103C19.4101 38.8003 19.7599 38.7402 20.1699 38.7402C20.5799 38.7402 20.93 38.8003 21.23 38.9103C21.52 39.0203 21.7702 39.1702 21.9502 39.3602C22.1402 39.5502 22.2699 39.7703 22.3599 40.0203C22.4499 40.2703 22.4902 40.5502 22.4902 40.8402C22.4902 41.1302 22.4499 41.4003 22.3599 41.6603C22.2699 41.9203 22.1402 42.1402 21.9502 42.3302C21.7602 42.5202 21.52 42.6703 21.23 42.7803C20.94 42.8903 20.5799 42.9502 20.1699 42.9502C19.7599 42.9502 19.4101 42.9003 19.1201 42.7803C18.8301 42.6703 18.5902 42.5202 18.4102 42.3302C18.2302 42.1402 18.0898 41.9203 18.0098 41.6603C17.9198 41.4003 17.8799 41.1302 17.8799 40.8402ZM18.9302 40.8402C18.9302 41.7002 19.3399 42.1302 20.1699 42.1302C20.9999 42.1302 21.4302 41.7002 21.4302 40.8402C21.4302 40.4302 21.3199 40.1103 21.1099 39.8903C20.8999 39.6703 20.5799 39.5603 20.1699 39.5603C19.7599 39.5603 19.43 39.6703 19.23 39.8903C19.03 40.1103 18.9302 40.4302 18.9302 40.8402ZM19.5498 43.8502H20.6001V46.0403C20.6001 46.1103 20.5999 46.1603 20.6299 46.1803C20.6499 46.2003 20.6898 46.2102 20.7598 46.2102H24.7998V47.0902H20.1499C19.7399 47.0902 19.54 46.8902 19.54 46.4902V43.8402L19.5498 43.8502ZM23.48 38.3003H24.5298V40.4902H25.9199V41.3702H24.5298V43.1603C24.5298 43.2603 24.5298 43.3702 24.5298 43.5002C24.5298 43.6202 24.51 43.7502 24.5 43.8802C24.49 44.0102 24.4702 44.1303 24.4502 44.2603C24.4302 44.3803 24.4101 44.4902 24.3901 44.5802H23.48V38.3003Z" fill="#606060"/>
<path d="M31.2002 38.7703V39.6002H29.5098V40.1403C29.5098 40.4603 29.5602 40.7502 29.6602 41.0002C29.7602 41.2502 29.9001 41.4703 30.0801 41.6503C30.2601 41.8403 30.48 41.9902 30.73 42.1202C30.98 42.2502 31.2598 42.3403 31.5698 42.4103C31.4898 42.5603 31.4198 42.7102 31.3398 42.8602C31.2598 43.0102 31.1798 43.1603 31.0898 43.3003C30.8898 43.2403 30.6902 43.1603 30.4902 43.0603C30.2902 42.9603 30.0999 42.8502 29.9199 42.7102C29.7399 42.5802 29.5802 42.4303 29.4302 42.2703C29.2802 42.1103 29.1598 41.9302 29.0698 41.7402C28.8898 42.1302 28.61 42.4602 28.25 42.7302C27.89 43.0002 27.4499 43.2102 26.9399 43.3602L26.5801 42.6703C26.9201 42.5503 27.2102 42.4103 27.4502 42.2603C27.6902 42.1103 27.8798 41.9302 28.0298 41.7302C28.1798 41.5302 28.2801 41.3003 28.3501 41.0403C28.4101 40.7803 28.4502 40.4803 28.4502 40.1503V39.5902H26.77V38.7603H31.23L31.2002 38.7703ZM33.8701 47.0902H29.1802C28.9802 47.0902 28.8202 47.0403 28.7002 46.9303C28.5802 46.8203 28.52 46.6702 28.52 46.4502V44.0103H29.5601V46.0403C29.5601 46.1103 29.5598 46.1503 29.5898 46.1703C29.6098 46.1903 29.6502 46.2002 29.7202 46.2002H33.8701V47.0802V47.0902ZM33.5801 43.2903C33.5801 43.3803 33.5801 43.4902 33.5801 43.6202C33.5801 43.7402 33.5598 43.8702 33.5498 44.0002C33.5298 44.1302 33.52 44.2602 33.5 44.3802C33.48 44.5002 33.4702 44.6102 33.4502 44.7102H32.54V41.2302H30.8799V40.3502H32.54V38.3003H33.5898V43.3003L33.5801 43.2903Z" fill="#606060"/>
<path d="M32.2498 7.8302C29.3598 6.4302 27.6496 4.1603 27.2796 0.930298C27.2096 0.320298 26.8998 0.0302734 26.2898 0.0302734C25.4098 0.0302734 24.5297 0.030293 23.6497 0.050293C18.6597 0.050293 13.6797 0.0402734 8.68974 0.0302734C8.10974 0.0302734 7.84958 0.350298 7.77958 0.930298C7.35958 4.0903 5.75992 6.4203 2.86992 7.8103C2.04992 8.2103 1.76995 8.65028 1.90995 9.54028C2.05995 10.4503 2.18968 11.3602 2.37968 12.2502C3.79968 18.9202 6.81999 24.6603 12.2 29.0103C13.67 30.2003 15.2398 31.2302 16.9798 31.9802C17.3298 32.3302 17.6699 32.2203 18.0599 32.0203C24.1999 29.0103 28.3797 24.2003 30.9397 17.9303C32.0697 15.1703 32.8297 12.3102 33.1097 9.32019C33.1797 8.60019 32.8998 8.13019 32.2498 7.82019V7.8302ZM30.43 10.9502C29.66 14.9602 28.2998 18.7302 25.9598 22.1102C25.7998 22.3402 25.5697 22.5603 25.6497 22.9003C25.6497 22.9003 25.6497 22.9003 25.6497 22.9103C25.2297 22.9103 25.0997 23.3103 24.8997 23.5603C23.2197 25.6803 21.16 27.3402 18.91 28.8302C17.77 29.5902 16.8998 29.5003 15.9598 28.6803C14.6798 27.8803 13.4699 26.9802 12.3699 25.9402C10.1899 23.9002 8.48972 21.5002 7.16972 18.8302C5.84972 16.1602 4.98982 13.3503 4.51982 10.4103C4.44982 10.0003 4.5597 9.72024 4.8997 9.50024C5.1097 9.37024 5.31958 9.2202 5.52958 9.0802C7.63958 7.6702 8.98956 5.71019 9.75956 3.32019C10.0296 2.48019 10.04 2.46021 10.95 2.46021C14.59 2.46021 18.2397 2.46021 21.8797 2.46021C22.5797 2.44021 23.2898 2.59021 23.9798 2.34021C23.9798 2.30021 23.9998 2.25021 23.9998 2.21021C23.9998 2.22021 23.9996 2.24024 24.0096 2.25024C24.0996 2.39024 24.2499 2.43029 24.3899 2.42029C24.9099 2.42029 25.0998 2.72029 25.2298 3.17029C25.9798 5.72029 27.4897 7.72019 29.6897 9.19019C30.6197 9.81019 30.63 9.81029 30.41 10.9203L30.43 10.9502Z" fill="#606060"/>
<path d="M22.81 8.70008C22.36 8.79008 22.1198 9.14012 21.8798 9.49012C19.9598 12.2601 18.0398 15.0302 16.1298 17.8102C15.8698 18.1802 15.7301 18.2001 15.4101 17.8901C14.3401 16.8601 13.2301 15.8601 12.1401 14.8501C11.6901 14.4301 11.1798 14.3401 10.6298 14.6001C10.1498 14.8201 9.90984 15.2201 9.91984 15.8301C9.88984 16.2201 10.1501 16.5401 10.4701 16.8301C11.9501 18.1901 13.4198 19.5602 14.8998 20.9302C15.8298 21.8002 16.57 21.7301 17.29 20.6901C18.4 19.0901 19.51 17.4901 20.62 15.8901C21.81 14.1701 22.9999 12.4501 24.1899 10.7201C24.5299 10.2201 24.5499 9.69007 24.2099 9.19007C23.8799 8.70007 23.3797 8.58007 22.8197 8.69007L22.81 8.70008Z" fill="#606060"/>
</svg>
