<svg width="41" height="51" viewBox="0 0 41 51" fill="none" xmlns="http://www.w3.org/2000/svg">
<path d="M7.99023 46.6201H4.60986V48.4801C4.60986 48.5901 4.60986 48.7201 4.60986 48.8601C4.60986 49.0001 4.59008 49.1402 4.58008 49.2802C4.57008 49.4202 4.54979 49.5601 4.52979 49.7001C4.50979 49.8401 4.49021 49.9701 4.47021 50.0801H3.56006V46.6201H0.169922V45.7401H5.37012C5.52012 45.3701 5.61992 45.0101 5.66992 44.6501C5.71992 44.3001 5.75 43.9702 5.75 43.6702V42.8102H1.37012V41.9302H6.79004V43.4701C6.79004 43.8501 6.75994 44.2301 6.68994 44.6101C6.61994 44.9901 6.52012 45.3701 6.37012 45.7301H7.97998V46.6101L7.99023 46.6201Z" fill="#A11F31"/>
<path d="M8.8501 42.1702H12.3101V47.3201H9.47998C9.05998 47.3201 8.83984 47.1102 8.83984 46.6702V42.1702H8.8501ZM11.29 46.4801V43.0201H9.87012V46.3301C9.87012 46.4301 9.92002 46.4801 10.02 46.4801H11.29ZM13.1099 41.7501H14.1099V44.3501H15.0801V41.6201H16.0898V48.5302C16.0898 48.6802 16.0898 48.8301 16.0898 48.9901C16.0898 49.1501 16.0798 49.3001 16.0698 49.4601C16.0698 49.6101 16.0498 49.7602 16.0298 49.9102C16.0098 50.0602 15.9902 50.1902 15.9702 50.3002H15.1001V45.2401H14.1299V48.3901C14.1299 48.6501 14.1201 48.9401 14.1001 49.2301C14.0801 49.5201 14.04 49.7801 14 50.0101H13.1401V41.7601L13.1099 41.7501Z" fill="#A11F31"/>
<path d="M19.6802 41.8398H20.7002L17.9502 49.3999H16.9199L19.6802 41.8398Z" fill="#A11F31"/>
<path d="M24.29 46.4301C24.16 46.3601 24.0098 46.29 23.8398 46.23C23.6798 46.17 23.5098 46.11 23.3398 46.04C23.1698 45.98 23.0001 45.92 22.8301 45.85C22.6601 45.78 22.5001 45.71 22.3501 45.64C22.1601 45.55 21.9901 45.45 21.8501 45.35C21.7101 45.25 21.59 45.13 21.48 45C21.38 44.87 21.3 44.71 21.25 44.54C21.2 44.36 21.1699 44.15 21.1699 43.91C21.1699 43.61 21.2301 43.34 21.3501 43.1C21.4701 42.87 21.6401 42.67 21.8701 42.52C22.1001 42.37 22.3602 42.25 22.6802 42.16C22.9902 42.08 23.3402 42.04 23.7202 42.04C24.1002 42.04 24.4698 42.08 24.8398 42.15C25.1998 42.22 25.5401 42.34 25.8501 42.52L25.4702 43.35C25.2602 43.24 25.01 43.1501 24.71 43.0601C24.41 42.9701 24.08 42.9301 23.73 42.9301C23.26 42.9301 22.8999 43.0101 22.6499 43.1801C22.4099 43.3501 22.2798 43.57 22.2798 43.85C22.2798 44.08 22.3402 44.26 22.4702 44.4C22.6002 44.54 22.7499 44.65 22.9399 44.74C23.0699 44.8 23.2099 44.86 23.3599 44.92C23.5099 44.98 23.6701 45.04 23.8301 45.1C23.9901 45.16 24.1601 45.22 24.3301 45.29C24.5001 45.36 24.6601 45.43 24.8101 45.5C24.9701 45.59 25.1198 45.68 25.2598 45.78C25.3998 45.87 25.5201 45.99 25.6201 46.12C25.7201 46.25 25.7999 46.41 25.8599 46.58C25.9199 46.76 25.9502 46.98 25.9502 47.23C25.9502 47.53 25.89 47.8 25.77 48.04C25.65 48.27 25.47 48.47 25.25 48.64C25.03 48.8 24.7599 48.93 24.4399 49.02C24.1199 49.1 23.7701 49.15 23.3901 49.15C23.0101 49.15 22.6 49.11 22.21 49.02C21.81 48.93 21.4499 48.8 21.1099 48.63L21.5098 47.8101C21.8298 47.9601 22.1299 48.08 22.4199 48.15C22.7099 48.23 23.0199 48.26 23.3599 48.26C23.8799 48.26 24.2698 48.17 24.5098 47.99C24.7498 47.81 24.8701 47.58 24.8701 47.3C24.8701 47.09 24.8102 46.92 24.7002 46.78C24.5902 46.64 24.4498 46.5299 24.2798 46.4399L24.29 46.4301Z" fill="#A11F31"/>
<path d="M29.8599 49.1302C28.7799 49.1302 28 48.8202 27.52 48.2302C27.04 47.6402 26.7998 46.7502 26.7998 45.5802C26.7998 44.4102 27.0701 43.4703 27.6201 42.8903C28.1701 42.3103 28.95 42.0303 29.96 42.0303C30.38 42.0303 30.8 42.1002 31.21 42.2502C31.62 42.4002 31.95 42.6302 32.21 42.9402L31.5601 43.6002C31.3601 43.3902 31.1399 43.2202 30.8999 43.1002C30.6499 42.9802 30.3502 42.9203 29.9902 42.9203C29.2702 42.9203 28.7499 43.1502 28.4199 43.6202C28.0899 44.0902 27.9302 44.7802 27.9302 45.6902C27.9302 46.5202 28.0899 47.1502 28.3999 47.5702C28.7199 47.9902 29.2202 48.2002 29.9102 48.2002C30.3302 48.2002 30.6998 48.1602 31.0298 48.0702C31.3598 47.9802 31.6499 47.8803 31.9199 47.7803L32.1899 48.6202C31.9099 48.7702 31.5699 48.8902 31.1499 48.9902C30.7299 49.0902 30.3101 49.1403 29.8701 49.1403L29.8599 49.1302Z" fill="#A11F31"/>
<path d="M40.4302 42.1401V49.0201H39.3501V43.0201H39.25L37.6299 49.0201H36.1602L34.5 43.0201H34.4102V49.0201H33.3198V42.1401H35.2798L36.8799 48.1702H36.9702L38.5298 42.1401H40.4302Z" fill="#A11F31"/>
<path d="M13.6498 27.3602C13.5698 26.7402 13.1998 27.0502 12.9398 27.0702C12.6398 27.0902 12.3201 27.1302 12.4501 27.6102C12.5701 28.0502 12.7098 28.5102 12.6898 29.0102C8.19984 26.4502 5.52996 20.2702 6.55996 14.9902C7.23996 11.5102 8.93012 8.66019 11.7201 6.46019C11.8501 6.36019 12.1199 6.28021 12.0399 6.10021C11.9099 5.81021 11.7299 5.50028 11.4799 5.30028C11.2399 5.11028 11.06 5.44018 10.89 5.57018C3.77004 11.1902 3.18 21.7102 9.6 28.1002C10.2 28.7002 10.8799 29.2202 11.5399 29.7602C11.3399 30.0002 11.07 29.9502 10.85 29.9802C10.15 30.0802 10.5997 30.5302 10.5897 30.8202C10.5797 31.1302 10.69 31.2802 11.08 31.1902C11.87 30.9902 12.6699 30.8602 13.4599 30.7202C14.0299 30.6202 14.24 30.3002 14.12 29.7402C13.95 28.9502 13.74 28.1602 13.64 27.3602H13.6498Z" fill="#A11F31"/>
<path d="M15.98 4.89026C15.98 5.25026 16.0602 5.38025 16.4502 5.38025C18.9502 5.36025 21.46 5.36025 23.96 5.38025C24.34 5.38025 24.4402 5.27027 24.4302 4.90027C24.4102 3.60027 24.4102 2.31025 24.4302 1.01025C24.4302 0.640254 24.34 0.530273 23.96 0.530273C22.71 0.550273 21.4602 0.530273 20.2002 0.530273C18.9402 0.530273 17.6999 0.540273 16.4399 0.530273C16.0699 0.530273 15.96 0.620244 15.96 1.00024C15.98 2.30024 15.98 3.59026 15.96 4.89026H15.98ZM20.1802 0.84021C21.3402 0.82021 22.3201 1.80021 22.3101 2.96021C22.3101 4.11021 21.39 5.04029 20.23 5.05029C19.04 5.06029 18.0901 4.1302 18.1001 2.9502C18.1001 1.8102 19.0402 0.86021 20.1802 0.84021Z" fill="#A11F31"/>
<path d="M22.6301 28.8904C22.3701 28.8904 21.98 28.7104 22.01 29.2704C22.04 29.8804 22.01 30.5004 22.01 31.1104C22.01 31.6204 21.7702 31.8904 21.2502 31.8904C20.5502 31.8904 19.8504 31.8904 19.1404 31.8904C18.6304 31.8904 18.3703 31.6404 18.3703 31.1304C18.3703 30.5404 18.3301 29.9403 18.3801 29.3503C18.4301 28.8103 18.12 28.8604 17.78 28.8704C17.47 28.8804 17.1401 28.7503 17.1501 29.3203C17.1901 30.8303 17.1801 32.3504 17.1501 33.8604C17.1501 34.2204 17.2703 34.3004 17.6003 34.2904C18.4603 34.2704 19.3101 34.2904 20.1701 34.2904C21.0301 34.2904 21.93 34.2804 22.8 34.2904C23.12 34.2904 23.2102 34.2004 23.2102 33.8804C23.1902 32.3404 23.1802 30.8104 23.2102 29.2704C23.2202 28.7304 22.8801 28.8604 22.6101 28.8704L22.6301 28.8904Z" fill="#A11F31"/>
<path d="M13.5803 7.29007C13.5803 7.70007 13.6901 7.81008 14.0901 7.80008C15.3201 7.77008 16.5502 7.79007 17.7702 7.79007C18.9902 7.79007 20.2304 7.77008 21.4504 7.80008C21.9204 7.81008 22.04 7.66999 22.03 7.20999C22.03 6.76999 21.9802 6.55009 21.4402 6.56009C19.5302 6.60009 17.6304 6.57997 15.7204 6.56997C14.9504 6.56997 14.79 6.41006 14.78 5.66006C14.78 4.91006 14.7403 4.17007 14.7903 3.42007C14.8203 2.90007 14.5402 2.92008 14.1902 2.93008C13.8702 2.94008 13.5503 2.84004 13.5603 3.39004C13.6003 4.68004 13.5903 5.98005 13.5603 7.27005L13.5803 7.29007Z" fill="#A11F31"/>
<path d="M18.5001 16.9601C18.4468 17.6734 18.7832 18.0302 19.5099 18.0302H20.63C21.5567 18.0302 21.98 17.5735 21.9 16.6602C21.84 15.9535 21.4501 15.6001 20.7301 15.6001H19.94C19.0467 15.6001 18.5668 16.0501 18.5001 16.9501V16.9601Z" fill="#A11F31"/>
<path d="M21.7702 21.5003C21.8502 20.7803 22.0703 20.0203 21.9103 19.3603C21.8303 19.0303 21.0001 19.2903 20.5001 19.2403C20.4101 19.2303 20.3303 19.2403 20.1403 19.2403C19.6603 19.3003 18.8699 18.9803 18.5499 19.3703C18.2399 19.7503 18.52 20.5003 18.61 21.0803C18.61 21.1503 18.63 21.2104 18.63 21.2804C18.62 21.5704 18.7499 21.6504 19.0299 21.6504C19.8399 21.6404 20.6501 21.6504 21.4601 21.6504C21.5801 21.6504 21.7599 21.7004 21.7799 21.5104L21.7702 21.5003Z" fill="#A11F31"/>
<path d="M28.7499 8.34005C28.9699 8.36005 29.18 8.34006 29.1 7.97006C28.97 7.39006 28.8897 6.80006 28.7797 6.22006C28.7297 5.97006 28.76 5.83013 29.08 5.79013C29.67 5.72013 30.25 5.60007 30.83 5.48007C31.47 5.35007 30.9899 4.93011 31.0199 4.65011C31.0499 4.37011 30.96 4.21013 30.6 4.29013C29.74 4.47013 28.8697 4.60009 28.0097 4.75009C27.6197 4.82009 27.4401 5.04009 27.4501 5.50009C27.6001 6.36009 27.7201 7.30006 27.9301 8.22006C28.0601 8.76006 28.4699 8.31004 28.7499 8.33004V8.34005Z" fill="#A11F31"/>
<path d="M15.0096 18.0304H15.7298V18.0504C16.2098 18.0304 16.7997 18.1704 17.1297 17.9304C17.4897 17.6804 17.2499 17.0304 17.3299 16.5604C17.3299 16.5204 17.3399 16.4704 17.3499 16.4304C17.4232 15.8704 17.183 15.5903 16.6297 15.5903C16.5397 15.5903 16.4599 15.5903 16.3699 15.5903C15.3099 15.5903 14.6432 16.107 14.3699 17.1404C14.2166 17.727 14.4296 18.0204 15.0096 18.0204V18.0304Z" fill="#A11F31"/>
<path d="M24.19 15.6101C24.19 15.6101 24.1002 15.6101 24.0602 15.6101C23.3802 15.6101 23.0633 15.9334 23.11 16.5801C23.1766 17.5467 23.6936 18.0301 24.6603 18.0301C25.0503 18.0301 25.4499 18.0301 25.8399 18.0301C26.0399 18.0301 26.19 18.0001 26.15 17.7401C26.06 17.0201 25.8903 16.2901 25.4303 15.7301C25.1503 15.3901 24.6003 15.6501 24.1803 15.6001L24.19 15.6101Z" fill="#A11F31"/>
<path d="M17.3197 20.5902C17.233 19.6902 16.733 19.2402 15.8197 19.2402C15.3997 19.2402 14.9897 19.2402 14.5697 19.2402C14.3297 19.2402 14.1999 19.2902 14.2499 19.5702C14.3599 20.2702 14.4998 20.9903 14.9598 21.5103C15.2698 21.8603 15.87 21.6202 16.33 21.6302C17.41 21.6602 17.4099 21.6302 17.3099 20.5902H17.3197Z" fill="#A11F31"/>
<path d="M24.6901 19.2402C23.7034 19.2402 23.1803 19.6703 23.1203 20.5303C23.0669 21.2703 23.4368 21.6403 24.2301 21.6403C25.1568 21.6403 25.7468 21.197 26.0002 20.3103C26.0002 20.3103 25.9999 20.2702 26.0099 20.2502C26.1966 19.5769 25.9533 19.2402 25.2799 19.2402H24.6901V19.2402Z" fill="#A11F31"/>
<path d="M21.2101 24.1204C21.5701 22.8304 21.6102 22.8403 20.2702 22.8403C18.8602 22.8403 18.9001 22.8304 19.2501 24.1204C19.4101 24.7104 19.7801 24.6704 20.1901 24.6604C20.6101 24.6604 21.0301 24.7404 21.2101 24.1204Z" fill="#A11F31"/>
<path d="M21.5199 14.4004C21.4199 14.0204 21.3097 13.6903 21.2597 13.3503C21.1697 12.7703 20.8497 12.5903 20.2797 12.5903C19.6597 12.5903 19.23 12.7304 19.16 13.4204C19.14 13.6304 19.0697 13.8404 19.0097 14.0504C18.9397 14.2804 18.9597 14.4104 19.2597 14.4004C19.9997 14.3804 20.7397 14.4004 21.5297 14.4004H21.5199Z" fill="#A11F31"/>
<path d="M20.08 30.7203C20.85 30.8003 20.9197 30.4004 20.8197 29.8104C20.7397 29.5204 21.0201 29.1203 20.6801 28.9103C20.1601 28.5803 19.5898 28.9603 19.5898 29.5803C19.5898 29.7803 19.6098 29.9803 19.5898 30.1703C19.5498 30.5503 19.6698 30.6803 20.0898 30.7203H20.08Z" fill="#A11F31"/>
<path d="M30.9401 26.3502C30.6401 26.3002 30.4201 26.7902 30.1901 27.0702C30.1401 27.1302 30.8301 27.8903 30.9401 27.9003C31.0401 27.9003 31.7704 27.2102 31.7404 27.0902C31.6404 26.6802 31.2403 26.4002 30.9503 26.3502H30.9401Z" fill="#A11F31"/>
<path d="M30.9998 6.89014C30.0698 7.68014 30.0899 7.66011 30.5799 8.24011C31.1299 8.88011 31.4396 8.17009 31.5696 7.97009C31.9496 7.38009 31.1198 7.31014 30.9998 6.89014Z" fill="#A11F31"/>
<path d="M33.73 21.1602C33.34 21.3402 33.29 21.7802 33.29 22.0602C33.3 22.5402 33.8999 22.5902 34.1699 22.5602C34.5999 22.5202 34.6499 21.9501 34.6299 21.6301C34.6099 21.1601 34.0302 21.3802 33.7202 21.1602H33.73Z" fill="#A11F31"/>
<path d="M26.2597 29.9504C25.9897 29.9404 25.4201 30.0404 25.4101 30.4604C25.4001 30.7704 25.5798 31.1505 25.8398 31.4305C26.1998 31.1905 26.7697 31.2004 26.8197 30.8204C26.8597 30.5404 26.6697 29.9604 26.2597 29.9404V29.9504Z" fill="#A11F31"/>
<path d="M33.2996 12.7702C33.2996 13.0302 33.2498 13.6102 33.7698 13.6002C34.0798 13.6002 34.49 13.5802 34.72 13.2002C34.47 12.8902 34.65 12.2802 34.18 12.2602C33.9 12.2502 33.2896 12.2602 33.2996 12.7702V12.7702Z" fill="#A11F31"/>
<path d="M33.9704 15.6701C33.9704 15.9701 33.7301 16.67 34.6701 16.47C34.8201 16.42 35.3501 16.7001 35.2101 16.0601C35.1501 15.7801 35.38 15.2501 34.86 15.2801C34.57 15.3001 33.9504 15.0301 33.9704 15.6701V15.6701Z" fill="#A11F31"/>
<path d="M15.9399 22.8703C16.5699 23.4903 17.1802 23.9304 17.9702 24.1804C17.5702 22.5604 18.1099 22.8403 15.9399 22.8703Z" fill="#A11F31"/>
<path d="M33.2401 24.2603C33.0601 24.1003 32.6899 23.5403 32.3099 24.1603C31.8899 24.8503 31.8798 24.8402 32.9598 25.4902C32.9798 25.0302 33.8101 24.7803 33.2401 24.2603V24.2603Z" fill="#A11F31"/>
<path d="M32.63 10.9204C32.93 10.7404 33.3004 10.6604 33.4904 10.4204C33.4604 10.1104 32.8999 9.36039 32.8199 9.42039C32.5299 9.63039 32.1103 9.70029 31.9703 10.0703C31.9003 10.2403 32.52 10.9904 32.63 10.9204V10.9204Z" fill="#A11F31"/>
<path d="M34.6203 18.3303C33.9903 18.3003 33.9603 18.3304 33.9503 19.1104C33.9403 19.7504 34.4702 19.4904 34.7702 19.5304C35.4402 19.6204 35.1301 19.0404 35.2101 18.7604C35.3701 18.1804 34.88 18.3803 34.63 18.3203L34.6203 18.3303Z" fill="#A11F31"/>
<path d="M17.9302 13.0703C17.2002 13.3603 16.5602 13.7604 15.9902 14.3604C17.7102 14.5204 17.8602 14.4203 17.9302 13.0703Z" fill="#A11F31"/>
<path d="M22.5 24.2002C23.22 23.8802 23.86 23.5002 24.46 22.8502C23.2333 22.8236 22.58 23.2735 22.5 24.2002Z" fill="#A11F31"/>
<path d="M28.3599 28.6002C27.4599 29.2702 28.5301 29.4902 28.5601 29.9502C28.7901 29.5602 29.6599 29.6802 29.3599 28.9802C29.2199 28.6602 29.0199 28.1102 28.3599 28.6002V28.6002Z" fill="#A11F31"/>
<path d="M24.3999 14.3302C23.8399 13.7602 23.2102 13.3603 22.4502 13.0503C22.6635 14.0636 23.3132 14.4902 24.3999 14.3302Z" fill="#A11F31"/>
<path d="M20.23 3.85017C20.71 3.84017 21.1099 3.43016 21.1099 2.96016C21.1099 2.46016 20.6799 2.04026 20.1699 2.06026C19.6899 2.08026 19.29 2.48015 19.29 2.95015C19.29 3.45015 19.7202 3.86017 20.2202 3.85017H20.23Z" fill="#A11F31"/>
</svg>
