<svg width="59" height="48" viewBox="0 0 59 48" fill="none" xmlns="http://www.w3.org/2000/svg">
<path d="M4.1001 42.4701C3.9701 42.4001 3.8199 42.3301 3.6499 42.2701C3.4899 42.2101 3.3199 42.1501 3.1499 42.0801C2.9799 42.0201 2.81014 41.9601 2.64014 41.8901C2.47014 41.8201 2.31016 41.7502 2.16016 41.6802C1.97016 41.5902 1.80016 41.4901 1.66016 41.3901C1.52016 41.2901 1.40004 41.1702 1.29004 41.0402C1.19004 40.9102 1.11006 40.7501 1.06006 40.5801C1.01006 40.4001 0.97998 40.1901 0.97998 39.9501C0.97998 39.6501 1.04016 39.3801 1.16016 39.1401C1.28016 38.9101 1.45018 38.7102 1.68018 38.5602C1.90018 38.4002 2.17023 38.2901 2.49023 38.2001C2.80023 38.1201 3.14979 38.0801 3.52979 38.0801C3.90979 38.0801 4.2799 38.1201 4.6499 38.1901C5.0099 38.2601 5.35016 38.3802 5.66016 38.5602L5.27979 39.3901C5.06979 39.2801 4.82002 39.1901 4.52002 39.1001C4.22002 39.0201 3.89004 38.9701 3.54004 38.9701C3.07004 38.9701 2.70996 39.0501 2.45996 39.2201C2.21996 39.3901 2.08984 39.6101 2.08984 39.8901C2.08984 40.1201 2.14979 40.3001 2.27979 40.4401C2.40979 40.5801 2.56 40.6902 2.75 40.7802C2.88 40.8402 3.01992 40.9001 3.16992 40.9601C3.31992 41.0201 3.48014 41.0801 3.64014 41.1401C3.80014 41.2001 3.97014 41.2601 4.14014 41.3301C4.31014 41.4001 4.47012 41.4702 4.62012 41.5402C4.78012 41.6302 4.92982 41.7201 5.06982 41.8201C5.20982 41.9101 5.33018 42.0302 5.43018 42.1602C5.53018 42.2902 5.60992 42.4501 5.66992 42.6201C5.72992 42.8001 5.75977 43.0201 5.75977 43.2701C5.75977 43.5701 5.70008 43.8401 5.58008 44.0801C5.46008 44.3101 5.28006 44.5102 5.06006 44.6802C4.84006 44.8402 4.57 44.9702 4.25 45.0602C3.93 45.1502 3.5802 45.1901 3.2002 45.1901C2.8202 45.1901 2.41002 45.1502 2.02002 45.0602C1.62002 44.9702 1.25992 44.8402 0.919922 44.6702L1.31982 43.8501C1.63982 44.0001 1.93998 44.1201 2.22998 44.1901C2.51998 44.2701 2.82992 44.3002 3.16992 44.3002C3.68992 44.3002 4.07982 44.2102 4.31982 44.0302C4.55982 43.8502 4.68018 43.6201 4.68018 43.3401C4.68018 43.1301 4.61977 42.9601 4.50977 42.8201C4.39977 42.6801 4.25984 42.5701 4.08984 42.4801L4.1001 42.4701Z" fill="#606060"/>
<path d="M10.8101 43.7898L10.8999 45.0598H9.8999L9.8501 44.6798C9.7601 44.7498 9.66982 44.8097 9.56982 44.8497C9.46982 44.8997 9.37002 44.9397 9.27002 44.9697C9.09002 45.0397 8.92023 45.0898 8.74023 45.1198C8.57023 45.1498 8.39998 45.1698 8.22998 45.1698C7.91998 45.1698 7.67021 45.1298 7.47021 45.0498C7.27021 44.9698 7.11 44.8597 7 44.7097C6.88 44.5597 6.79977 44.3798 6.75977 44.1598C6.71977 43.9398 6.68994 43.6898 6.68994 43.4098V40.2698H7.77002V43.1897C7.77002 43.3497 7.77004 43.5098 7.79004 43.6398C7.81004 43.7798 7.84014 43.8998 7.89014 43.9998C7.94014 44.0998 8.01988 44.1897 8.12988 44.2397C8.22988 44.2997 8.38006 44.3297 8.56006 44.3297C8.76006 44.3297 8.9401 44.2998 9.1001 44.2498C9.2601 44.1998 9.4098 44.1298 9.5498 44.0398C9.6098 43.9898 9.66021 43.9498 9.72021 43.9198V40.2598H10.79V43.7698L10.8101 43.7898Z" fill="#606060"/>
<path d="M13.4302 42.0399C13.4902 42.0699 13.5602 42.0999 13.6602 42.1399C13.7502 42.1699 13.8502 42.2099 13.9502 42.2399L14.5498 42.4398C14.6998 42.4798 14.8402 42.5399 14.9702 42.6099C15.1002 42.6799 15.2101 42.7599 15.3101 42.8699C15.4101 42.9699 15.4798 43.0999 15.5298 43.2399C15.5798 43.3799 15.6099 43.5398 15.6099 43.7198C15.6099 44.2298 15.4298 44.5998 15.0698 44.8298C14.7098 45.0598 14.2101 45.1799 13.5601 45.1799C13.2001 45.1799 12.8701 45.1498 12.5601 45.0898C12.2601 45.0298 11.98 44.9498 11.73 44.8398L12.0601 44.0599C12.2501 44.1699 12.4702 44.2499 12.7202 44.3099C12.9702 44.3699 13.2498 44.3999 13.5498 44.3999C13.8298 44.3999 14.07 44.3599 14.27 44.2799C14.46 44.1999 14.5601 44.0498 14.5601 43.8298C14.5601 43.5798 14.3602 43.3798 13.9502 43.2198C13.7702 43.1598 13.5701 43.0999 13.3701 43.0399C13.1701 42.9799 12.9801 42.9099 12.8101 42.8499C12.6601 42.7999 12.5302 42.7399 12.4102 42.6699C12.2902 42.5999 12.1798 42.5199 12.0898 42.4199C11.9998 42.3199 11.9299 42.2098 11.8799 42.0698C11.8299 41.9398 11.7998 41.7799 11.7998 41.5999C11.7998 41.3499 11.85 41.1398 11.96 40.9598C12.06 40.7798 12.2101 40.6299 12.3901 40.5099C12.5701 40.3899 12.7798 40.3099 13.0298 40.2499C13.2698 40.1999 13.5301 40.1699 13.8101 40.1699C14.1901 40.1699 14.5201 40.1999 14.8101 40.2599C15.1001 40.3199 15.3498 40.3899 15.5698 40.4799L15.2402 41.2499C14.8402 41.0499 14.3598 40.9598 13.8198 40.9598C13.4798 40.9598 13.2298 41.0099 13.0698 41.0999C12.9098 41.1899 12.8301 41.3199 12.8301 41.4899C12.8301 41.6199 12.8802 41.7199 12.9702 41.7999C13.0702 41.8799 13.2199 41.9599 13.4399 42.0499L13.4302 42.0399Z" fill="#606060"/>
<path d="M17.9399 41.0896V43.2496C17.9399 43.4096 17.94 43.5596 17.96 43.6996C17.98 43.8396 18.0101 43.9497 18.0601 44.0397C18.1101 44.1297 18.19 44.2096 18.29 44.2596C18.39 44.3096 18.5302 44.3396 18.7202 44.3396C18.8902 44.3396 19.0502 44.3197 19.2002 44.2797C19.3502 44.2397 19.4999 44.1896 19.6299 44.1296L19.8198 44.8596C19.3698 45.0696 18.8899 45.1697 18.3799 45.1697C18.0699 45.1697 17.8199 45.1297 17.6299 45.0497C17.4399 44.9697 17.2899 44.8596 17.1699 44.7096C17.0599 44.5596 16.9799 44.3896 16.9399 44.1896C16.8999 43.9896 16.8799 43.7597 16.8799 43.5197V41.0896H16.0601V40.3796L16.8701 40.2897V39.3296L17.9399 39.1396V40.2797H19.6602V41.0996H17.9399V41.0896Z" fill="#606060"/>
<path d="M24.7598 45.0698C24.6498 45.0898 24.5099 45.0999 24.3599 45.0999C24.1099 45.0999 23.8998 45.0599 23.7598 44.9799C23.6098 44.8999 23.4899 44.7699 23.3999 44.6099C23.2299 44.7599 23.01 44.8899 22.73 45.0099C22.46 45.1199 22.1699 45.1799 21.8599 45.1799C21.5499 45.1799 21.2801 45.1399 21.0801 45.0599C20.8701 44.9799 20.7101 44.8699 20.6001 44.7299C20.4801 44.5899 20.3999 44.4299 20.3599 44.2599C20.3099 44.0799 20.29 43.8898 20.29 43.6898C20.29 43.3898 20.3399 43.1398 20.4399 42.9398C20.5399 42.7398 20.6801 42.5899 20.8701 42.4799C21.0501 42.3699 21.2698 42.2899 21.5298 42.2499C21.7898 42.2099 22.0699 42.1898 22.3799 42.1898C22.5299 42.1898 22.6701 42.1898 22.8101 42.1898C22.9501 42.1898 23.09 42.2098 23.23 42.2198V41.9899C23.23 41.7999 23.2102 41.6399 23.1802 41.5099C23.1502 41.3799 23.0898 41.2698 23.0098 41.1898C22.9298 41.1098 22.8199 41.0499 22.6899 41.0099C22.5599 40.9699 22.3899 40.9498 22.1899 40.9498C21.9099 40.9498 21.6501 40.9799 21.3901 41.0499C21.1401 41.1199 20.92 41.1999 20.73 41.2999L20.4902 40.6199C20.7502 40.4899 21.0501 40.3899 21.3901 40.2999C21.7301 40.2099 22.0902 40.1699 22.4702 40.1699C22.8202 40.1699 23.1101 40.1999 23.3501 40.2699C23.5901 40.3399 23.7799 40.4499 23.9199 40.6099C24.0599 40.7699 24.17 40.9699 24.23 41.2299C24.29 41.4799 24.3198 41.7999 24.3198 42.1699V43.7699C24.3198 43.9899 24.3602 44.1398 24.4302 44.2198C24.5102 44.2998 24.6198 44.3398 24.7598 44.3398V45.0798V45.0698ZM22.3599 42.9199C21.9999 42.9199 21.7499 42.9799 21.6099 43.0999C21.4699 43.2199 21.4102 43.4099 21.4102 43.6599C21.4102 43.9099 21.4598 44.0898 21.5698 44.2198C21.6798 44.3498 21.8699 44.4099 22.1499 44.4099C22.3199 44.4099 22.5102 44.3699 22.7002 44.2899C22.8902 44.2099 23.08 44.1099 23.23 43.9799V42.9598C23.08 42.9298 22.93 42.9099 22.79 42.9099C22.65 42.9099 22.4999 42.9099 22.3599 42.9099V42.9199Z" fill="#606060"/>
<path d="M25.5 38.25H26.5801V39.21H25.5V38.25ZM25.5 40.27H26.5601V45.05H25.5V40.27Z" fill="#606060"/>
<path d="M28.7002 40.2701L28.7402 40.6501C28.8302 40.5901 28.92 40.5301 29.02 40.4801C29.12 40.4301 29.2198 40.3901 29.3398 40.3501C29.7098 40.2201 30.0501 40.1602 30.3701 40.1602C30.6901 40.1602 30.9499 40.2002 31.1499 40.2802C31.3499 40.3602 31.5099 40.4701 31.6299 40.6201C31.7499 40.7701 31.8301 40.9502 31.8701 41.1702C31.9101 41.3902 31.9399 41.6402 31.9399 41.9202V45.0602H30.8799V42.1501C30.8799 41.9901 30.8801 41.8301 30.8501 41.7001C30.8301 41.5601 30.7902 41.4401 30.7402 41.3401C30.6802 41.2401 30.6002 41.1601 30.4902 41.1001C30.3802 41.0401 30.2401 41.0201 30.0601 41.0201C29.8601 41.0201 29.67 41.0501 29.5 41.1001C29.33 41.1501 29.1901 41.2202 29.0601 41.3102L28.8701 41.4302V45.0701H27.8101V41.5602L27.7202 40.2902H28.71L28.7002 40.2701Z" fill="#606060"/>
<path d="M37.29 45.0698C37.18 45.0898 37.0401 45.0999 36.8901 45.0999C36.6401 45.0999 36.43 45.0599 36.29 44.9799C36.14 44.8999 36.0202 44.7699 35.9302 44.6099C35.7602 44.7599 35.5398 44.8899 35.2598 45.0099C34.9898 45.1199 34.7001 45.1799 34.3901 45.1799C34.0801 45.1799 33.8099 45.1399 33.6099 45.0599C33.3999 44.9799 33.2399 44.8699 33.1299 44.7299C33.0099 44.5899 32.9301 44.4299 32.8901 44.2599C32.8501 44.0799 32.8198 43.8898 32.8198 43.6898C32.8198 43.3898 32.8702 43.1398 32.9702 42.9398C33.0702 42.7398 33.2099 42.5899 33.3999 42.4799C33.5799 42.3699 33.8001 42.2899 34.0601 42.2499C34.3201 42.2099 34.6002 42.1898 34.9102 42.1898C35.0602 42.1898 35.1998 42.1898 35.3398 42.1898C35.4798 42.1898 35.6198 42.2098 35.7598 42.2198V41.9899C35.7598 41.7999 35.74 41.6399 35.71 41.5099C35.68 41.3799 35.62 41.2698 35.54 41.1898C35.46 41.1098 35.3502 41.0499 35.2202 41.0099C35.0902 40.9699 34.9202 40.9498 34.7202 40.9498C34.4402 40.9498 34.1699 40.9799 33.9199 41.0499C33.6699 41.1199 33.4498 41.1999 33.2598 41.2999L33.02 40.6199C33.28 40.4899 33.5799 40.3899 33.9199 40.2999C34.2599 40.2099 34.62 40.1699 35 40.1699C35.35 40.1699 35.6399 40.1999 35.8799 40.2699C36.1199 40.3399 36.3102 40.4499 36.4502 40.6099C36.5902 40.7699 36.6998 40.9699 36.7598 41.2299C36.8198 41.4799 36.8501 41.7999 36.8501 42.1699V43.7699C36.8501 43.9899 36.89 44.1398 36.96 44.2198C37.04 44.2998 37.15 44.3398 37.29 44.3398V45.0798V45.0698ZM34.8901 42.9199C34.5301 42.9199 34.2801 42.9799 34.1401 43.0999C34.0001 43.2199 33.9399 43.4099 33.9399 43.6599C33.9399 43.9099 33.9901 44.0898 34.1001 44.2198C34.2101 44.3498 34.4002 44.4099 34.6802 44.4099C34.8502 44.4099 35.04 44.3699 35.23 44.2899C35.43 44.2099 35.6098 44.1099 35.7598 43.9799V42.9598C35.6098 42.9298 35.4598 42.9099 35.3198 42.9099C35.1798 42.9099 35.0301 42.9099 34.8901 42.9099V42.9199Z" fill="#606060"/>
<path d="M40.0698 45.1702C39.8298 45.1702 39.6099 45.1401 39.4199 45.0801C39.3299 45.0601 39.2402 45.0301 39.1602 45.0001C39.0702 44.9701 38.9899 44.9201 38.8999 44.8701L38.8101 45.0602H38.02V37.9601L39.0898 37.8301V40.5001L39.5 40.3102C39.63 40.2702 39.7602 40.2301 39.9102 40.2101C40.0602 40.1901 40.2101 40.1702 40.3701 40.1702C41.0501 40.1702 41.5501 40.3802 41.8701 40.8102C42.1901 41.2302 42.3501 41.8201 42.3501 42.5801C42.3501 42.9601 42.31 43.3101 42.23 43.6301C42.15 43.9501 42.0201 44.2201 41.8301 44.4601C41.6501 44.6901 41.4101 44.8701 41.1201 45.0001C40.8301 45.1301 40.4701 45.1901 40.0601 45.1901L40.0698 45.1702ZM39.3799 44.3201C39.4699 44.3501 39.5599 44.3701 39.6499 44.3801C39.7399 44.4001 39.8299 44.4001 39.9199 44.4001C40.3399 44.4001 40.6702 44.2601 40.9102 43.9901C41.1502 43.7201 41.2798 43.2601 41.2798 42.6101C41.2798 42.3601 41.26 42.1402 41.21 41.9302C41.17 41.7302 41.1 41.5501 41 41.4001C40.9 41.2501 40.7801 41.1402 40.6201 41.0602C40.4601 40.9802 40.2698 40.9401 40.0498 40.9401C39.7798 40.9401 39.5499 40.9901 39.3799 41.1001C39.2899 41.1501 39.1999 41.2102 39.1099 41.2802V44.1802C39.1599 44.2102 39.21 44.2301 39.25 44.2601C39.29 44.2901 39.3401 44.3001 39.3901 44.3201H39.3799Z" fill="#606060"/>
<path d="M43.3398 38.25H44.4199V39.21H43.3398V38.25ZM43.3398 40.27H44.3999V45.05H43.3398V40.27Z" fill="#606060"/>
<path d="M47.21 45.0898C47.21 45.0898 47.1599 45.0898 47.1099 45.0898C47.0999 45.0998 47.0801 45.1099 47.0601 45.1099H46.8999C46.6599 45.1099 46.46 45.0799 46.29 45.0199C46.12 44.9599 45.9899 44.8599 45.8999 44.7399C45.7999 44.6199 45.7299 44.4699 45.6899 44.2899C45.6499 44.1099 45.6299 43.9099 45.6299 43.6799V37.9498L46.6899 37.8198V43.6699C46.6899 43.8199 46.6902 43.9299 46.7202 44.0199C46.7402 44.1099 46.7701 44.1698 46.8101 44.2098C46.8501 44.2498 46.9002 44.2899 46.9702 44.2999C47.0402 44.3099 47.12 44.3198 47.21 44.3198V45.0798V45.0898Z" fill="#606060"/>
<path d="M48 38.25H49.0801V39.21H48V38.25ZM48 40.27H49.0601V45.05H48V40.27Z" fill="#606060"/>
<path d="M51.6899 41.0896V43.2496C51.6899 43.4096 51.69 43.5596 51.71 43.6996C51.73 43.8396 51.7601 43.9497 51.8101 44.0397C51.8601 44.1297 51.94 44.2096 52.04 44.2596C52.14 44.3096 52.2802 44.3396 52.4702 44.3396C52.6402 44.3396 52.8002 44.3197 52.9502 44.2797C53.1002 44.2397 53.2499 44.1896 53.3799 44.1296L53.5698 44.8596C53.1198 45.0696 52.6399 45.1697 52.1299 45.1697C51.8199 45.1697 51.5699 45.1297 51.3799 45.0497C51.1899 44.9697 51.0399 44.8596 50.9199 44.7096C50.8099 44.5596 50.7299 44.3896 50.6899 44.1896C50.6499 43.9896 50.6299 43.7597 50.6299 43.5197V41.0896H49.8101V40.3796L50.6201 40.2897V39.3296L51.6899 39.1396V40.2797H53.4102V41.0996H51.6899V41.0896Z" fill="#606060"/>
<path d="M53.7402 40.27H54.9302L56.1201 43.67H56.21L57.3398 40.27H58.4199L56.5601 45.25C56.4501 45.55 56.3402 45.83 56.2202 46.08C56.1002 46.33 55.9598 46.54 55.7998 46.72C55.6398 46.9 55.44 47.03 55.21 47.13C54.98 47.23 54.6901 47.28 54.3501 47.28C54.2501 47.28 54.15 47.28 54.04 47.28C53.94 47.28 53.84 47.26 53.75 47.22L53.8901 46.47C53.9901 46.5 54.1098 46.51 54.2598 46.51C54.5098 46.51 54.7001 46.47 54.8301 46.39C54.9601 46.31 55.0699 46.22 55.1499 46.11C55.1899 46.05 55.23 45.97 55.27 45.88C55.31 45.79 55.3499 45.7 55.3999 45.59C55.4399 45.49 55.4898 45.38 55.5298 45.27C55.5698 45.16 55.6099 45.05 55.6499 44.95L53.73 40.27H53.7402Z" fill="#606060"/>
<path d="M42.41 16.6698C42.26 15.0298 42.13 13.3797 41.93 11.7497C41.79 10.5797 40.8099 9.74975 39.8299 10.0198C39.2199 10.1798 39.0096 9.99974 38.7596 9.50974C38.3696 8.75974 37.8101 8.11974 37.2201 7.50974C36.4301 6.69974 35.5199 6.05972 34.4999 5.48972C34.6799 5.33972 34.8101 5.22973 34.9501 5.11973C36 4.22973 36.61 3.07973 36.91 1.74973C37 1.34973 36.8699 1.06979 36.4999 0.929787C34.0199 0.00978747 31.39 0.56969 29.87 2.82969C29.75 2.99969 29.7101 3.23969 29.4901 3.32969C27.7101 0.36969 25.0298 0.159773 22.9198 0.789773C22.0698 1.03977 21.9601 1.24971 22.2 2.09971C22.59 3.47971 23.3197 4.61972 24.5497 5.48972C22.5697 6.54972 21.0797 7.97973 20.0497 9.86973C19.8997 10.1397 19.7901 10.1597 19.4901 10.0697C18.5201 9.77968 17.6996 10.1897 17.2596 11.1097C17.0496 11.5597 17.0101 12.0398 16.9701 12.5198C16.7701 14.6598 16.5997 16.8097 16.3797 18.9497C16.2197 20.4797 16.3596 21.8797 17.2796 23.1997C18.0196 24.2697 18.5999 25.4497 19.2699 26.5697C19.4399 26.8597 19.51 27.0498 19.16 27.2798C18.82 27.4998 18.7298 27.8898 18.7298 28.2898C18.7298 28.8498 18.7198 29.4197 18.7298 29.9797C18.7598 31.0197 19.64 31.6798 20.64 31.3998C20.92 31.3198 21.0897 31.1397 21.0897 30.8297C21.0897 30.4997 20.91 30.1997 20.62 30.2397C19.82 30.3397 19.92 29.8397 19.93 29.3597C19.93 29.0997 19.95 28.8297 19.93 28.5797C19.89 28.1997 20.04 28.0997 20.41 28.1097C21.94 28.1297 23.4699 28.1097 24.9999 28.1097C26.5299 28.1097 26.5196 28.1097 26.5296 29.6297C26.5296 30.0397 26.4801 30.2697 25.9901 30.2097C25.6401 30.1697 25.42 30.3897 25.37 30.7297C25.32 31.0197 25.4698 31.2397 25.7298 31.3597C26.4198 31.6697 27.5098 31.2297 27.6498 30.4797C27.8198 29.5997 27.7898 28.6798 27.6498 27.7798C27.6098 27.5398 27.4601 27.2797 27.2401 27.2097C26.5901 26.9797 26.7497 26.5298 26.7997 26.0498C26.8397 25.6298 26.9697 25.5998 27.3597 25.6798C28.7897 25.9898 30.23 25.9697 31.68 25.6997C31.84 25.6697 32.1398 25.4397 32.1698 25.7397C32.2098 26.1397 32.61 26.6697 32.16 26.9497C31.46 27.3697 31.2797 27.9298 31.3197 28.6698C31.3397 29.0898 31.3197 29.5097 31.3197 29.9397C31.3397 30.9897 32.1701 31.6398 33.2001 31.3998C33.5201 31.3298 33.6998 31.1198 33.6898 30.7998C33.6898 30.4898 33.4998 30.1897 33.1898 30.2297C32.4598 30.3097 32.4899 29.8798 32.5199 29.3998C32.5299 29.1798 32.5499 28.9497 32.5199 28.7397C32.4499 28.2497 32.6097 28.0797 33.1297 28.0997C34.6397 28.1397 36.15 28.1097 37.66 28.1097C39.17 28.1097 39.0997 28.1097 39.1097 29.5897C39.1097 30.0097 39.0897 30.2897 38.5497 30.2197C38.2397 30.1797 38.0098 30.3697 37.9598 30.6997C37.9098 31.0197 38.0297 31.2997 38.3397 31.3597C38.8997 31.4797 39.4598 31.4698 39.9198 31.0198C40.5198 30.4298 40.54 27.8198 39.89 27.2798C39.54 26.9898 39.6297 26.8098 39.7997 26.5198C40.5597 25.2398 41.2697 23.9398 42.0497 22.6798C42.5897 21.7998 42.7998 20.8697 42.7098 19.8597C42.6198 18.7997 42.5298 17.7398 42.4398 16.6698H42.41ZM30.5897 3.94968C31.3697 2.49968 32.5798 1.74969 34.2298 1.70969C34.6698 1.70969 35.2898 1.64968 35.4798 1.94968C35.7098 2.32968 35.2699 2.78979 35.0399 3.17979C34.7899 3.61979 34.4499 3.97977 34.0399 4.28977C33.4899 4.70977 32.9498 4.96977 32.2298 4.65977C31.7998 4.47977 31.2997 4.42975 30.8197 4.38975C30.4397 4.35975 30.44 4.23969 30.6 3.95969L30.5897 3.94968ZM23.4901 2.24973C23.4201 2.06973 23.3698 1.9097 23.6498 1.8397C25.9798 1.2497 28.0099 2.60969 28.4999 4.32969C27.7199 4.40969 26.9601 4.54978 26.2201 4.79978C26.0501 4.85978 25.9096 4.80973 25.7596 4.74973C24.6196 4.25973 23.9198 3.36972 23.4798 2.23972L23.4901 2.24973ZM20.8299 10.9098C21.3099 9.92977 21.9298 9.04976 22.7098 8.27976C22.9198 8.06976 23.0397 7.98968 23.3397 8.18968C24.6997 9.07968 26.1799 9.34979 27.7699 8.92979C28.3099 8.78979 28.8698 8.6997 29.4398 8.7197C29.8898 8.73971 30.2199 8.94975 30.3299 9.38975C30.4499 9.85975 30.1799 10.1497 29.7899 10.3497C29.3199 10.5997 28.7896 10.6397 28.2796 10.7397C27.1896 10.9697 26.2401 11.4397 25.4501 12.2297C24.6201 13.0597 23.6798 13.5897 22.4398 13.3897C21.8698 13.2997 21.3497 13.5497 20.8197 13.8697C20.7697 13.0097 20.7998 12.2098 20.6698 11.4198C20.6398 11.2198 20.7499 11.0698 20.8299 10.9098ZM25.4901 26.6297C25.4501 26.8597 25.3197 26.9098 25.1097 26.9098C23.7797 26.9098 22.4497 26.9098 21.1297 26.9098C20.8897 26.9098 20.7698 26.8097 20.6698 26.6197C19.7098 24.9497 18.7399 23.2897 17.7699 21.6197C17.4899 21.1397 17.4699 20.6197 17.5199 20.0997C17.7399 17.4997 17.97 14.8898 18.2 12.2898C18.24 11.8098 18.31 11.2097 18.93 11.2097C19.61 11.2097 19.5399 11.8498 19.5599 12.3098C19.5899 13.1098 19.5599 13.9197 19.5599 14.7197H19.7596C19.7596 15.5597 19.7596 16.4097 19.7596 17.2497C19.7596 17.4697 19.6797 17.6298 19.5897 17.8098C19.1897 18.6498 19.3001 19.4798 19.9501 20.1498C20.68 20.8998 21.4298 21.6297 22.1698 22.3697C22.4598 22.6697 22.79 22.7797 23.12 22.4697C23.46 22.1497 23.3299 21.8198 23.0399 21.5298C22.3399 20.8398 21.64 20.1397 20.95 19.4397C20.5001 18.9797 20.4599 18.5398 20.8099 18.1698C21.1699 17.7998 21.6299 17.8197 22.0799 18.2597C22.7299 18.8897 23.3701 19.5297 23.9901 20.1897C25.7401 22.0397 25.8698 24.2697 25.4798 26.6197L25.4901 26.6297ZM32.37 22.4897C32.29 22.8397 32.15 23.2098 32.18 23.5498C32.25 24.3098 31.8598 24.4697 31.2098 24.5697C29.8798 24.7597 28.5696 24.7597 27.2596 24.4497C26.9696 24.3797 26.8697 24.2697 26.8597 23.9797C26.7997 22.1697 26.06 20.6397 24.85 19.3297C24.19 18.6197 23.4899 17.9598 22.8099 17.2698C22.4699 16.9298 22.0397 16.7797 21.5697 16.6997C21.3697 16.6597 21.0498 16.8597 20.9798 16.5997C20.8898 16.2597 20.8001 15.8398 20.9901 15.5398C21.3401 14.9998 21.7699 14.4797 22.5399 14.5897C23.8599 14.7797 24.99 14.3397 25.89 13.4397C26.89 12.4397 28.0801 11.9197 29.4501 11.7297C29.93 11.6597 30.3696 11.4598 30.7596 11.1598C31.4696 10.6098 31.7398 9.7597 31.4798 8.95969C31.2098 8.13969 30.47 7.55973 29.6 7.49973C28.83 7.44973 28.0799 7.58975 27.3299 7.76975C26.1599 8.03975 25.1599 7.87969 24.0599 7.20969C27.5999 4.42969 33.66 5.12978 36.62 8.66978C35.75 9.22978 34.9697 9.87972 34.3797 10.7397C33.8797 11.4897 33.6197 12.3298 33.3797 13.1798C33.2397 13.6998 32.93 13.8897 32.4501 13.7297C31.3201 13.3697 30.43 13.6698 29.64 14.5498C29.03 15.2298 28.2096 15.4197 27.2796 15.3597C25.8596 15.2597 24.9399 16.3098 25.3099 17.5198C25.4599 18.0098 25.7197 18.4397 26.1297 18.7497C27.1297 19.5197 28.2099 19.9198 29.4999 19.5398C30.4099 19.2698 30.7499 19.4597 31.0199 20.3797C31.2199 21.0897 31.5301 21.6898 32.2201 22.0198C32.4401 22.1298 32.41 22.2797 32.37 22.4697V22.4897ZM33.0599 20.8098C32.8999 21.0898 32.76 20.9997 32.6 20.8697C32.42 20.7297 32.3296 20.5397 32.2596 20.3197C31.6196 18.3597 30.93 17.9797 28.93 18.4497C28.04 18.6597 27.3201 18.2698 26.7201 17.6498C26.5101 17.4298 26.3399 17.1397 26.5199 16.8297C26.6799 16.5597 26.9896 16.5597 27.2796 16.5697C27.3996 16.5697 27.52 16.5897 27.64 16.5897C28.8 16.6597 29.7697 16.1797 30.5497 15.3797C31.0197 14.8897 31.4798 14.7597 32.1498 14.8897C33.5598 15.1797 34.1997 14.7797 34.5897 13.3597C34.9897 11.8797 35.7397 10.6797 37.0497 9.84971C37.3197 9.67971 37.4698 9.64969 37.6498 9.95969C38.0598 10.6597 38.3799 11.3097 38.2699 12.1997C38.1099 13.5097 38.1197 14.8498 38.0897 16.1698C38.0897 16.5398 38.0699 16.7497 37.5799 16.7097C37.0399 16.6697 36.5598 16.8998 36.1698 17.2898C35.0698 18.3998 33.8497 19.4098 33.0697 20.7998L33.0599 20.8098ZM41.0296 21.9897C40.1496 23.4497 39.2998 24.9298 38.4598 26.4198C38.2598 26.7698 38.0497 26.9498 37.6297 26.9198C37.0497 26.8798 36.4597 26.9098 35.8797 26.9098C35.2397 26.9098 34.59 26.8998 33.9501 26.9098C33.6401 26.9098 33.5401 26.7997 33.4901 26.4997C32.9901 23.7497 33.5398 21.3497 35.7098 19.4397C36.1498 19.0497 36.5398 18.6097 36.9598 18.2197C37.3898 17.8197 37.8398 17.8098 38.1898 18.1698C38.5298 18.5298 38.5097 18.9697 38.0897 19.3897C37.3997 20.0997 36.6999 20.7897 35.9999 21.4797C35.6899 21.7797 35.5097 22.1097 35.8797 22.4597C36.2397 22.7997 36.57 22.6197 36.87 22.3197C37.58 21.6097 38.2999 20.8997 38.9999 20.1897C39.6799 19.4997 39.8098 18.6698 39.3998 17.8098C39.2998 17.6098 39.2301 17.4198 39.2401 17.1798C39.3201 15.5498 39.3701 13.9198 39.4501 12.2998C39.4701 11.8398 39.3997 11.1997 40.0897 11.1997C40.6797 11.1997 40.7599 11.7597 40.8099 12.2297C41.0499 14.8697 41.2796 17.5198 41.5096 20.1598C41.5696 20.8198 41.3997 21.4197 41.0497 21.9897H41.0296Z" fill="#606060"/>
<path d="M23.23 30.1997C22.86 30.2397 22.6199 30.4098 22.6099 30.7998C22.6099 31.1498 22.8099 31.3698 23.1499 31.3998C23.5299 31.4398 23.7698 31.2097 23.7998 30.8497C23.8298 30.4797 23.59 30.2697 23.23 30.1997Z" fill="#606060"/>
<path d="M35.7598 30.2098C35.4098 30.2198 35.1999 30.4499 35.1899 30.7899C35.1899 31.1599 35.4098 31.3999 35.7798 31.3999C36.1598 31.3999 36.3501 31.1699 36.3901 30.7899C36.3401 30.4199 36.1398 30.1998 35.7598 30.2098Z" fill="#606060"/>
</svg>
